%TF.GenerationSoftware,KiCad,Pcbnew,(6.0.7-1)-1*%
%TF.CreationDate,2022-12-25T16:23:57+07:00*%
%TF.ProjectId,pcb,7063622e-6b69-4636-9164-5f7063625858,rev?*%
%TF.SameCoordinates,Original*%
%TF.FileFunction,Copper,L1,Top*%
%TF.FilePolarity,Positive*%
%FSLAX46Y46*%
G04 Gerber Fmt 4.6, Leading zero omitted, Abs format (unit mm)*
G04 Created by KiCad (PCBNEW (6.0.7-1)-1) date 2022-12-25 16:23:57*
%MOMM*%
%LPD*%
G01*
G04 APERTURE LIST*
G04 Aperture macros list*
%AMRoundRect*
0 Rectangle with rounded corners*
0 $1 Rounding radius*
0 $2 $3 $4 $5 $6 $7 $8 $9 X,Y pos of 4 corners*
0 Add a 4 corners polygon primitive as box body*
4,1,4,$2,$3,$4,$5,$6,$7,$8,$9,$2,$3,0*
0 Add four circle primitives for the rounded corners*
1,1,$1+$1,$2,$3*
1,1,$1+$1,$4,$5*
1,1,$1+$1,$6,$7*
1,1,$1+$1,$8,$9*
0 Add four rect primitives between the rounded corners*
20,1,$1+$1,$2,$3,$4,$5,0*
20,1,$1+$1,$4,$5,$6,$7,0*
20,1,$1+$1,$6,$7,$8,$9,0*
20,1,$1+$1,$8,$9,$2,$3,0*%
%AMFreePoly0*
4,1,18,-0.410000,0.265000,0.000000,0.675000,0.328000,0.675000,0.359380,0.668758,0.385983,0.650983,0.403758,0.624380,0.410000,0.593000,0.410000,-0.593000,0.403758,-0.624380,0.385983,-0.650983,0.359380,-0.668758,0.328000,-0.675000,-0.328000,-0.675000,-0.359380,-0.668758,-0.385983,-0.650983,-0.403758,-0.624380,-0.410000,-0.593000,-0.410000,0.265000,-0.410000,0.265000,$1*%
G04 Aperture macros list end*
%TA.AperFunction,ComponentPad*%
%ADD10C,1.752600*%
%TD*%
%TA.AperFunction,SMDPad,CuDef*%
%ADD11RoundRect,0.250000X-1.025000X-1.000000X1.025000X-1.000000X1.025000X1.000000X-1.025000X1.000000X0*%
%TD*%
%TA.AperFunction,ComponentPad*%
%ADD12C,3.300000*%
%TD*%
%TA.AperFunction,SMDPad,CuDef*%
%ADD13R,1.650000X2.500000*%
%TD*%
%TA.AperFunction,SMDPad,CuDef*%
%ADD14RoundRect,0.082000X0.593000X-0.328000X0.593000X0.328000X-0.593000X0.328000X-0.593000X-0.328000X0*%
%TD*%
%TA.AperFunction,SMDPad,CuDef*%
%ADD15FreePoly0,90.000000*%
%TD*%
%TA.AperFunction,Conductor*%
%ADD16C,0.250000*%
%TD*%
G04 APERTURE END LIST*
D10*
%TO.P,U1,3,GND*%
%TO.N,GND*%
X136525000Y-83343750D03*
%TO.P,U1,4,GND*%
X136525000Y-80803750D03*
%TO.P,U1,8,5/PC6*%
%TO.N,sw2*%
X136525000Y-70643750D03*
%TO.P,U1,9,6/PD7*%
%TO.N,sw1*%
X136525000Y-68103750D03*
%TO.P,U1,13,10/PB6*%
%TO.N,led 1*%
X121285000Y-60483750D03*
%TO.P,U1,21,VCC*%
%TO.N,vcc1*%
X121285000Y-80803750D03*
%TO.P,U1,23,GND*%
%TO.N,GND*%
X121285000Y-85883750D03*
%TO.P,U1,24,RAW*%
%TO.N,unconnected-(U1-Pad24)*%
X121285000Y-88423750D03*
%TD*%
D11*
%TO.P,SW2,1,1*%
%TO.N,GND*%
X136265000Y-77628750D03*
D12*
X132715000Y-77628750D03*
D13*
X134540000Y-77628750D03*
D12*
%TO.P,SW2,2,2*%
%TO.N,sw2*%
X126365000Y-75088750D03*
D11*
X122815000Y-75088750D03*
D13*
X124565000Y-75088750D03*
%TD*%
D14*
%TO.P,LED1,1,VDD*%
%TO.N,vcc1*%
X131630000Y-65448750D03*
%TO.P,LED1,2,DOUT*%
%TO.N,led 2*%
X131630000Y-66948750D03*
%TO.P,LED1,3,DIN*%
%TO.N,led 1*%
X126180000Y-65448750D03*
D15*
%TO.P,LED1,4,VSS*%
%TO.N,GND*%
X126180000Y-66948750D03*
%TD*%
D11*
%TO.P,SW1,1,1*%
%TO.N,sw1*%
X136265000Y-58578750D03*
D13*
X134540000Y-58578750D03*
D12*
X132715000Y-58578750D03*
D11*
%TO.P,SW1,2,2*%
%TO.N,GND*%
X122815000Y-56038750D03*
D12*
X126365000Y-56038750D03*
D13*
X124565000Y-56038750D03*
%TD*%
D14*
%TO.P,LED2,1,VDD*%
%TO.N,vcc1*%
X131630000Y-84498750D03*
%TO.P,LED2,2,DOUT*%
%TO.N,unconnected-(LED2-Pad2)*%
X131630000Y-85998750D03*
%TO.P,LED2,3,DIN*%
%TO.N,led 2*%
X126180000Y-84498750D03*
D15*
%TO.P,LED2,4,VSS*%
%TO.N,GND*%
X126180000Y-85998750D03*
%TD*%
D16*
%TO.N,led 2*%
X129513750Y-70193750D02*
X121997208Y-70193750D01*
%TO.N,GND*%
X136265000Y-77628750D02*
X136525000Y-77368750D01*
%TO.N,vcc1*%
X131630000Y-83687500D02*
X130810000Y-82867500D01*
X121285000Y-82073750D02*
X121285000Y-80803750D01*
X133351396Y-70643750D02*
X122183604Y-70643750D01*
X121285000Y-71542354D02*
X121285000Y-73660000D01*
X130810000Y-82867500D02*
X122078750Y-82867500D01*
X134276250Y-69718896D02*
X133351396Y-70643750D01*
X121126250Y-73818750D02*
X121126250Y-76358750D01*
X133235000Y-65448750D02*
X134276250Y-66490000D01*
X121126250Y-76358750D02*
X121285000Y-76517500D01*
X121285000Y-76517500D02*
X121285000Y-80803750D01*
X131630000Y-84498750D02*
X131630000Y-83687500D01*
X121285000Y-73660000D02*
X121126250Y-73818750D01*
X131630000Y-65448750D02*
X133235000Y-65448750D01*
X134276250Y-66490000D02*
X134276250Y-69718896D01*
X122183604Y-70643750D02*
X121285000Y-71542354D01*
X122078750Y-82867500D02*
X121285000Y-82073750D01*
%TO.N,led 2*%
X120835000Y-76703896D02*
X120676250Y-76545146D01*
X120083700Y-81508846D02*
X120083700Y-80126300D01*
X133147500Y-66948750D02*
X131630000Y-66948750D01*
X120835000Y-79375000D02*
X120835000Y-76703896D01*
X126206250Y-84472500D02*
X126180000Y-84498750D01*
X121892354Y-83317500D02*
X125862500Y-83317500D01*
X133826250Y-67627500D02*
X133147500Y-66948750D01*
X121892354Y-83317500D02*
X120083700Y-81508846D01*
X121997208Y-70193750D02*
X120835000Y-71355958D01*
X120083700Y-80126300D02*
X120835000Y-79375000D01*
X120676250Y-76545146D02*
X120676250Y-73632354D01*
X133165000Y-70193750D02*
X129513750Y-70193750D01*
X126206250Y-83661250D02*
X126206250Y-84472500D01*
X125862500Y-83317500D02*
X126206250Y-83661250D01*
X133165000Y-70193750D02*
X133826250Y-69532500D01*
X133826250Y-69532500D02*
X133826250Y-67627500D01*
X120835000Y-73473604D02*
X120835000Y-71355958D01*
X120676250Y-73632354D02*
X120835000Y-73473604D01*
%TO.N,led 1*%
X121285000Y-64293750D02*
X121285000Y-60483750D01*
X126180000Y-65448750D02*
X122440000Y-65448750D01*
X122440000Y-65448750D02*
X121285000Y-64293750D01*
%TO.N,sw1*%
X136265000Y-58578750D02*
X136525000Y-58838750D01*
X136525000Y-58838750D02*
X136525000Y-68103750D01*
%TO.N,sw2*%
X133537792Y-71093750D02*
X122370000Y-71093750D01*
X121735000Y-71728750D02*
X121735000Y-74008750D01*
X121735000Y-74008750D02*
X122815000Y-75088750D01*
X133987792Y-70643750D02*
X133537792Y-71093750D01*
X136525000Y-70643750D02*
X133987792Y-70643750D01*
X122370000Y-71093750D02*
X121735000Y-71728750D01*
%TD*%
%TA.AperFunction,Conductor*%
%TO.N,GND*%
G36*
X137606265Y-46547501D02*
G01*
X137619319Y-46549534D01*
X137629958Y-46551191D01*
X137642635Y-46549534D01*
X137669948Y-46548951D01*
X137759835Y-46556818D01*
X137812614Y-46561437D01*
X137834243Y-46565251D01*
X137994623Y-46608229D01*
X138015245Y-46615735D01*
X138165737Y-46685914D01*
X138184745Y-46696890D01*
X138320754Y-46792128D01*
X138337578Y-46806246D01*
X138454979Y-46923651D01*
X138469096Y-46940476D01*
X138564324Y-47076480D01*
X138575305Y-47095500D01*
X138645464Y-47245957D01*
X138645472Y-47245975D01*
X138652984Y-47266614D01*
X138695954Y-47426987D01*
X138699768Y-47448615D01*
X138711665Y-47584598D01*
X138711118Y-47600872D01*
X138711550Y-47600877D01*
X138711440Y-47609853D01*
X138710059Y-47618724D01*
X138711223Y-47627626D01*
X138711223Y-47627628D01*
X138714186Y-47650283D01*
X138715250Y-47666621D01*
X138715250Y-93613133D01*
X138713750Y-93632518D01*
X138711440Y-93647351D01*
X138711440Y-93647355D01*
X138710059Y-93656224D01*
X138711716Y-93668898D01*
X138712300Y-93696211D01*
X138699816Y-93838893D01*
X138696003Y-93860521D01*
X138653036Y-94020886D01*
X138653031Y-94020903D01*
X138645522Y-94041536D01*
X138575360Y-94192000D01*
X138575348Y-94192026D01*
X138564367Y-94211045D01*
X138469134Y-94347056D01*
X138455017Y-94363881D01*
X138337610Y-94481292D01*
X138320786Y-94495410D01*
X138184776Y-94590649D01*
X138165756Y-94601630D01*
X138015271Y-94671807D01*
X137994632Y-94679320D01*
X137834249Y-94722299D01*
X137812620Y-94726113D01*
X137733188Y-94733065D01*
X137677047Y-94737978D01*
X137660360Y-94737417D01*
X137660355Y-94737799D01*
X137651380Y-94737690D01*
X137642510Y-94736309D01*
X137633610Y-94737473D01*
X137633608Y-94737473D01*
X137610956Y-94740436D01*
X137594615Y-94741500D01*
X120223125Y-94741500D01*
X120203735Y-94739999D01*
X120188916Y-94737691D01*
X120180042Y-94736309D01*
X120167365Y-94737966D01*
X120140052Y-94738549D01*
X120050165Y-94730682D01*
X119997386Y-94726063D01*
X119975758Y-94722249D01*
X119940232Y-94712729D01*
X119815377Y-94679271D01*
X119794755Y-94671765D01*
X119644263Y-94601586D01*
X119625255Y-94590610D01*
X119489244Y-94495370D01*
X119472422Y-94481254D01*
X119355021Y-94363849D01*
X119340904Y-94347024D01*
X119245676Y-94211020D01*
X119234695Y-94192000D01*
X119195637Y-94108239D01*
X119164527Y-94041522D01*
X119157016Y-94020886D01*
X119114046Y-93860513D01*
X119110232Y-93838885D01*
X119098335Y-93702902D01*
X119098882Y-93686628D01*
X119098450Y-93686623D01*
X119098560Y-93677647D01*
X119099941Y-93668776D01*
X119095814Y-93637214D01*
X119094750Y-93620879D01*
X119094750Y-88389800D01*
X119895869Y-88389800D01*
X119896166Y-88394952D01*
X119896166Y-88394956D01*
X119900983Y-88478490D01*
X119908977Y-88617137D01*
X119959039Y-88839281D01*
X119960983Y-88844067D01*
X119960984Y-88844072D01*
X120042767Y-89045478D01*
X120044711Y-89050265D01*
X120163692Y-89244424D01*
X120312786Y-89416543D01*
X120487989Y-89561999D01*
X120492441Y-89564601D01*
X120492446Y-89564604D01*
X120586540Y-89619588D01*
X120684597Y-89676888D01*
X120897329Y-89758122D01*
X120902395Y-89759153D01*
X120902396Y-89759153D01*
X120954630Y-89769780D01*
X121120472Y-89803521D01*
X121248288Y-89808208D01*
X121342870Y-89811677D01*
X121342875Y-89811677D01*
X121348034Y-89811866D01*
X121353154Y-89811210D01*
X121353156Y-89811210D01*
X121425344Y-89801962D01*
X121573903Y-89782931D01*
X121578852Y-89781446D01*
X121578858Y-89781445D01*
X121705204Y-89743539D01*
X121792013Y-89717495D01*
X121996507Y-89617314D01*
X122000711Y-89614316D01*
X122000715Y-89614313D01*
X122078683Y-89558699D01*
X122181893Y-89485080D01*
X122343193Y-89324342D01*
X122476073Y-89139419D01*
X122576967Y-88935276D01*
X122643164Y-88717396D01*
X122655700Y-88622180D01*
X122672450Y-88494951D01*
X122672451Y-88494944D01*
X122672887Y-88491629D01*
X122674546Y-88423750D01*
X122667179Y-88334143D01*
X122656311Y-88201952D01*
X122656310Y-88201946D01*
X122655887Y-88196801D01*
X122600413Y-87975947D01*
X122598354Y-87971211D01*
X122511672Y-87771856D01*
X122511670Y-87771853D01*
X122509612Y-87767119D01*
X122385923Y-87575925D01*
X122232668Y-87407500D01*
X122053963Y-87266368D01*
X122046849Y-87262441D01*
X122046006Y-87261590D01*
X122045131Y-87261009D01*
X122045251Y-87260828D01*
X121996876Y-87212011D01*
X121982100Y-87142569D01*
X122007214Y-87076163D01*
X122034568Y-87049552D01*
X122053103Y-87036331D01*
X122061504Y-87025631D01*
X122054515Y-87012475D01*
X121297812Y-86255772D01*
X121283868Y-86248158D01*
X121282035Y-86248289D01*
X121275420Y-86252540D01*
X120512510Y-87015450D01*
X120505750Y-87027830D01*
X120511031Y-87034884D01*
X120525698Y-87043455D01*
X120574422Y-87095093D01*
X120587493Y-87164876D01*
X120560762Y-87230648D01*
X120537781Y-87253003D01*
X120370608Y-87378520D01*
X120362444Y-87384650D01*
X120205120Y-87549280D01*
X120202206Y-87553552D01*
X120202205Y-87553553D01*
X120130928Y-87658042D01*
X120076797Y-87737395D01*
X119980921Y-87943942D01*
X119920067Y-88163375D01*
X119895869Y-88389800D01*
X119094750Y-88389800D01*
X119094750Y-85854969D01*
X119896668Y-85854969D01*
X119909176Y-86071900D01*
X119910612Y-86082120D01*
X119958382Y-86294089D01*
X119961461Y-86303917D01*
X120043215Y-86505252D01*
X120047858Y-86514443D01*
X120132334Y-86652296D01*
X120142790Y-86661756D01*
X120151568Y-86657972D01*
X120912978Y-85896562D01*
X120919356Y-85884882D01*
X121649408Y-85884882D01*
X121649539Y-85886715D01*
X121653790Y-85893330D01*
X122414320Y-86653860D01*
X122426330Y-86660419D01*
X122438069Y-86651451D01*
X122472625Y-86603361D01*
X122477936Y-86594522D01*
X122574206Y-86399733D01*
X122578005Y-86390137D01*
X122617572Y-86259909D01*
X125064498Y-86259909D01*
X125068873Y-86267426D01*
X125113929Y-86325407D01*
X125119124Y-86331294D01*
X125582416Y-86794586D01*
X125588390Y-86799851D01*
X125647076Y-86845332D01*
X125661548Y-86853726D01*
X125780450Y-86902856D01*
X125796593Y-86907121D01*
X125869448Y-86916260D01*
X125877293Y-86916750D01*
X125907885Y-86916750D01*
X125923124Y-86912275D01*
X125924329Y-86910885D01*
X125926000Y-86903202D01*
X125926000Y-86270865D01*
X125921525Y-86255626D01*
X125920135Y-86254421D01*
X125912452Y-86252750D01*
X125078487Y-86252750D01*
X125064956Y-86256723D01*
X125064498Y-86259909D01*
X122617572Y-86259909D01*
X122641170Y-86182241D01*
X122643349Y-86172160D01*
X122671949Y-85954925D01*
X122672468Y-85948252D01*
X122673962Y-85887115D01*
X122673768Y-85880396D01*
X122655816Y-85662044D01*
X122654131Y-85651864D01*
X122601196Y-85441121D01*
X122597876Y-85431370D01*
X122511229Y-85232093D01*
X122506362Y-85223018D01*
X122437083Y-85115928D01*
X122426398Y-85106725D01*
X122416831Y-85111129D01*
X121657022Y-85870938D01*
X121649408Y-85884882D01*
X120919356Y-85884882D01*
X120920592Y-85882618D01*
X120920461Y-85880785D01*
X120916210Y-85874170D01*
X120155922Y-85113882D01*
X120144386Y-85107582D01*
X120132104Y-85117205D01*
X120080143Y-85193377D01*
X120075058Y-85202328D01*
X119983571Y-85399421D01*
X119980008Y-85409108D01*
X119921942Y-85618486D01*
X119920011Y-85628606D01*
X119896920Y-85844680D01*
X119896668Y-85854969D01*
X119094750Y-85854969D01*
X119094750Y-84741390D01*
X120507436Y-84741390D01*
X120514180Y-84753720D01*
X121272188Y-85511728D01*
X121286132Y-85519342D01*
X121287965Y-85519211D01*
X121294580Y-85514960D01*
X122057115Y-84752425D01*
X122064136Y-84739569D01*
X122056607Y-84729236D01*
X122049156Y-84724286D01*
X121858932Y-84619276D01*
X121849523Y-84615048D01*
X121644697Y-84542515D01*
X121634734Y-84539883D01*
X121420810Y-84501777D01*
X121410557Y-84500808D01*
X121193274Y-84498153D01*
X121182991Y-84498873D01*
X120968205Y-84531740D01*
X120958177Y-84534129D01*
X120751638Y-84601636D01*
X120742141Y-84605628D01*
X120549400Y-84705961D01*
X120540672Y-84711458D01*
X120515889Y-84730065D01*
X120507436Y-84741390D01*
X119094750Y-84741390D01*
X119094750Y-80106243D01*
X119445480Y-80106243D01*
X119446226Y-80114135D01*
X119449641Y-80150261D01*
X119450200Y-80162119D01*
X119450200Y-81430079D01*
X119449673Y-81441262D01*
X119447998Y-81448755D01*
X119448247Y-81456681D01*
X119448247Y-81456682D01*
X119450138Y-81516832D01*
X119450200Y-81520791D01*
X119450200Y-81548702D01*
X119450697Y-81552636D01*
X119450697Y-81552637D01*
X119450705Y-81552702D01*
X119451638Y-81564539D01*
X119453027Y-81608735D01*
X119458678Y-81628185D01*
X119462687Y-81647546D01*
X119465226Y-81667643D01*
X119468145Y-81675014D01*
X119468145Y-81675016D01*
X119481504Y-81708758D01*
X119485349Y-81719988D01*
X119497682Y-81762439D01*
X119501715Y-81769258D01*
X119501717Y-81769263D01*
X119507993Y-81779874D01*
X119516688Y-81797622D01*
X119524148Y-81816463D01*
X119528810Y-81822879D01*
X119528810Y-81822880D01*
X119550136Y-81852233D01*
X119556652Y-81862153D01*
X119579158Y-81900208D01*
X119593479Y-81914529D01*
X119606319Y-81929562D01*
X119618228Y-81945953D01*
X119629024Y-81954884D01*
X119652305Y-81974144D01*
X119661084Y-81982134D01*
X121388702Y-83709753D01*
X121396242Y-83718039D01*
X121400354Y-83724518D01*
X121406131Y-83729943D01*
X121450005Y-83771143D01*
X121452847Y-83773898D01*
X121472584Y-83793635D01*
X121475781Y-83796115D01*
X121484801Y-83803818D01*
X121517033Y-83834086D01*
X121523979Y-83837905D01*
X121523982Y-83837907D01*
X121534788Y-83843848D01*
X121551307Y-83854699D01*
X121567313Y-83867114D01*
X121574582Y-83870259D01*
X121574586Y-83870262D01*
X121607891Y-83884674D01*
X121618541Y-83889891D01*
X121657294Y-83911195D01*
X121664969Y-83913166D01*
X121664970Y-83913166D01*
X121676916Y-83916233D01*
X121695621Y-83922637D01*
X121714209Y-83930681D01*
X121722032Y-83931920D01*
X121722042Y-83931923D01*
X121757878Y-83937599D01*
X121769498Y-83940005D01*
X121804643Y-83949028D01*
X121812324Y-83951000D01*
X121832578Y-83951000D01*
X121852288Y-83952551D01*
X121872297Y-83955720D01*
X121880189Y-83954974D01*
X121916315Y-83951559D01*
X121928173Y-83951000D01*
X124876660Y-83951000D01*
X124944781Y-83971002D01*
X124991274Y-84024658D01*
X125001582Y-84093446D01*
X124996500Y-84132049D01*
X124996501Y-84865450D01*
X125011699Y-84980901D01*
X125071200Y-85124548D01*
X125107963Y-85172458D01*
X125133562Y-85238677D01*
X125119297Y-85308225D01*
X125107962Y-85325864D01*
X125076663Y-85366654D01*
X125068476Y-85380835D01*
X125015346Y-85509100D01*
X125011108Y-85524917D01*
X124997538Y-85627993D01*
X124997000Y-85636202D01*
X124997000Y-85726635D01*
X125001475Y-85741874D01*
X125002865Y-85743079D01*
X125010548Y-85744750D01*
X126308000Y-85744750D01*
X126376121Y-85764752D01*
X126422614Y-85818408D01*
X126434000Y-85870750D01*
X126434000Y-86898635D01*
X126438475Y-86913874D01*
X126439865Y-86915079D01*
X126447548Y-86916750D01*
X126678617Y-86916750D01*
X126746738Y-86936752D01*
X126785870Y-86976623D01*
X126795890Y-86992875D01*
X126799731Y-86997128D01*
X126799733Y-86997131D01*
X126841567Y-87043455D01*
X126919251Y-87129479D01*
X126923795Y-87132964D01*
X126923796Y-87132965D01*
X127060751Y-87238006D01*
X127060755Y-87238008D01*
X127065302Y-87241496D01*
X127229216Y-87325225D01*
X127234714Y-87326867D01*
X127234716Y-87326868D01*
X127275643Y-87339092D01*
X127405578Y-87377901D01*
X127411275Y-87378520D01*
X127582864Y-87397164D01*
X127582866Y-87397164D01*
X127588563Y-87397783D01*
X127772123Y-87384214D01*
X127950195Y-87337642D01*
X128075810Y-87278839D01*
X128084590Y-87275126D01*
X128106562Y-87266802D01*
X128106936Y-87267790D01*
X128154139Y-87257249D01*
X129650056Y-87257249D01*
X129669457Y-87258752D01*
X129684794Y-87261142D01*
X129718814Y-87271524D01*
X129859839Y-87337542D01*
X130037892Y-87384109D01*
X130221434Y-87397677D01*
X130227131Y-87397058D01*
X130227133Y-87397058D01*
X130398702Y-87378417D01*
X130404399Y-87377798D01*
X130580743Y-87325127D01*
X130744640Y-87241407D01*
X130782967Y-87212011D01*
X130886124Y-87132893D01*
X130886127Y-87132890D01*
X130890675Y-87129402D01*
X130894517Y-87125148D01*
X130894522Y-87125143D01*
X131010179Y-86997071D01*
X131010180Y-86997069D01*
X131014024Y-86992813D01*
X131017030Y-86987937D01*
X131017034Y-86987932D01*
X131023699Y-86977121D01*
X131076477Y-86929634D01*
X131130951Y-86917250D01*
X132195195Y-86917249D01*
X132261700Y-86917249D01*
X132265784Y-86916711D01*
X132265790Y-86916711D01*
X132368964Y-86903129D01*
X132368966Y-86903128D01*
X132377151Y-86902051D01*
X132520798Y-86842550D01*
X132583306Y-86794586D01*
X132637596Y-86752928D01*
X132637599Y-86752925D01*
X132644149Y-86747899D01*
X132738800Y-86624547D01*
X132798301Y-86480901D01*
X132813500Y-86365451D01*
X132813499Y-85632050D01*
X132811714Y-85618486D01*
X132799379Y-85524786D01*
X132799378Y-85524784D01*
X132798301Y-85516599D01*
X132738800Y-85372952D01*
X132702353Y-85325453D01*
X132676753Y-85259233D01*
X132691018Y-85189684D01*
X132702353Y-85172046D01*
X132733773Y-85131098D01*
X132738800Y-85124547D01*
X132745828Y-85107582D01*
X132795142Y-84988527D01*
X132798301Y-84980901D01*
X132813500Y-84865451D01*
X132813499Y-84487830D01*
X135745750Y-84487830D01*
X135751031Y-84494884D01*
X135920353Y-84593828D01*
X135929640Y-84598278D01*
X136132638Y-84675795D01*
X136142540Y-84678672D01*
X136355456Y-84721990D01*
X136365708Y-84723213D01*
X136582847Y-84731175D01*
X136593133Y-84730708D01*
X136808670Y-84703097D01*
X136818748Y-84700955D01*
X137026877Y-84638513D01*
X137036475Y-84634752D01*
X137231615Y-84539154D01*
X137240454Y-84533885D01*
X137293104Y-84496330D01*
X137301504Y-84485631D01*
X137294515Y-84472475D01*
X136537812Y-83715772D01*
X136523868Y-83708158D01*
X136522035Y-83708289D01*
X136515420Y-83712540D01*
X135752510Y-84475450D01*
X135745750Y-84487830D01*
X132813499Y-84487830D01*
X132813499Y-84132050D01*
X132811105Y-84113860D01*
X132799379Y-84024786D01*
X132799378Y-84024784D01*
X132798301Y-84016599D01*
X132738800Y-83872952D01*
X132660679Y-83771143D01*
X132649178Y-83756154D01*
X132649175Y-83756151D01*
X132644149Y-83749601D01*
X132520797Y-83654950D01*
X132513171Y-83651791D01*
X132513169Y-83651790D01*
X132384777Y-83598608D01*
X132384778Y-83598608D01*
X132377151Y-83595449D01*
X132368967Y-83594372D01*
X132368965Y-83594371D01*
X132354073Y-83592411D01*
X132342716Y-83590916D01*
X132277790Y-83562195D01*
X132242009Y-83512375D01*
X132232199Y-83487596D01*
X132228355Y-83476370D01*
X132227721Y-83474187D01*
X132216018Y-83433907D01*
X132205707Y-83416472D01*
X132197012Y-83398724D01*
X132189552Y-83379883D01*
X132163564Y-83344113D01*
X132157048Y-83334193D01*
X132145679Y-83314969D01*
X135136668Y-83314969D01*
X135149176Y-83531900D01*
X135150612Y-83542120D01*
X135198382Y-83754089D01*
X135201461Y-83763917D01*
X135283215Y-83965252D01*
X135287858Y-83974443D01*
X135372334Y-84112296D01*
X135382790Y-84121756D01*
X135391568Y-84117972D01*
X136152978Y-83356562D01*
X136159356Y-83344882D01*
X136889408Y-83344882D01*
X136889539Y-83346715D01*
X136893790Y-83353330D01*
X137654320Y-84113860D01*
X137666330Y-84120419D01*
X137678069Y-84111451D01*
X137712625Y-84063361D01*
X137717936Y-84054522D01*
X137814206Y-83859733D01*
X137818005Y-83850137D01*
X137881170Y-83642241D01*
X137883349Y-83632160D01*
X137911949Y-83414925D01*
X137912468Y-83408252D01*
X137913962Y-83347115D01*
X137913768Y-83340396D01*
X137895816Y-83122044D01*
X137894131Y-83111864D01*
X137841196Y-82901121D01*
X137837876Y-82891370D01*
X137751229Y-82692093D01*
X137746362Y-82683018D01*
X137677083Y-82575928D01*
X137666398Y-82566725D01*
X137656831Y-82571129D01*
X136897022Y-83330938D01*
X136889408Y-83344882D01*
X136159356Y-83344882D01*
X136160592Y-83342618D01*
X136160461Y-83340785D01*
X136156210Y-83334170D01*
X135395922Y-82573882D01*
X135384386Y-82567582D01*
X135372104Y-82577205D01*
X135320143Y-82653377D01*
X135315058Y-82662328D01*
X135223571Y-82859421D01*
X135220008Y-82869108D01*
X135161942Y-83078486D01*
X135160011Y-83088606D01*
X135136920Y-83304680D01*
X135136668Y-83314969D01*
X132145679Y-83314969D01*
X132138580Y-83302965D01*
X132138578Y-83302962D01*
X132134542Y-83296138D01*
X132120221Y-83281817D01*
X132107380Y-83266783D01*
X132100131Y-83256806D01*
X132095472Y-83250393D01*
X132089367Y-83245342D01*
X132089362Y-83245337D01*
X132061396Y-83222201D01*
X132052618Y-83214213D01*
X131313652Y-82475247D01*
X131306112Y-82466961D01*
X131302000Y-82460482D01*
X131252348Y-82413856D01*
X131249507Y-82411102D01*
X131229770Y-82391365D01*
X131226573Y-82388885D01*
X131217551Y-82381180D01*
X131191100Y-82356341D01*
X131185321Y-82350914D01*
X131178375Y-82347095D01*
X131178372Y-82347093D01*
X131167566Y-82341152D01*
X131151047Y-82330301D01*
X131150583Y-82329941D01*
X131135041Y-82317886D01*
X131127772Y-82314741D01*
X131127768Y-82314738D01*
X131094463Y-82300326D01*
X131083813Y-82295109D01*
X131045060Y-82273805D01*
X131025437Y-82268767D01*
X131006734Y-82262363D01*
X130995420Y-82257467D01*
X130995419Y-82257467D01*
X130988145Y-82254319D01*
X130980322Y-82253080D01*
X130980312Y-82253077D01*
X130944476Y-82247401D01*
X130932856Y-82244995D01*
X130897711Y-82235972D01*
X130897710Y-82235972D01*
X130890030Y-82234000D01*
X130869776Y-82234000D01*
X130850065Y-82232449D01*
X130848967Y-82232275D01*
X130830057Y-82229280D01*
X130798374Y-82232275D01*
X130786039Y-82233441D01*
X130774181Y-82234000D01*
X130684322Y-82234000D01*
X130616201Y-82213998D01*
X130569708Y-82160342D01*
X130559604Y-82090068D01*
X130589098Y-82025488D01*
X130604007Y-82010915D01*
X130618347Y-81999052D01*
X130621398Y-81996528D01*
X130667129Y-81947830D01*
X135745750Y-81947830D01*
X135751031Y-81954884D01*
X135766168Y-81963730D01*
X135814891Y-82015369D01*
X135827961Y-82085152D01*
X135801229Y-82150924D01*
X135778248Y-82173278D01*
X135755889Y-82190065D01*
X135747436Y-82201390D01*
X135754180Y-82213720D01*
X136512188Y-82971728D01*
X136526132Y-82979342D01*
X136527965Y-82979211D01*
X136534580Y-82974960D01*
X137297115Y-82212425D01*
X137304136Y-82199569D01*
X137296607Y-82189236D01*
X137289165Y-82184292D01*
X137286397Y-82182764D01*
X137285494Y-82181853D01*
X137284853Y-82181427D01*
X137284941Y-82181295D01*
X137236424Y-82132334D01*
X137221648Y-82062892D01*
X137246761Y-81996485D01*
X137274117Y-81969873D01*
X137293104Y-81956330D01*
X137301504Y-81945631D01*
X137294515Y-81932475D01*
X136537812Y-81175772D01*
X136523868Y-81168158D01*
X136522035Y-81168289D01*
X136515420Y-81172540D01*
X135752510Y-81935450D01*
X135745750Y-81947830D01*
X130667129Y-81947830D01*
X130836945Y-81766994D01*
X130840255Y-81762439D01*
X130993129Y-81552025D01*
X131022024Y-81512254D01*
X131039889Y-81479759D01*
X131171813Y-81239789D01*
X131171814Y-81239786D01*
X131173716Y-81236327D01*
X131289630Y-80943563D01*
X131367936Y-80638580D01*
X131407400Y-80326188D01*
X131407400Y-80011312D01*
X131367936Y-79698920D01*
X131333946Y-79566536D01*
X131336379Y-79495581D01*
X131376787Y-79437205D01*
X131442341Y-79409942D01*
X131512227Y-79422448D01*
X131522944Y-79428464D01*
X131689212Y-79532764D01*
X131696763Y-79536813D01*
X131957112Y-79654364D01*
X131965143Y-79657351D01*
X132239034Y-79738482D01*
X132247386Y-79740349D01*
X132516149Y-79781475D01*
X132580460Y-79811551D01*
X132618302Y-79871621D01*
X132621998Y-79922581D01*
X132618608Y-79948155D01*
X132600307Y-80086235D01*
X132598039Y-80103343D01*
X132598239Y-80108672D01*
X132598239Y-80108673D01*
X132599869Y-80152093D01*
X132606848Y-80337966D01*
X132624642Y-80422772D01*
X132632794Y-80461621D01*
X132655062Y-80567751D01*
X132741302Y-80786127D01*
X132863104Y-80986850D01*
X133016985Y-81164182D01*
X133021117Y-81167570D01*
X133194416Y-81309667D01*
X133194422Y-81309671D01*
X133198544Y-81313051D01*
X133203180Y-81315690D01*
X133203183Y-81315692D01*
X133314408Y-81379005D01*
X133402590Y-81429201D01*
X133623289Y-81509311D01*
X133628538Y-81510260D01*
X133628541Y-81510261D01*
X133702413Y-81523619D01*
X133854330Y-81551090D01*
X133858469Y-81551285D01*
X133858476Y-81551286D01*
X133877440Y-81552180D01*
X133877449Y-81552180D01*
X133878929Y-81552250D01*
X134043950Y-81552250D01*
X134125299Y-81545347D01*
X134213637Y-81537852D01*
X134213641Y-81537851D01*
X134218948Y-81537401D01*
X134224103Y-81536063D01*
X134224109Y-81536062D01*
X134441035Y-81479759D01*
X134441034Y-81479759D01*
X134446206Y-81478417D01*
X134451072Y-81476225D01*
X134451075Y-81476224D01*
X134655417Y-81384174D01*
X134655420Y-81384173D01*
X134660278Y-81381984D01*
X134855041Y-81250862D01*
X134983473Y-81128344D01*
X135046570Y-81095797D01*
X135117247Y-81102529D01*
X135173064Y-81146402D01*
X135193363Y-81191815D01*
X135198384Y-81214096D01*
X135201461Y-81223917D01*
X135283215Y-81425252D01*
X135287858Y-81434443D01*
X135372334Y-81572296D01*
X135382790Y-81581756D01*
X135391568Y-81577972D01*
X136152978Y-80816562D01*
X136159356Y-80804882D01*
X136889408Y-80804882D01*
X136889539Y-80806715D01*
X136893790Y-80813330D01*
X137654320Y-81573860D01*
X137666330Y-81580419D01*
X137678069Y-81571451D01*
X137712625Y-81523361D01*
X137717936Y-81514522D01*
X137814206Y-81319733D01*
X137818005Y-81310137D01*
X137881170Y-81102241D01*
X137883349Y-81092160D01*
X137911949Y-80874925D01*
X137912468Y-80868252D01*
X137913962Y-80807115D01*
X137913768Y-80800396D01*
X137895816Y-80582044D01*
X137894131Y-80571864D01*
X137841196Y-80361121D01*
X137837876Y-80351370D01*
X137751229Y-80152093D01*
X137746362Y-80143018D01*
X137677083Y-80035928D01*
X137666398Y-80026725D01*
X137656831Y-80031129D01*
X136897022Y-80790938D01*
X136889408Y-80804882D01*
X136159356Y-80804882D01*
X136160592Y-80802618D01*
X136160461Y-80800785D01*
X136156210Y-80794170D01*
X135390090Y-80028050D01*
X135355870Y-79964829D01*
X135352372Y-79948155D01*
X135323076Y-79808532D01*
X135316035Y-79774976D01*
X135316034Y-79774973D01*
X135314938Y-79769749D01*
X135231722Y-79559030D01*
X135225304Y-79488325D01*
X135258132Y-79425374D01*
X135319782Y-79390164D01*
X135348914Y-79386750D01*
X135734000Y-79386750D01*
X135802121Y-79406752D01*
X135848614Y-79460408D01*
X135858718Y-79530682D01*
X135829224Y-79595262D01*
X135792180Y-79624514D01*
X135789400Y-79625961D01*
X135780672Y-79631458D01*
X135755889Y-79650065D01*
X135747436Y-79661390D01*
X135754180Y-79673720D01*
X136512188Y-80431728D01*
X136526132Y-80439342D01*
X136527965Y-80439211D01*
X136534580Y-80434960D01*
X137297115Y-79672425D01*
X137304136Y-79659569D01*
X137296607Y-79649236D01*
X137289165Y-79644292D01*
X137250700Y-79623058D01*
X137200730Y-79572625D01*
X137185958Y-79503182D01*
X137211074Y-79436777D01*
X137268105Y-79394492D01*
X137311594Y-79386749D01*
X137337095Y-79386749D01*
X137343614Y-79386412D01*
X137439206Y-79376493D01*
X137452600Y-79373601D01*
X137606784Y-79322162D01*
X137619962Y-79315989D01*
X137757807Y-79230687D01*
X137769208Y-79221651D01*
X137883739Y-79106921D01*
X137892751Y-79095510D01*
X137977816Y-78957507D01*
X137983963Y-78944326D01*
X138035138Y-78790040D01*
X138038005Y-78776664D01*
X138047672Y-78682312D01*
X138048000Y-78675896D01*
X138048000Y-77900865D01*
X138043525Y-77885626D01*
X138042135Y-77884421D01*
X138034452Y-77882750D01*
X134412000Y-77882750D01*
X134343879Y-77862748D01*
X134297386Y-77809092D01*
X134286000Y-77756750D01*
X134286000Y-77356635D01*
X134794000Y-77356635D01*
X134798475Y-77371874D01*
X134799865Y-77373079D01*
X134807548Y-77374750D01*
X135992885Y-77374750D01*
X136008124Y-77370275D01*
X136009329Y-77368885D01*
X136011000Y-77361202D01*
X136011000Y-77356635D01*
X136519000Y-77356635D01*
X136523475Y-77371874D01*
X136524865Y-77373079D01*
X136532548Y-77374750D01*
X138029884Y-77374750D01*
X138045123Y-77370275D01*
X138046328Y-77368885D01*
X138047999Y-77361202D01*
X138047999Y-76581655D01*
X138047662Y-76575136D01*
X138037743Y-76479544D01*
X138034851Y-76466150D01*
X137983412Y-76311966D01*
X137977239Y-76298788D01*
X137891937Y-76160943D01*
X137882901Y-76149542D01*
X137768171Y-76035011D01*
X137756760Y-76025999D01*
X137618757Y-75940934D01*
X137605576Y-75934787D01*
X137451290Y-75883612D01*
X137437914Y-75880745D01*
X137343562Y-75871078D01*
X137337145Y-75870750D01*
X136537115Y-75870750D01*
X136521876Y-75875225D01*
X136520671Y-75876615D01*
X136519000Y-75884298D01*
X136519000Y-77356635D01*
X136011000Y-77356635D01*
X136011000Y-75888866D01*
X136006525Y-75873627D01*
X136005135Y-75872422D01*
X135997452Y-75870751D01*
X135413105Y-75870751D01*
X135413073Y-75870750D01*
X134812115Y-75870750D01*
X134796876Y-75875225D01*
X134795671Y-75876615D01*
X134794000Y-75884298D01*
X134794000Y-77356635D01*
X134286000Y-77356635D01*
X134286000Y-75888866D01*
X134281525Y-75873627D01*
X134280135Y-75872422D01*
X134272452Y-75870751D01*
X134011962Y-75870751D01*
X133946127Y-75852184D01*
X133720791Y-75714098D01*
X133713193Y-75710126D01*
X133451633Y-75595308D01*
X133443579Y-75592409D01*
X133168852Y-75514152D01*
X133160474Y-75512370D01*
X132877668Y-75472121D01*
X132869121Y-75471494D01*
X132583467Y-75469997D01*
X132574933Y-75470534D01*
X132291715Y-75507821D01*
X132283317Y-75509514D01*
X132007786Y-75584891D01*
X131999699Y-75587707D01*
X131736952Y-75699779D01*
X131729312Y-75703672D01*
X131484204Y-75850365D01*
X131477175Y-75855250D01*
X131393341Y-75922414D01*
X131384872Y-75934539D01*
X131391267Y-75945807D01*
X132985115Y-77539655D01*
X133019141Y-77601967D01*
X133014076Y-77672782D01*
X132985115Y-77717845D01*
X132804095Y-77898865D01*
X132741783Y-77932891D01*
X132670968Y-77927826D01*
X132625905Y-77898865D01*
X131031334Y-76304294D01*
X131019323Y-76297735D01*
X131007585Y-76306703D01*
X130879151Y-76485437D01*
X130874636Y-76492718D01*
X130740973Y-76745164D01*
X130737487Y-76752992D01*
X130639318Y-77021249D01*
X130636929Y-77029472D01*
X130576074Y-77308580D01*
X130574825Y-77317035D01*
X130552412Y-77601828D01*
X130552323Y-77610379D01*
X130568766Y-77895564D01*
X130569839Y-77904064D01*
X130594240Y-78028434D01*
X130587727Y-78099131D01*
X130544026Y-78155084D01*
X130477012Y-78178529D01*
X130407961Y-78162021D01*
X130390280Y-78149775D01*
X130381834Y-78142787D01*
X130381826Y-78142781D01*
X130378782Y-78140263D01*
X130112924Y-77971544D01*
X130109345Y-77969860D01*
X130109338Y-77969856D01*
X129831606Y-77839166D01*
X129831602Y-77839164D01*
X129828016Y-77837477D01*
X129528552Y-77740175D01*
X129219254Y-77681173D01*
X129125700Y-77675287D01*
X128985642Y-77666475D01*
X128985626Y-77666474D01*
X128983647Y-77666350D01*
X128826353Y-77666350D01*
X128824374Y-77666474D01*
X128824358Y-77666475D01*
X128684300Y-77675287D01*
X128590746Y-77681173D01*
X128281448Y-77740175D01*
X127981984Y-77837477D01*
X127978398Y-77839164D01*
X127978394Y-77839166D01*
X127700662Y-77969856D01*
X127700655Y-77969860D01*
X127697076Y-77971544D01*
X127431218Y-78140263D01*
X127188602Y-78340972D01*
X126973055Y-78570506D01*
X126787976Y-78825246D01*
X126786069Y-78828715D01*
X126786067Y-78828718D01*
X126642251Y-79090319D01*
X126636284Y-79101173D01*
X126551232Y-79315989D01*
X126523216Y-79386750D01*
X126520370Y-79393937D01*
X126442064Y-79698920D01*
X126402600Y-80011312D01*
X126402600Y-80326188D01*
X126442064Y-80638580D01*
X126520370Y-80943563D01*
X126636284Y-81236327D01*
X126638186Y-81239786D01*
X126638187Y-81239789D01*
X126770112Y-81479759D01*
X126787976Y-81512254D01*
X126816871Y-81552025D01*
X126969746Y-81762439D01*
X126973055Y-81766994D01*
X127188602Y-81996528D01*
X127191653Y-81999052D01*
X127205993Y-82010915D01*
X127245731Y-82069749D01*
X127247354Y-82140727D01*
X127210345Y-82201314D01*
X127146455Y-82232275D01*
X127125678Y-82234000D01*
X122393344Y-82234000D01*
X122325223Y-82213998D01*
X122304249Y-82197095D01*
X122164765Y-82057611D01*
X122130739Y-81995299D01*
X122135804Y-81924484D01*
X122175181Y-81873136D01*
X122173733Y-81871422D01*
X122177690Y-81868078D01*
X122181893Y-81865080D01*
X122343193Y-81704342D01*
X122476073Y-81519419D01*
X122478494Y-81514522D01*
X122574673Y-81319918D01*
X122574674Y-81319916D01*
X122576967Y-81315276D01*
X122578474Y-81310317D01*
X122617302Y-81182521D01*
X122656243Y-81123157D01*
X122721097Y-81094270D01*
X122791273Y-81105031D01*
X122833024Y-81136570D01*
X122856985Y-81164182D01*
X122861117Y-81167570D01*
X123034416Y-81309667D01*
X123034422Y-81309671D01*
X123038544Y-81313051D01*
X123043180Y-81315690D01*
X123043183Y-81315692D01*
X123154408Y-81379005D01*
X123242590Y-81429201D01*
X123463289Y-81509311D01*
X123468538Y-81510260D01*
X123468541Y-81510261D01*
X123542413Y-81523619D01*
X123694330Y-81551090D01*
X123698469Y-81551285D01*
X123698476Y-81551286D01*
X123717440Y-81552180D01*
X123717449Y-81552180D01*
X123718929Y-81552250D01*
X123883950Y-81552250D01*
X123965299Y-81545347D01*
X124053637Y-81537852D01*
X124053641Y-81537851D01*
X124058948Y-81537401D01*
X124064103Y-81536063D01*
X124064109Y-81536062D01*
X124281035Y-81479759D01*
X124281034Y-81479759D01*
X124286206Y-81478417D01*
X124291072Y-81476225D01*
X124291075Y-81476224D01*
X124495417Y-81384174D01*
X124495420Y-81384173D01*
X124500278Y-81381984D01*
X124695041Y-81250862D01*
X124864927Y-81088799D01*
X125005078Y-80900429D01*
X125049362Y-80813330D01*
X125109069Y-80695894D01*
X125109069Y-80695893D01*
X125111487Y-80691138D01*
X125181111Y-80466910D01*
X125198202Y-80337966D01*
X125211261Y-80239440D01*
X125211261Y-80239437D01*
X125211961Y-80234157D01*
X125203152Y-79999534D01*
X125163076Y-79808532D01*
X125156035Y-79774976D01*
X125156034Y-79774973D01*
X125154938Y-79769749D01*
X125068698Y-79551373D01*
X124990464Y-79422448D01*
X124949664Y-79355211D01*
X124949662Y-79355208D01*
X124946896Y-79350650D01*
X124793015Y-79173318D01*
X124712038Y-79106921D01*
X124615584Y-79027833D01*
X124615578Y-79027829D01*
X124611456Y-79024449D01*
X124606820Y-79021810D01*
X124606817Y-79021808D01*
X124412053Y-78910942D01*
X124407410Y-78908299D01*
X124186711Y-78828189D01*
X124181462Y-78827240D01*
X124181459Y-78827239D01*
X124100385Y-78812579D01*
X123955670Y-78786410D01*
X123951531Y-78786215D01*
X123951524Y-78786214D01*
X123932560Y-78785320D01*
X123932551Y-78785320D01*
X123931071Y-78785250D01*
X123766050Y-78785250D01*
X123684701Y-78792153D01*
X123596363Y-78799648D01*
X123596359Y-78799649D01*
X123591052Y-78800099D01*
X123585897Y-78801437D01*
X123585891Y-78801438D01*
X123408177Y-78847564D01*
X123363794Y-78859083D01*
X123358928Y-78861275D01*
X123358925Y-78861276D01*
X123154583Y-78953326D01*
X123154580Y-78953327D01*
X123149722Y-78955516D01*
X122954959Y-79086638D01*
X122951102Y-79090317D01*
X122951100Y-79090319D01*
X122880845Y-79157340D01*
X122785073Y-79248701D01*
X122644922Y-79437071D01*
X122642506Y-79441822D01*
X122642504Y-79441826D01*
X122544646Y-79634300D01*
X122538513Y-79646362D01*
X122495684Y-79784298D01*
X122493333Y-79791868D01*
X122454030Y-79850993D01*
X122389001Y-79879484D01*
X122318892Y-79868294D01*
X122279806Y-79839304D01*
X122236143Y-79791319D01*
X122232668Y-79787500D01*
X122053963Y-79646368D01*
X121983605Y-79607528D01*
X121933636Y-79557097D01*
X121918500Y-79497221D01*
X121918500Y-76973250D01*
X121938502Y-76905129D01*
X121992158Y-76858636D01*
X122044500Y-76847250D01*
X125070055Y-76847250D01*
X125137011Y-76866513D01*
X125338976Y-76993206D01*
X125338980Y-76993208D01*
X125342616Y-76995489D01*
X125415293Y-77028304D01*
X125606937Y-77114835D01*
X125606941Y-77114837D01*
X125610849Y-77116601D01*
X125614968Y-77117821D01*
X125888924Y-77198971D01*
X125888929Y-77198972D01*
X125893037Y-77200189D01*
X125897271Y-77200837D01*
X125897276Y-77200838D01*
X126179717Y-77244057D01*
X126179719Y-77244057D01*
X126183959Y-77244706D01*
X126333772Y-77247060D01*
X126473940Y-77249262D01*
X126473946Y-77249262D01*
X126478231Y-77249329D01*
X126770408Y-77213972D01*
X127055082Y-77139289D01*
X127326988Y-77026662D01*
X127555144Y-76893338D01*
X127577389Y-76880339D01*
X127577390Y-76880338D01*
X127581092Y-76878175D01*
X127812694Y-76696577D01*
X127825032Y-76683846D01*
X128014523Y-76488304D01*
X128017506Y-76485226D01*
X128191741Y-76248035D01*
X128332172Y-75989392D01*
X128436203Y-75714083D01*
X128483443Y-75507821D01*
X128500949Y-75431387D01*
X128500950Y-75431383D01*
X128501907Y-75427203D01*
X128528069Y-75134060D01*
X128528544Y-75088750D01*
X128508527Y-74795123D01*
X128448845Y-74506930D01*
X128350603Y-74229503D01*
X128215618Y-73967976D01*
X128046389Y-73727188D01*
X127846048Y-73511594D01*
X127829291Y-73497878D01*
X127730374Y-73416916D01*
X127618300Y-73325185D01*
X127367361Y-73171410D01*
X127347280Y-73162595D01*
X127101802Y-73054837D01*
X127101798Y-73054836D01*
X127097874Y-73053113D01*
X126814826Y-72972485D01*
X126810584Y-72971881D01*
X126810578Y-72971880D01*
X126527705Y-72931621D01*
X126523454Y-72931016D01*
X126368306Y-72930204D01*
X126233436Y-72929497D01*
X126233430Y-72929497D01*
X126229150Y-72929475D01*
X126224906Y-72930034D01*
X126224902Y-72930034D01*
X126096341Y-72946960D01*
X125937360Y-72967890D01*
X125933220Y-72969023D01*
X125933218Y-72969023D01*
X125916261Y-72973662D01*
X125653483Y-73045550D01*
X125649533Y-73047235D01*
X125386714Y-73159336D01*
X125386707Y-73159340D01*
X125382772Y-73161018D01*
X125130236Y-73312158D01*
X125129080Y-73310226D01*
X125065231Y-73330250D01*
X122494500Y-73330250D01*
X122426379Y-73310248D01*
X122379886Y-73256592D01*
X122368500Y-73204250D01*
X122368500Y-72043344D01*
X122388502Y-71975223D01*
X122405405Y-71954249D01*
X122595499Y-71764155D01*
X122657811Y-71730129D01*
X122684594Y-71727250D01*
X133459025Y-71727250D01*
X133470208Y-71727777D01*
X133477701Y-71729452D01*
X133485627Y-71729203D01*
X133485628Y-71729203D01*
X133545778Y-71727312D01*
X133549737Y-71727250D01*
X133577648Y-71727250D01*
X133581583Y-71726753D01*
X133581648Y-71726745D01*
X133593485Y-71725812D01*
X133625743Y-71724798D01*
X133629762Y-71724672D01*
X133637681Y-71724423D01*
X133657135Y-71718771D01*
X133676492Y-71714763D01*
X133688722Y-71713218D01*
X133688723Y-71713218D01*
X133696589Y-71712224D01*
X133703960Y-71709305D01*
X133703962Y-71709305D01*
X133737704Y-71695946D01*
X133748934Y-71692101D01*
X133783775Y-71681979D01*
X133783776Y-71681979D01*
X133791385Y-71679768D01*
X133798204Y-71675735D01*
X133798209Y-71675733D01*
X133808820Y-71669457D01*
X133826568Y-71660762D01*
X133845409Y-71653302D01*
X133881179Y-71627314D01*
X133891099Y-71620798D01*
X133922327Y-71602330D01*
X133922330Y-71602328D01*
X133929154Y-71598292D01*
X133943475Y-71583971D01*
X133958509Y-71571130D01*
X133968485Y-71563882D01*
X133974899Y-71559222D01*
X134003080Y-71525157D01*
X134011070Y-71516376D01*
X134213293Y-71314154D01*
X134275605Y-71280129D01*
X134302388Y-71277250D01*
X135218427Y-71277250D01*
X135286548Y-71297252D01*
X135325859Y-71337415D01*
X135400989Y-71460014D01*
X135400992Y-71460018D01*
X135403692Y-71464424D01*
X135552786Y-71636543D01*
X135727989Y-71781999D01*
X135732441Y-71784601D01*
X135732446Y-71784604D01*
X135826540Y-71839588D01*
X135924597Y-71896888D01*
X136137329Y-71978122D01*
X136142395Y-71979153D01*
X136142396Y-71979153D01*
X136194630Y-71989780D01*
X136360472Y-72023521D01*
X136488288Y-72028208D01*
X136582870Y-72031677D01*
X136582875Y-72031677D01*
X136588034Y-72031866D01*
X136593154Y-72031210D01*
X136593156Y-72031210D01*
X136665344Y-72021962D01*
X136813903Y-72002931D01*
X136818852Y-72001446D01*
X136818858Y-72001445D01*
X136945204Y-71963539D01*
X137032013Y-71937495D01*
X137236507Y-71837314D01*
X137240711Y-71834316D01*
X137240715Y-71834313D01*
X137318683Y-71778699D01*
X137421893Y-71705080D01*
X137583193Y-71544342D01*
X137716073Y-71359419D01*
X137727697Y-71335901D01*
X137814673Y-71159918D01*
X137814674Y-71159916D01*
X137816967Y-71155276D01*
X137883164Y-70937396D01*
X137883839Y-70932270D01*
X137912450Y-70714951D01*
X137912451Y-70714944D01*
X137912887Y-70711629D01*
X137914546Y-70643750D01*
X137907179Y-70554143D01*
X137896311Y-70421952D01*
X137896310Y-70421946D01*
X137895887Y-70416801D01*
X137840413Y-70195947D01*
X137749612Y-69987119D01*
X137655570Y-69841752D01*
X137628731Y-69800265D01*
X137628729Y-69800262D01*
X137625923Y-69795925D01*
X137472668Y-69627500D01*
X137293963Y-69486368D01*
X137287335Y-69482709D01*
X137286651Y-69482019D01*
X137285131Y-69481009D01*
X137285339Y-69480695D01*
X137237363Y-69432283D01*
X137222585Y-69362841D01*
X137247696Y-69296434D01*
X137275054Y-69269819D01*
X137417689Y-69168079D01*
X137417691Y-69168077D01*
X137421893Y-69165080D01*
X137583193Y-69004342D01*
X137716073Y-68819419D01*
X137816967Y-68615276D01*
X137883164Y-68397396D01*
X137889710Y-68347677D01*
X137912450Y-68174951D01*
X137912451Y-68174944D01*
X137912887Y-68171629D01*
X137914546Y-68103750D01*
X137901683Y-67947295D01*
X137896311Y-67881952D01*
X137896310Y-67881946D01*
X137895887Y-67876801D01*
X137852214Y-67702928D01*
X137841672Y-67660958D01*
X137841671Y-67660954D01*
X137840413Y-67655947D01*
X137829803Y-67631546D01*
X137751672Y-67451856D01*
X137751670Y-67451853D01*
X137749612Y-67447119D01*
X137659290Y-67307502D01*
X137628731Y-67260265D01*
X137628729Y-67260262D01*
X137625923Y-67255925D01*
X137472668Y-67087500D01*
X137293963Y-66946368D01*
X137223605Y-66907528D01*
X137173636Y-66857097D01*
X137158500Y-66797221D01*
X137158500Y-60463250D01*
X137178502Y-60395129D01*
X137232158Y-60348636D01*
X137284500Y-60337250D01*
X137340400Y-60337250D01*
X137343646Y-60336913D01*
X137343650Y-60336913D01*
X137439308Y-60326988D01*
X137439312Y-60326987D01*
X137446166Y-60326276D01*
X137452702Y-60324095D01*
X137452704Y-60324095D01*
X137606998Y-60272618D01*
X137613946Y-60270300D01*
X137764348Y-60177228D01*
X137889305Y-60052053D01*
X137982115Y-59901488D01*
X138023987Y-59775246D01*
X138035632Y-59740139D01*
X138035632Y-59740137D01*
X138037797Y-59733611D01*
X138048500Y-59629150D01*
X138048500Y-57528350D01*
X138046239Y-57506557D01*
X138038238Y-57429442D01*
X138038237Y-57429438D01*
X138037526Y-57422584D01*
X137981550Y-57254804D01*
X137888478Y-57104402D01*
X137763303Y-56979445D01*
X137612738Y-56886635D01*
X137532995Y-56860186D01*
X137451389Y-56833118D01*
X137451387Y-56833118D01*
X137444861Y-56830953D01*
X137438025Y-56830253D01*
X137438022Y-56830252D01*
X137394969Y-56825841D01*
X137340400Y-56820250D01*
X134012102Y-56820250D01*
X133946267Y-56801683D01*
X133721023Y-56663654D01*
X133721022Y-56663654D01*
X133717361Y-56661410D01*
X133698706Y-56653221D01*
X133451802Y-56544837D01*
X133451798Y-56544836D01*
X133447874Y-56543113D01*
X133164826Y-56462485D01*
X133160584Y-56461881D01*
X133160578Y-56461880D01*
X132877705Y-56421621D01*
X132873454Y-56421016D01*
X132718306Y-56420204D01*
X132583436Y-56419497D01*
X132583430Y-56419497D01*
X132579150Y-56419475D01*
X132574906Y-56420034D01*
X132574902Y-56420034D01*
X132446341Y-56436960D01*
X132287360Y-56457890D01*
X132283220Y-56459023D01*
X132283218Y-56459023D01*
X132266261Y-56463662D01*
X132003483Y-56535550D01*
X131999533Y-56537235D01*
X131736714Y-56649336D01*
X131736707Y-56649340D01*
X131732772Y-56651018D01*
X131580386Y-56742219D01*
X131483918Y-56799954D01*
X131483914Y-56799957D01*
X131480236Y-56802158D01*
X131250549Y-56986172D01*
X131247605Y-56989274D01*
X131247601Y-56989278D01*
X131059063Y-57187956D01*
X131047961Y-57199655D01*
X130876220Y-57438658D01*
X130738504Y-57698757D01*
X130637362Y-57975140D01*
X130574666Y-58262693D01*
X130551575Y-58556094D01*
X130568516Y-58849914D01*
X130569341Y-58854119D01*
X130569342Y-58854127D01*
X130593632Y-58977931D01*
X130587119Y-59048628D01*
X130543418Y-59104581D01*
X130476404Y-59128026D01*
X130407353Y-59111518D01*
X130389672Y-59099272D01*
X130381834Y-59092787D01*
X130381826Y-59092781D01*
X130378782Y-59090263D01*
X130112924Y-58921544D01*
X130109345Y-58919860D01*
X130109338Y-58919856D01*
X129831606Y-58789166D01*
X129831602Y-58789164D01*
X129828016Y-58787477D01*
X129528552Y-58690175D01*
X129219254Y-58631173D01*
X129125700Y-58625287D01*
X128985642Y-58616475D01*
X128985626Y-58616474D01*
X128983647Y-58616350D01*
X128826353Y-58616350D01*
X128824374Y-58616474D01*
X128824358Y-58616475D01*
X128684300Y-58625287D01*
X128590746Y-58631173D01*
X128281448Y-58690175D01*
X127981984Y-58787477D01*
X127978398Y-58789164D01*
X127978394Y-58789166D01*
X127700662Y-58919856D01*
X127700655Y-58919860D01*
X127697076Y-58921544D01*
X127431218Y-59090263D01*
X127188602Y-59290972D01*
X126973055Y-59520506D01*
X126787976Y-59775246D01*
X126786069Y-59778715D01*
X126786067Y-59778718D01*
X126638187Y-60047711D01*
X126636284Y-60051173D01*
X126577873Y-60198701D01*
X126527363Y-60326276D01*
X126520370Y-60343937D01*
X126442064Y-60648920D01*
X126402600Y-60961312D01*
X126402600Y-61276188D01*
X126442064Y-61588580D01*
X126520370Y-61893563D01*
X126636284Y-62186327D01*
X126638186Y-62189786D01*
X126638187Y-62189789D01*
X126770112Y-62429759D01*
X126787976Y-62462254D01*
X126973055Y-62716994D01*
X127188602Y-62946528D01*
X127431218Y-63147237D01*
X127697076Y-63315956D01*
X127700655Y-63317640D01*
X127700662Y-63317644D01*
X127978394Y-63448334D01*
X127978398Y-63448336D01*
X127981984Y-63450023D01*
X128281448Y-63547325D01*
X128590746Y-63606327D01*
X128684300Y-63612213D01*
X128824358Y-63621025D01*
X128824374Y-63621026D01*
X128826353Y-63621150D01*
X128983647Y-63621150D01*
X128985626Y-63621026D01*
X128985642Y-63621025D01*
X129125700Y-63612213D01*
X129219254Y-63606327D01*
X129528552Y-63547325D01*
X129828016Y-63450023D01*
X129831602Y-63448336D01*
X129831606Y-63448334D01*
X130109338Y-63317644D01*
X130109345Y-63317640D01*
X130112924Y-63315956D01*
X130378782Y-63147237D01*
X130621398Y-62946528D01*
X130836945Y-62716994D01*
X131022024Y-62462254D01*
X131039889Y-62429759D01*
X131171813Y-62189789D01*
X131171814Y-62189786D01*
X131173716Y-62186327D01*
X131289630Y-61893563D01*
X131367936Y-61588580D01*
X131407400Y-61276188D01*
X131407400Y-60961312D01*
X131367936Y-60648920D01*
X131366949Y-60645078D01*
X131366948Y-60645070D01*
X131334127Y-60517239D01*
X131336559Y-60446284D01*
X131376967Y-60387908D01*
X131442520Y-60360645D01*
X131512407Y-60373151D01*
X131523124Y-60379167D01*
X131688976Y-60483206D01*
X131688980Y-60483208D01*
X131692616Y-60485489D01*
X131826733Y-60546045D01*
X131956937Y-60604835D01*
X131956941Y-60604837D01*
X131960849Y-60606601D01*
X131964968Y-60607821D01*
X132238924Y-60688971D01*
X132238929Y-60688972D01*
X132243037Y-60690189D01*
X132247271Y-60690837D01*
X132247276Y-60690838D01*
X132516083Y-60731971D01*
X132580394Y-60762047D01*
X132618236Y-60822118D01*
X132621932Y-60873077D01*
X132611092Y-60954866D01*
X132598039Y-61053343D01*
X132598239Y-61058672D01*
X132598239Y-61058673D01*
X132601420Y-61143388D01*
X132606848Y-61287966D01*
X132607943Y-61293184D01*
X132646416Y-61476543D01*
X132655062Y-61517751D01*
X132741302Y-61736127D01*
X132863104Y-61936850D01*
X133016985Y-62114182D01*
X133021117Y-62117570D01*
X133194416Y-62259667D01*
X133194422Y-62259671D01*
X133198544Y-62263051D01*
X133203180Y-62265690D01*
X133203183Y-62265692D01*
X133314408Y-62329005D01*
X133402590Y-62379201D01*
X133623289Y-62459311D01*
X133628538Y-62460260D01*
X133628541Y-62460261D01*
X133709615Y-62474921D01*
X133854330Y-62501090D01*
X133858469Y-62501285D01*
X133858476Y-62501286D01*
X133877440Y-62502180D01*
X133877449Y-62502180D01*
X133878929Y-62502250D01*
X134043950Y-62502250D01*
X134125299Y-62495347D01*
X134213637Y-62487852D01*
X134213641Y-62487851D01*
X134218948Y-62487401D01*
X134224103Y-62486063D01*
X134224109Y-62486062D01*
X134441035Y-62429759D01*
X134441034Y-62429759D01*
X134446206Y-62428417D01*
X134451072Y-62426225D01*
X134451075Y-62426224D01*
X134655417Y-62334174D01*
X134655420Y-62334173D01*
X134660278Y-62331984D01*
X134855041Y-62200862D01*
X135024927Y-62038799D01*
X135165078Y-61850429D01*
X135195876Y-61789855D01*
X135269069Y-61645894D01*
X135269069Y-61645893D01*
X135271487Y-61641138D01*
X135341111Y-61416910D01*
X135358202Y-61287966D01*
X135371261Y-61189440D01*
X135371261Y-61189437D01*
X135371961Y-61184157D01*
X135363152Y-60949534D01*
X135318475Y-60736607D01*
X135316035Y-60724976D01*
X135316034Y-60724973D01*
X135314938Y-60719749D01*
X135302783Y-60688971D01*
X135231920Y-60509531D01*
X135225502Y-60438825D01*
X135258330Y-60375874D01*
X135319980Y-60340664D01*
X135349112Y-60337250D01*
X135765500Y-60337250D01*
X135833621Y-60357252D01*
X135880114Y-60410908D01*
X135891500Y-60463250D01*
X135891500Y-66795789D01*
X135871498Y-66863910D01*
X135823682Y-66907552D01*
X135784544Y-66927926D01*
X135757412Y-66948297D01*
X135618989Y-67052228D01*
X135602444Y-67064650D01*
X135598872Y-67068388D01*
X135450902Y-67223230D01*
X135445120Y-67229280D01*
X135442206Y-67233552D01*
X135442205Y-67233553D01*
X135399140Y-67296684D01*
X135316797Y-67417395D01*
X135220921Y-67623942D01*
X135160067Y-67843375D01*
X135159518Y-67848511D01*
X135159517Y-67848517D01*
X135127102Y-67911682D01*
X135065684Y-67947295D01*
X134994761Y-67944049D01*
X134936853Y-67902974D01*
X134910343Y-67837113D01*
X134909750Y-67824902D01*
X134909750Y-66568767D01*
X134910277Y-66557584D01*
X134911952Y-66550091D01*
X134909812Y-66482000D01*
X134909750Y-66478043D01*
X134909750Y-66450144D01*
X134909246Y-66446153D01*
X134908313Y-66434311D01*
X134907173Y-66398036D01*
X134906924Y-66390111D01*
X134904712Y-66382497D01*
X134904711Y-66382492D01*
X134901273Y-66370659D01*
X134897262Y-66351295D01*
X134895717Y-66339064D01*
X134894724Y-66331203D01*
X134891807Y-66323836D01*
X134891806Y-66323831D01*
X134878448Y-66290092D01*
X134874604Y-66278865D01*
X134864480Y-66244022D01*
X134862268Y-66236407D01*
X134851957Y-66218972D01*
X134843262Y-66201224D01*
X134835802Y-66182383D01*
X134809814Y-66146613D01*
X134803298Y-66136693D01*
X134784830Y-66105465D01*
X134784828Y-66105462D01*
X134780792Y-66098638D01*
X134766471Y-66084317D01*
X134753630Y-66069283D01*
X134749191Y-66063173D01*
X134741722Y-66052893D01*
X134735618Y-66047843D01*
X134735613Y-66047838D01*
X134707652Y-66024707D01*
X134698871Y-66016717D01*
X133738647Y-65056492D01*
X133731113Y-65048213D01*
X133727000Y-65041732D01*
X133677348Y-64995106D01*
X133674507Y-64992352D01*
X133654770Y-64972615D01*
X133651573Y-64970135D01*
X133642551Y-64962430D01*
X133616100Y-64937591D01*
X133610321Y-64932164D01*
X133603375Y-64928345D01*
X133603372Y-64928343D01*
X133592566Y-64922402D01*
X133576047Y-64911551D01*
X133575583Y-64911191D01*
X133560041Y-64899136D01*
X133552772Y-64895991D01*
X133552768Y-64895988D01*
X133519463Y-64881576D01*
X133508813Y-64876359D01*
X133470060Y-64855055D01*
X133450437Y-64850017D01*
X133431734Y-64843613D01*
X133420420Y-64838717D01*
X133420419Y-64838717D01*
X133413145Y-64835569D01*
X133405322Y-64834330D01*
X133405312Y-64834327D01*
X133369476Y-64828651D01*
X133357856Y-64826245D01*
X133322711Y-64817222D01*
X133322710Y-64817222D01*
X133315030Y-64815250D01*
X133294776Y-64815250D01*
X133275065Y-64813699D01*
X133262886Y-64811770D01*
X133255057Y-64810530D01*
X133247165Y-64811276D01*
X133211039Y-64814691D01*
X133199181Y-64815250D01*
X132795026Y-64815250D01*
X132726905Y-64795248D01*
X132695064Y-64765954D01*
X132649178Y-64706154D01*
X132649175Y-64706151D01*
X132644149Y-64699601D01*
X132616370Y-64678285D01*
X132527348Y-64609977D01*
X132520797Y-64604950D01*
X132513171Y-64601791D01*
X132513169Y-64601790D01*
X132398198Y-64554167D01*
X132377151Y-64545449D01*
X132368967Y-64544372D01*
X132368965Y-64544371D01*
X132265788Y-64530788D01*
X132265787Y-64530788D01*
X132261701Y-64530250D01*
X132195217Y-64530250D01*
X131131075Y-64530251D01*
X131062954Y-64510249D01*
X131023824Y-64470380D01*
X131014109Y-64454623D01*
X130890748Y-64318020D01*
X130744698Y-64206003D01*
X130580784Y-64122274D01*
X130575286Y-64120632D01*
X130575284Y-64120631D01*
X130409913Y-64071238D01*
X130409912Y-64071238D01*
X130404422Y-64069598D01*
X130395977Y-64068680D01*
X130227137Y-64050335D01*
X130227135Y-64050335D01*
X130221438Y-64049716D01*
X130037878Y-64063285D01*
X129948842Y-64086571D01*
X129865360Y-64108403D01*
X129865355Y-64108405D01*
X129859806Y-64109856D01*
X129854608Y-64112289D01*
X129854606Y-64112290D01*
X129734192Y-64168659D01*
X129725411Y-64172372D01*
X129703439Y-64180696D01*
X129703065Y-64179709D01*
X129655860Y-64190250D01*
X128159888Y-64190250D01*
X128140515Y-64188752D01*
X128125271Y-64186380D01*
X128091228Y-64175995D01*
X127950158Y-64109958D01*
X127772105Y-64063392D01*
X127588565Y-64049824D01*
X127582868Y-64050443D01*
X127582866Y-64050443D01*
X127418991Y-64068249D01*
X127405600Y-64069704D01*
X127229257Y-64122374D01*
X127224147Y-64124984D01*
X127224145Y-64124985D01*
X127131377Y-64172372D01*
X127065360Y-64206094D01*
X127060814Y-64209580D01*
X127060815Y-64209580D01*
X126923876Y-64314608D01*
X126923873Y-64314611D01*
X126919325Y-64318099D01*
X126915483Y-64322353D01*
X126915478Y-64322358D01*
X126851107Y-64393639D01*
X126795977Y-64454687D01*
X126792966Y-64459570D01*
X126792962Y-64459576D01*
X126786303Y-64470377D01*
X126733526Y-64517865D01*
X126679050Y-64530250D01*
X125614804Y-64530251D01*
X125548300Y-64530251D01*
X125544216Y-64530789D01*
X125544210Y-64530789D01*
X125441036Y-64544371D01*
X125441034Y-64544372D01*
X125432849Y-64545449D01*
X125289202Y-64604950D01*
X125234327Y-64647057D01*
X125172404Y-64694572D01*
X125172402Y-64694574D01*
X125165851Y-64699601D01*
X125160825Y-64706151D01*
X125160824Y-64706152D01*
X125114937Y-64765954D01*
X125057599Y-64807821D01*
X125014974Y-64815250D01*
X122754595Y-64815250D01*
X122686474Y-64795248D01*
X122665499Y-64778345D01*
X121955404Y-64068249D01*
X121921379Y-64005937D01*
X121918500Y-63979154D01*
X121918500Y-61794110D01*
X121938502Y-61725989D01*
X121987495Y-61682362D01*
X121987421Y-61682238D01*
X121988064Y-61681855D01*
X121989072Y-61680957D01*
X121991864Y-61679589D01*
X121991868Y-61679587D01*
X121996507Y-61677314D01*
X122181893Y-61545080D01*
X122281096Y-61446222D01*
X122343469Y-61412306D01*
X122414276Y-61417494D01*
X122471037Y-61460140D01*
X122492372Y-61507432D01*
X122492432Y-61507414D01*
X122492567Y-61507863D01*
X122493353Y-61509606D01*
X122495062Y-61517751D01*
X122581302Y-61736127D01*
X122703104Y-61936850D01*
X122856985Y-62114182D01*
X122861117Y-62117570D01*
X123034416Y-62259667D01*
X123034422Y-62259671D01*
X123038544Y-62263051D01*
X123043180Y-62265690D01*
X123043183Y-62265692D01*
X123154408Y-62329005D01*
X123242590Y-62379201D01*
X123463289Y-62459311D01*
X123468538Y-62460260D01*
X123468541Y-62460261D01*
X123549615Y-62474921D01*
X123694330Y-62501090D01*
X123698469Y-62501285D01*
X123698476Y-62501286D01*
X123717440Y-62502180D01*
X123717449Y-62502180D01*
X123718929Y-62502250D01*
X123883950Y-62502250D01*
X123965299Y-62495347D01*
X124053637Y-62487852D01*
X124053641Y-62487851D01*
X124058948Y-62487401D01*
X124064103Y-62486063D01*
X124064109Y-62486062D01*
X124281035Y-62429759D01*
X124281034Y-62429759D01*
X124286206Y-62428417D01*
X124291072Y-62426225D01*
X124291075Y-62426224D01*
X124495417Y-62334174D01*
X124495420Y-62334173D01*
X124500278Y-62331984D01*
X124695041Y-62200862D01*
X124864927Y-62038799D01*
X125005078Y-61850429D01*
X125035876Y-61789855D01*
X125109069Y-61645894D01*
X125109069Y-61645893D01*
X125111487Y-61641138D01*
X125181111Y-61416910D01*
X125198202Y-61287966D01*
X125211261Y-61189440D01*
X125211261Y-61189437D01*
X125211961Y-61184157D01*
X125203152Y-60949534D01*
X125158475Y-60736607D01*
X125156035Y-60724976D01*
X125156034Y-60724973D01*
X125154938Y-60719749D01*
X125068698Y-60501373D01*
X125013802Y-60410908D01*
X124949664Y-60305211D01*
X124949662Y-60305208D01*
X124946896Y-60300650D01*
X124793015Y-60123318D01*
X124764077Y-60099590D01*
X124615584Y-59977833D01*
X124615578Y-59977829D01*
X124611456Y-59974449D01*
X124606820Y-59971810D01*
X124606817Y-59971808D01*
X124412053Y-59860942D01*
X124407410Y-59858299D01*
X124186711Y-59778189D01*
X124181462Y-59777240D01*
X124181459Y-59777239D01*
X124100385Y-59762579D01*
X123955670Y-59736410D01*
X123951531Y-59736215D01*
X123951524Y-59736214D01*
X123932560Y-59735320D01*
X123932551Y-59735320D01*
X123931071Y-59735250D01*
X123766050Y-59735250D01*
X123684701Y-59742153D01*
X123596363Y-59749648D01*
X123596359Y-59749649D01*
X123591052Y-59750099D01*
X123585897Y-59751437D01*
X123585891Y-59751438D01*
X123425301Y-59793119D01*
X123363794Y-59809083D01*
X123358928Y-59811275D01*
X123358925Y-59811276D01*
X123154583Y-59903326D01*
X123154580Y-59903327D01*
X123149722Y-59905516D01*
X122954959Y-60036638D01*
X122951102Y-60040317D01*
X122951100Y-60040319D01*
X122825575Y-60160064D01*
X122762478Y-60192611D01*
X122691801Y-60185879D01*
X122635984Y-60142006D01*
X122616399Y-60099590D01*
X122601671Y-60040955D01*
X122601671Y-60040954D01*
X122600413Y-60035947D01*
X122598354Y-60031211D01*
X122511672Y-59831856D01*
X122511670Y-59831853D01*
X122509612Y-59827119D01*
X122385923Y-59635925D01*
X122232668Y-59467500D01*
X122053963Y-59326368D01*
X121854607Y-59216317D01*
X121738598Y-59175236D01*
X121644829Y-59142030D01*
X121644825Y-59142029D01*
X121639954Y-59140304D01*
X121634861Y-59139397D01*
X121634858Y-59139396D01*
X121420857Y-59101277D01*
X121420851Y-59101276D01*
X121415768Y-59100371D01*
X121328698Y-59099307D01*
X121193239Y-59097652D01*
X121193237Y-59097652D01*
X121188070Y-59097589D01*
X120962976Y-59132033D01*
X120746529Y-59202779D01*
X120544544Y-59307926D01*
X120540411Y-59311029D01*
X120540408Y-59311031D01*
X120442330Y-59384670D01*
X120362444Y-59444650D01*
X120205120Y-59609280D01*
X120202206Y-59613552D01*
X120202205Y-59613553D01*
X120130928Y-59718042D01*
X120076797Y-59797395D01*
X119980921Y-60003942D01*
X119920067Y-60223375D01*
X119895869Y-60449800D01*
X119896166Y-60454952D01*
X119896166Y-60454956D01*
X119898843Y-60501373D01*
X119908977Y-60677137D01*
X119910112Y-60682174D01*
X119910113Y-60682180D01*
X119953134Y-60873077D01*
X119959039Y-60899281D01*
X119960983Y-60904067D01*
X119960984Y-60904072D01*
X120042767Y-61105478D01*
X120044711Y-61110265D01*
X120047410Y-61114669D01*
X120153607Y-61287966D01*
X120163692Y-61304424D01*
X120312786Y-61476543D01*
X120487989Y-61621999D01*
X120492442Y-61624601D01*
X120492446Y-61624604D01*
X120589071Y-61681067D01*
X120637794Y-61732706D01*
X120651500Y-61789855D01*
X120651500Y-64214983D01*
X120650973Y-64226166D01*
X120649298Y-64233659D01*
X120649547Y-64241585D01*
X120649547Y-64241586D01*
X120651438Y-64301736D01*
X120651500Y-64305695D01*
X120651500Y-64333606D01*
X120651997Y-64337540D01*
X120651997Y-64337541D01*
X120652005Y-64337606D01*
X120652938Y-64349443D01*
X120654327Y-64393639D01*
X120659978Y-64413089D01*
X120663987Y-64432450D01*
X120666526Y-64452547D01*
X120669445Y-64459918D01*
X120669445Y-64459920D01*
X120682804Y-64493662D01*
X120686649Y-64504892D01*
X120698982Y-64547343D01*
X120703015Y-64554162D01*
X120703017Y-64554167D01*
X120709293Y-64564778D01*
X120717988Y-64582526D01*
X120725448Y-64601367D01*
X120730110Y-64607783D01*
X120730110Y-64607784D01*
X120751436Y-64637137D01*
X120757952Y-64647057D01*
X120780458Y-64685112D01*
X120794779Y-64699433D01*
X120807619Y-64714466D01*
X120819528Y-64730857D01*
X120825634Y-64735908D01*
X120853605Y-64759048D01*
X120862384Y-64767038D01*
X121936343Y-65840997D01*
X121943887Y-65849287D01*
X121948000Y-65855768D01*
X121953777Y-65861193D01*
X121997667Y-65902408D01*
X122000509Y-65905163D01*
X122020231Y-65924885D01*
X122023355Y-65927308D01*
X122023359Y-65927312D01*
X122023424Y-65927362D01*
X122032445Y-65935067D01*
X122064679Y-65965336D01*
X122071627Y-65969155D01*
X122071629Y-65969157D01*
X122082432Y-65975096D01*
X122098959Y-65985952D01*
X122108698Y-65993507D01*
X122108700Y-65993508D01*
X122114960Y-65998364D01*
X122155540Y-66015924D01*
X122166188Y-66021141D01*
X122172675Y-66024707D01*
X122204940Y-66042445D01*
X122212616Y-66044416D01*
X122212619Y-66044417D01*
X122224562Y-66047483D01*
X122243267Y-66053887D01*
X122261855Y-66061931D01*
X122269678Y-66063170D01*
X122269688Y-66063173D01*
X122305524Y-66068849D01*
X122317144Y-66071255D01*
X122352289Y-66080278D01*
X122359970Y-66082250D01*
X122380224Y-66082250D01*
X122399934Y-66083801D01*
X122419943Y-66086970D01*
X122427835Y-66086224D01*
X122439263Y-66085144D01*
X122463962Y-66082809D01*
X122475819Y-66082250D01*
X125001024Y-66082250D01*
X125069145Y-66102252D01*
X125115638Y-66155908D01*
X125125742Y-66226182D01*
X125100987Y-66284954D01*
X125076663Y-66316654D01*
X125068476Y-66330835D01*
X125015346Y-66459100D01*
X125011108Y-66474917D01*
X124997538Y-66577993D01*
X124997000Y-66586202D01*
X124997000Y-66676635D01*
X125001475Y-66691874D01*
X125002865Y-66693079D01*
X125010548Y-66694750D01*
X126308000Y-66694750D01*
X126376121Y-66714752D01*
X126422614Y-66768408D01*
X126434000Y-66820750D01*
X126434000Y-67848635D01*
X126438475Y-67863874D01*
X126439865Y-67865079D01*
X126447548Y-67866750D01*
X126678617Y-67866750D01*
X126746738Y-67886752D01*
X126785870Y-67926623D01*
X126795890Y-67942875D01*
X126799731Y-67947128D01*
X126799733Y-67947131D01*
X126846388Y-67998794D01*
X126919251Y-68079479D01*
X126923795Y-68082964D01*
X126923796Y-68082965D01*
X127060751Y-68188006D01*
X127060755Y-68188008D01*
X127065302Y-68191496D01*
X127229216Y-68275225D01*
X127234714Y-68276867D01*
X127234716Y-68276868D01*
X127311206Y-68299714D01*
X127405578Y-68327901D01*
X127411275Y-68328520D01*
X127582864Y-68347164D01*
X127582866Y-68347164D01*
X127588563Y-68347783D01*
X127772123Y-68334214D01*
X127950195Y-68287642D01*
X128075810Y-68228839D01*
X128084590Y-68225126D01*
X128106562Y-68216802D01*
X128106936Y-68217790D01*
X128154139Y-68207249D01*
X129650056Y-68207249D01*
X129669457Y-68208752D01*
X129684794Y-68211142D01*
X129718813Y-68221524D01*
X129786523Y-68253221D01*
X129859839Y-68287542D01*
X130037892Y-68334109D01*
X130221434Y-68347677D01*
X130227131Y-68347058D01*
X130227133Y-68347058D01*
X130398702Y-68328417D01*
X130404399Y-68327798D01*
X130580743Y-68275127D01*
X130643409Y-68243117D01*
X130689034Y-68219811D01*
X130744640Y-68191407D01*
X130772779Y-68169825D01*
X130886124Y-68082893D01*
X130886127Y-68082890D01*
X130890675Y-68079402D01*
X130894517Y-68075148D01*
X130894522Y-68075143D01*
X131010179Y-67947071D01*
X131010180Y-67947069D01*
X131014024Y-67942813D01*
X131017030Y-67937937D01*
X131017034Y-67937932D01*
X131023699Y-67927121D01*
X131076477Y-67879634D01*
X131130951Y-67867250D01*
X132195195Y-67867249D01*
X132261700Y-67867249D01*
X132265784Y-67866711D01*
X132265790Y-67866711D01*
X132368964Y-67853129D01*
X132368966Y-67853128D01*
X132377151Y-67852051D01*
X132520798Y-67792550D01*
X132583306Y-67744586D01*
X132637596Y-67702928D01*
X132637599Y-67702925D01*
X132644149Y-67697899D01*
X132695063Y-67631546D01*
X132752401Y-67589679D01*
X132795026Y-67582250D01*
X132832906Y-67582250D01*
X132901027Y-67602252D01*
X132922001Y-67619155D01*
X133155845Y-67852999D01*
X133189871Y-67915311D01*
X133192750Y-67942094D01*
X133192750Y-69217905D01*
X133172748Y-69286026D01*
X133155845Y-69307001D01*
X132939499Y-69523346D01*
X132877187Y-69557371D01*
X132850404Y-69560250D01*
X122075975Y-69560250D01*
X122064792Y-69559723D01*
X122057299Y-69558048D01*
X122049373Y-69558297D01*
X122049372Y-69558297D01*
X121989222Y-69560188D01*
X121985263Y-69560250D01*
X121957352Y-69560250D01*
X121953418Y-69560747D01*
X121953417Y-69560747D01*
X121953352Y-69560755D01*
X121941515Y-69561688D01*
X121909698Y-69562688D01*
X121905237Y-69562828D01*
X121897318Y-69563077D01*
X121879662Y-69568206D01*
X121877866Y-69568728D01*
X121858514Y-69572736D01*
X121851443Y-69573630D01*
X121838411Y-69575276D01*
X121831042Y-69578193D01*
X121831040Y-69578194D01*
X121797305Y-69591550D01*
X121786077Y-69595395D01*
X121743615Y-69607732D01*
X121736793Y-69611766D01*
X121736787Y-69611769D01*
X121726176Y-69618044D01*
X121708426Y-69626740D01*
X121696964Y-69631278D01*
X121696959Y-69631281D01*
X121689591Y-69634198D01*
X121683176Y-69638859D01*
X121653833Y-69660177D01*
X121643915Y-69666693D01*
X121625227Y-69677745D01*
X121605845Y-69689208D01*
X121591521Y-69703532D01*
X121576489Y-69716371D01*
X121560101Y-69728278D01*
X121534718Y-69758961D01*
X121531920Y-69762343D01*
X121523930Y-69771123D01*
X120442747Y-70852306D01*
X120434461Y-70859846D01*
X120427982Y-70863958D01*
X120422557Y-70869735D01*
X120381357Y-70913609D01*
X120378602Y-70916451D01*
X120358865Y-70936188D01*
X120356385Y-70939385D01*
X120348682Y-70948405D01*
X120318414Y-70980637D01*
X120314595Y-70987583D01*
X120314593Y-70987586D01*
X120308652Y-70998392D01*
X120297801Y-71014911D01*
X120285386Y-71030917D01*
X120282241Y-71038186D01*
X120282238Y-71038190D01*
X120267826Y-71071495D01*
X120262609Y-71082145D01*
X120241305Y-71120898D01*
X120239334Y-71128573D01*
X120239334Y-71128574D01*
X120236267Y-71140520D01*
X120229863Y-71159224D01*
X120221819Y-71177813D01*
X120220580Y-71185636D01*
X120220577Y-71185646D01*
X120214901Y-71221482D01*
X120212495Y-71233102D01*
X120201500Y-71275928D01*
X120201500Y-71296182D01*
X120199949Y-71315892D01*
X120196780Y-71335901D01*
X120197526Y-71343793D01*
X120200941Y-71379919D01*
X120201500Y-71391777D01*
X120201500Y-73162595D01*
X120181498Y-73230716D01*
X120167351Y-73248847D01*
X120159664Y-73257033D01*
X120155845Y-73263979D01*
X120155843Y-73263982D01*
X120149902Y-73274788D01*
X120139051Y-73291307D01*
X120126636Y-73307313D01*
X120123491Y-73314582D01*
X120123488Y-73314586D01*
X120109076Y-73347891D01*
X120103859Y-73358541D01*
X120082555Y-73397294D01*
X120080584Y-73404969D01*
X120080584Y-73404970D01*
X120077517Y-73416916D01*
X120071113Y-73435620D01*
X120063069Y-73454209D01*
X120061830Y-73462032D01*
X120061827Y-73462042D01*
X120056151Y-73497878D01*
X120053745Y-73509498D01*
X120042750Y-73552324D01*
X120042750Y-73572578D01*
X120041199Y-73592288D01*
X120038030Y-73612297D01*
X120038776Y-73620189D01*
X120042191Y-73656315D01*
X120042750Y-73668173D01*
X120042750Y-76466379D01*
X120042223Y-76477562D01*
X120040548Y-76485055D01*
X120040797Y-76492981D01*
X120040797Y-76492982D01*
X120042688Y-76553132D01*
X120042750Y-76557091D01*
X120042750Y-76585002D01*
X120043247Y-76588936D01*
X120043247Y-76588937D01*
X120043255Y-76589002D01*
X120044188Y-76600839D01*
X120045577Y-76645035D01*
X120051228Y-76664485D01*
X120055237Y-76683846D01*
X120057776Y-76703943D01*
X120060695Y-76711314D01*
X120060695Y-76711316D01*
X120074054Y-76745058D01*
X120077899Y-76756288D01*
X120090232Y-76798739D01*
X120094265Y-76805558D01*
X120094267Y-76805563D01*
X120100543Y-76816174D01*
X120109238Y-76833922D01*
X120116698Y-76852763D01*
X120121360Y-76859179D01*
X120121360Y-76859180D01*
X120142686Y-76888533D01*
X120149202Y-76898453D01*
X120171708Y-76936508D01*
X120175480Y-76940280D01*
X120201006Y-77005288D01*
X120201500Y-77016433D01*
X120201500Y-79060405D01*
X120181498Y-79128526D01*
X120164595Y-79149501D01*
X119927683Y-79386412D01*
X119691442Y-79622653D01*
X119683163Y-79630187D01*
X119676682Y-79634300D01*
X119630057Y-79683951D01*
X119627302Y-79686793D01*
X119607565Y-79706530D01*
X119605085Y-79709727D01*
X119597382Y-79718747D01*
X119567114Y-79750979D01*
X119563295Y-79757925D01*
X119563293Y-79757928D01*
X119557352Y-79768734D01*
X119546501Y-79785253D01*
X119534086Y-79801259D01*
X119530941Y-79808528D01*
X119530938Y-79808532D01*
X119516526Y-79841837D01*
X119511309Y-79852487D01*
X119490005Y-79891240D01*
X119488034Y-79898915D01*
X119488034Y-79898916D01*
X119484967Y-79910862D01*
X119478563Y-79929566D01*
X119470519Y-79948155D01*
X119469280Y-79955978D01*
X119469277Y-79955988D01*
X119463601Y-79991824D01*
X119461195Y-80003444D01*
X119459175Y-80011312D01*
X119450200Y-80046270D01*
X119450200Y-80066524D01*
X119448649Y-80086234D01*
X119445480Y-80106243D01*
X119094750Y-80106243D01*
X119094750Y-67209909D01*
X125064498Y-67209909D01*
X125068873Y-67217426D01*
X125113929Y-67275407D01*
X125119124Y-67281294D01*
X125582416Y-67744586D01*
X125588390Y-67749851D01*
X125647076Y-67795332D01*
X125661548Y-67803726D01*
X125780450Y-67852856D01*
X125796593Y-67857121D01*
X125869448Y-67866260D01*
X125877293Y-67866750D01*
X125907885Y-67866750D01*
X125923124Y-67862275D01*
X125924329Y-67860885D01*
X125926000Y-67853202D01*
X125926000Y-67220865D01*
X125921525Y-67205626D01*
X125920135Y-67204421D01*
X125912452Y-67202750D01*
X125078487Y-67202750D01*
X125064956Y-67206723D01*
X125064498Y-67209909D01*
X119094750Y-67209909D01*
X119094750Y-57085845D01*
X121032001Y-57085845D01*
X121032338Y-57092364D01*
X121042257Y-57187956D01*
X121045149Y-57201350D01*
X121096588Y-57355534D01*
X121102761Y-57368712D01*
X121188063Y-57506557D01*
X121197099Y-57517958D01*
X121311829Y-57632489D01*
X121323240Y-57641501D01*
X121461243Y-57726566D01*
X121474424Y-57732713D01*
X121628710Y-57783888D01*
X121642086Y-57786755D01*
X121736438Y-57796422D01*
X121742854Y-57796750D01*
X122542885Y-57796750D01*
X122558124Y-57792275D01*
X122559329Y-57790885D01*
X122561000Y-57783202D01*
X122561000Y-57778634D01*
X123069000Y-57778634D01*
X123073475Y-57793873D01*
X123074865Y-57795078D01*
X123082548Y-57796749D01*
X123691895Y-57796749D01*
X123691927Y-57796750D01*
X124292885Y-57796750D01*
X124308124Y-57792275D01*
X124309329Y-57790885D01*
X124311000Y-57783202D01*
X124311000Y-57778634D01*
X124819000Y-57778634D01*
X124823475Y-57793873D01*
X124824865Y-57795078D01*
X124832548Y-57796749D01*
X125070196Y-57796749D01*
X125137152Y-57816012D01*
X125339212Y-57942764D01*
X125346763Y-57946813D01*
X125607112Y-58064364D01*
X125615143Y-58067351D01*
X125889034Y-58148482D01*
X125897386Y-58150349D01*
X126179760Y-58193558D01*
X126188293Y-58194274D01*
X126473914Y-58198762D01*
X126482465Y-58198313D01*
X126766056Y-58163995D01*
X126774457Y-58162393D01*
X127050780Y-58089901D01*
X127058882Y-58087174D01*
X127322805Y-57977853D01*
X127330467Y-57974050D01*
X127577103Y-57829927D01*
X127584190Y-57825111D01*
X127686497Y-57744893D01*
X127694968Y-57733033D01*
X127688452Y-57721412D01*
X126377812Y-56410772D01*
X126363868Y-56403158D01*
X126362035Y-56403289D01*
X126355420Y-56407540D01*
X125079479Y-57683481D01*
X125017167Y-57717507D01*
X124946352Y-57712442D01*
X124901289Y-57683481D01*
X124831812Y-57614004D01*
X124821723Y-57608495D01*
X124819000Y-57615796D01*
X124819000Y-57778634D01*
X124311000Y-57778634D01*
X124311000Y-57207425D01*
X124819000Y-57207425D01*
X124822237Y-57218450D01*
X124829328Y-57215212D01*
X125992978Y-56051562D01*
X125999356Y-56039882D01*
X126729408Y-56039882D01*
X126729539Y-56041715D01*
X126733790Y-56048330D01*
X128048033Y-57362573D01*
X128060242Y-57369240D01*
X128071742Y-57360550D01*
X128188777Y-57201225D01*
X128193364Y-57193997D01*
X128329667Y-56942959D01*
X128333235Y-56935165D01*
X128434205Y-56667956D01*
X128436682Y-56659750D01*
X128500454Y-56381308D01*
X128501794Y-56372847D01*
X128527349Y-56086514D01*
X128527595Y-56081575D01*
X128528017Y-56041235D01*
X128527874Y-56036269D01*
X128508322Y-55749468D01*
X128507161Y-55740994D01*
X128449231Y-55461262D01*
X128446932Y-55453027D01*
X128351574Y-55183743D01*
X128348177Y-55175893D01*
X128217155Y-54922042D01*
X128212727Y-54914730D01*
X128072701Y-54715496D01*
X128062180Y-54707116D01*
X128048792Y-54714168D01*
X126737022Y-56025938D01*
X126729408Y-56039882D01*
X125999356Y-56039882D01*
X126000592Y-56037618D01*
X126000461Y-56035785D01*
X125996210Y-56029170D01*
X124831812Y-54864772D01*
X124821723Y-54859263D01*
X124819000Y-54866564D01*
X124819000Y-57207425D01*
X124311000Y-57207425D01*
X124311000Y-56310865D01*
X124306525Y-56295626D01*
X124305135Y-56294421D01*
X124297452Y-56292750D01*
X123087115Y-56292750D01*
X123071876Y-56297225D01*
X123070671Y-56298615D01*
X123069000Y-56306298D01*
X123069000Y-57778634D01*
X122561000Y-57778634D01*
X122561000Y-56310865D01*
X122556525Y-56295626D01*
X122555135Y-56294421D01*
X122547452Y-56292750D01*
X121050116Y-56292750D01*
X121034877Y-56297225D01*
X121033672Y-56298615D01*
X121032001Y-56306298D01*
X121032001Y-57085845D01*
X119094750Y-57085845D01*
X119094750Y-55766635D01*
X121032000Y-55766635D01*
X121036475Y-55781874D01*
X121037865Y-55783079D01*
X121045548Y-55784750D01*
X122542885Y-55784750D01*
X122558124Y-55780275D01*
X122559329Y-55778885D01*
X122561000Y-55771202D01*
X122561000Y-55766635D01*
X123069000Y-55766635D01*
X123073475Y-55781874D01*
X123074865Y-55783079D01*
X123082548Y-55784750D01*
X124292885Y-55784750D01*
X124308124Y-55780275D01*
X124309329Y-55778885D01*
X124311000Y-55771202D01*
X124311000Y-54458193D01*
X124819000Y-54458193D01*
X124822237Y-54469218D01*
X124829328Y-54465980D01*
X124901289Y-54394019D01*
X124963601Y-54359993D01*
X125034416Y-54365058D01*
X125079479Y-54394019D01*
X126352188Y-55666728D01*
X126366132Y-55674342D01*
X126367965Y-55674211D01*
X126374580Y-55669960D01*
X127688199Y-54356341D01*
X127695390Y-54343172D01*
X127688068Y-54332935D01*
X127621328Y-54278310D01*
X127614356Y-54273355D01*
X127370791Y-54124098D01*
X127363193Y-54120126D01*
X127101633Y-54005308D01*
X127093579Y-54002409D01*
X126818852Y-53924152D01*
X126810474Y-53922370D01*
X126527668Y-53882121D01*
X126519121Y-53881494D01*
X126233467Y-53879997D01*
X126224933Y-53880534D01*
X125941715Y-53917821D01*
X125933317Y-53919514D01*
X125657786Y-53994891D01*
X125649699Y-53997707D01*
X125386952Y-54109779D01*
X125379312Y-54113672D01*
X125130522Y-54262569D01*
X125129392Y-54260680D01*
X125065389Y-54280750D01*
X124837115Y-54280750D01*
X124821876Y-54285225D01*
X124820671Y-54286615D01*
X124819000Y-54294298D01*
X124819000Y-54458193D01*
X124311000Y-54458193D01*
X124311000Y-54298866D01*
X124306525Y-54283627D01*
X124305135Y-54282422D01*
X124297452Y-54280751D01*
X123890381Y-54280751D01*
X123890345Y-54280750D01*
X123087115Y-54280750D01*
X123071876Y-54285225D01*
X123070671Y-54286615D01*
X123069000Y-54294298D01*
X123069000Y-55766635D01*
X122561000Y-55766635D01*
X122561000Y-54298866D01*
X122556525Y-54283627D01*
X122555135Y-54282422D01*
X122547452Y-54280751D01*
X121742905Y-54280751D01*
X121736386Y-54281088D01*
X121640794Y-54291007D01*
X121627400Y-54293899D01*
X121473216Y-54345338D01*
X121460038Y-54351511D01*
X121322193Y-54436813D01*
X121310792Y-54445849D01*
X121196261Y-54560579D01*
X121187249Y-54571990D01*
X121102184Y-54709993D01*
X121096037Y-54723174D01*
X121044862Y-54877460D01*
X121041995Y-54890836D01*
X121032328Y-54985188D01*
X121032000Y-54991605D01*
X121032000Y-55766635D01*
X119094750Y-55766635D01*
X119094750Y-47678250D01*
X119096496Y-47657345D01*
X119099020Y-47642344D01*
X119099020Y-47642341D01*
X119099826Y-47637552D01*
X119099979Y-47625000D01*
X119098792Y-47616709D01*
X119097999Y-47587869D01*
X119110184Y-47448606D01*
X119113997Y-47426979D01*
X119141590Y-47323994D01*
X119156970Y-47266594D01*
X119164478Y-47245964D01*
X119234653Y-47095473D01*
X119245633Y-47076455D01*
X119340866Y-46940444D01*
X119354983Y-46923619D01*
X119472390Y-46806208D01*
X119489214Y-46792090D01*
X119625224Y-46696851D01*
X119644244Y-46685870D01*
X119794729Y-46615693D01*
X119815368Y-46608180D01*
X119975751Y-46565201D01*
X119997380Y-46561387D01*
X120076812Y-46554435D01*
X120132953Y-46549522D01*
X120149640Y-46550083D01*
X120149645Y-46549701D01*
X120158620Y-46549810D01*
X120167490Y-46551191D01*
X120176390Y-46550027D01*
X120176392Y-46550027D01*
X120199044Y-46547064D01*
X120215385Y-46546000D01*
X137586875Y-46546000D01*
X137606265Y-46547501D01*
G37*
%TD.AperFunction*%
%TD*%
M02*
