%TF.GenerationSoftware,KiCad,Pcbnew,(6.0.7-1)-1*%
%TF.CreationDate,2022-12-25T16:23:57+07:00*%
%TF.ProjectId,pcb,7063622e-6b69-4636-9164-5f7063625858,rev?*%
%TF.SameCoordinates,Original*%
%TF.FileFunction,Legend,Bot*%
%TF.FilePolarity,Positive*%
%FSLAX46Y46*%
G04 Gerber Fmt 4.6, Leading zero omitted, Abs format (unit mm)*
G04 Created by KiCad (PCBNEW (6.0.7-1)-1) date 2022-12-25 16:23:57*
%MOMM*%
%LPD*%
G01*
G04 APERTURE LIST*
%ADD10C,1.752600*%
G04 APERTURE END LIST*
%TO.C,G*%
G36*
X132271922Y-70217422D02*
G01*
X132265736Y-70278699D01*
X132257077Y-70341060D01*
X132245939Y-70404572D01*
X132232313Y-70469300D01*
X132216194Y-70535312D01*
X132197573Y-70602672D01*
X132176444Y-70671447D01*
X132152800Y-70741704D01*
X132126633Y-70813507D01*
X132124479Y-70819193D01*
X132113031Y-70848927D01*
X132100986Y-70879408D01*
X132088301Y-70910729D01*
X132074931Y-70942985D01*
X132060834Y-70976269D01*
X132045966Y-71010674D01*
X132030282Y-71046293D01*
X132013740Y-71083220D01*
X131996295Y-71121548D01*
X131977904Y-71161371D01*
X131958523Y-71202782D01*
X131938109Y-71245874D01*
X131916619Y-71290741D01*
X131894007Y-71337476D01*
X131870231Y-71386172D01*
X131845247Y-71436924D01*
X131819012Y-71489824D01*
X131791481Y-71544965D01*
X131762611Y-71602442D01*
X131732359Y-71662348D01*
X131700680Y-71724775D01*
X131694116Y-71737670D01*
X131682593Y-71760259D01*
X131670475Y-71783956D01*
X131657848Y-71808597D01*
X131644799Y-71834017D01*
X131631411Y-71860053D01*
X131617770Y-71886539D01*
X131603962Y-71913313D01*
X131590072Y-71940208D01*
X131576184Y-71967062D01*
X131562386Y-71993710D01*
X131548761Y-72019988D01*
X131535395Y-72045731D01*
X131522373Y-72070775D01*
X131509782Y-72094956D01*
X131497705Y-72118110D01*
X131486228Y-72140072D01*
X131475437Y-72160679D01*
X131465417Y-72179765D01*
X131456254Y-72197166D01*
X131448031Y-72212720D01*
X131440836Y-72226260D01*
X131434753Y-72237623D01*
X131429867Y-72246644D01*
X131426264Y-72253160D01*
X131421829Y-72261035D01*
X131390814Y-72261037D01*
X131386843Y-72261037D01*
X131376375Y-72261034D01*
X131363140Y-72261028D01*
X131347194Y-72261018D01*
X131328593Y-72261005D01*
X131307394Y-72260989D01*
X131283654Y-72260970D01*
X131257428Y-72260947D01*
X131228774Y-72260922D01*
X131197749Y-72260893D01*
X131164408Y-72260862D01*
X131128808Y-72260828D01*
X131091006Y-72260791D01*
X131051059Y-72260751D01*
X131009022Y-72260709D01*
X130964953Y-72260664D01*
X130918907Y-72260617D01*
X130870942Y-72260567D01*
X130821115Y-72260515D01*
X130769481Y-72260461D01*
X130716097Y-72260404D01*
X130661019Y-72260345D01*
X130604305Y-72260285D01*
X130546011Y-72260222D01*
X130486193Y-72260157D01*
X130424908Y-72260090D01*
X130362213Y-72260021D01*
X130298163Y-72259951D01*
X130232816Y-72259879D01*
X130166228Y-72259805D01*
X130098456Y-72259730D01*
X130029555Y-72259653D01*
X129959584Y-72259575D01*
X129888598Y-72259495D01*
X129816653Y-72259414D01*
X129743807Y-72259332D01*
X129670116Y-72259248D01*
X129595636Y-72259164D01*
X129520424Y-72259078D01*
X129444537Y-72258992D01*
X129368031Y-72258905D01*
X129290963Y-72258816D01*
X129213388Y-72258727D01*
X129135365Y-72258638D01*
X129056948Y-72258547D01*
X128978196Y-72258456D01*
X128899164Y-72258365D01*
X128819908Y-72258273D01*
X128740487Y-72258181D01*
X128660955Y-72258088D01*
X128581370Y-72257995D01*
X128501788Y-72257902D01*
X128422265Y-72257809D01*
X128342859Y-72257716D01*
X128263625Y-72257623D01*
X128184621Y-72257530D01*
X128105902Y-72257437D01*
X128027526Y-72257344D01*
X127949549Y-72257251D01*
X127872027Y-72257159D01*
X127795018Y-72257068D01*
X127718577Y-72256976D01*
X127642761Y-72256886D01*
X127567626Y-72256796D01*
X127493230Y-72256706D01*
X127419629Y-72256618D01*
X127346879Y-72256530D01*
X127275036Y-72256443D01*
X127204158Y-72256357D01*
X127134301Y-72256272D01*
X127065522Y-72256188D01*
X126997876Y-72256106D01*
X126931422Y-72256024D01*
X126866214Y-72255944D01*
X126802310Y-72255865D01*
X126739766Y-72255787D01*
X126678639Y-72255711D01*
X126618985Y-72255637D01*
X126560861Y-72255564D01*
X126504323Y-72255493D01*
X126449428Y-72255423D01*
X126396233Y-72255356D01*
X126344794Y-72255290D01*
X126295168Y-72255226D01*
X126247410Y-72255164D01*
X126201578Y-72255104D01*
X126157729Y-72255047D01*
X126115918Y-72254991D01*
X126076203Y-72254938D01*
X126038639Y-72254887D01*
X126003284Y-72254839D01*
X125970194Y-72254793D01*
X125939425Y-72254749D01*
X125911034Y-72254708D01*
X125885078Y-72254670D01*
X125861613Y-72254635D01*
X125840696Y-72254602D01*
X125822383Y-72254572D01*
X125806731Y-72254545D01*
X125793796Y-72254522D01*
X125783635Y-72254501D01*
X125776304Y-72254483D01*
X125771860Y-72254469D01*
X125770360Y-72254457D01*
X125770358Y-72254454D01*
X125770330Y-72252844D01*
X125770422Y-72248549D01*
X125770621Y-72241873D01*
X125770916Y-72233123D01*
X125771294Y-72222603D01*
X125771743Y-72210618D01*
X125772250Y-72197473D01*
X125772804Y-72183472D01*
X125773392Y-72168922D01*
X125774003Y-72154126D01*
X125774623Y-72139390D01*
X125775241Y-72125019D01*
X125775844Y-72111318D01*
X125776421Y-72098591D01*
X125776959Y-72087144D01*
X125777446Y-72077282D01*
X125778620Y-72054889D01*
X125780196Y-72028252D01*
X126005736Y-72028252D01*
X126005899Y-72029487D01*
X126006282Y-72029500D01*
X126009274Y-72029527D01*
X126015194Y-72029556D01*
X126023993Y-72029589D01*
X126035625Y-72029625D01*
X126050039Y-72029664D01*
X126067190Y-72029705D01*
X126087027Y-72029749D01*
X126109504Y-72029796D01*
X126134572Y-72029846D01*
X126162183Y-72029897D01*
X126192289Y-72029952D01*
X126224841Y-72030008D01*
X126259792Y-72030067D01*
X126297093Y-72030129D01*
X126336697Y-72030192D01*
X126378554Y-72030258D01*
X126422618Y-72030325D01*
X126468840Y-72030395D01*
X126517171Y-72030466D01*
X126567564Y-72030540D01*
X126619971Y-72030615D01*
X126674343Y-72030692D01*
X126730632Y-72030770D01*
X126788791Y-72030850D01*
X126848770Y-72030932D01*
X126910522Y-72031015D01*
X126973999Y-72031099D01*
X127039153Y-72031185D01*
X127105935Y-72031272D01*
X127174298Y-72031360D01*
X127244192Y-72031450D01*
X127315571Y-72031540D01*
X127388386Y-72031632D01*
X127462588Y-72031724D01*
X127538131Y-72031817D01*
X127614965Y-72031911D01*
X127693042Y-72032006D01*
X127772315Y-72032101D01*
X127852735Y-72032197D01*
X127934254Y-72032293D01*
X128016824Y-72032390D01*
X128100397Y-72032488D01*
X128184924Y-72032585D01*
X128270358Y-72032683D01*
X128356650Y-72032781D01*
X128443753Y-72032880D01*
X128531618Y-72032978D01*
X128620197Y-72033076D01*
X128659744Y-72033120D01*
X128748134Y-72033218D01*
X128835817Y-72033315D01*
X128922742Y-72033411D01*
X129008862Y-72033506D01*
X129094127Y-72033600D01*
X129178488Y-72033694D01*
X129261898Y-72033786D01*
X129344307Y-72033877D01*
X129425666Y-72033967D01*
X129505927Y-72034056D01*
X129585041Y-72034143D01*
X129662958Y-72034230D01*
X129739632Y-72034314D01*
X129815011Y-72034398D01*
X129889049Y-72034480D01*
X129961696Y-72034560D01*
X130032902Y-72034639D01*
X130102621Y-72034716D01*
X130170802Y-72034791D01*
X130237398Y-72034865D01*
X130302358Y-72034937D01*
X130365635Y-72035007D01*
X130427180Y-72035075D01*
X130486944Y-72035141D01*
X130544878Y-72035205D01*
X130600933Y-72035267D01*
X130655061Y-72035327D01*
X130707213Y-72035385D01*
X130757340Y-72035441D01*
X130805394Y-72035494D01*
X130851325Y-72035545D01*
X130895086Y-72035593D01*
X130936626Y-72035639D01*
X130975897Y-72035683D01*
X131012852Y-72035724D01*
X131047440Y-72035762D01*
X131079613Y-72035798D01*
X131109322Y-72035831D01*
X131136519Y-72035861D01*
X131161155Y-72035888D01*
X131183181Y-72035913D01*
X131202548Y-72035934D01*
X131219208Y-72035953D01*
X131233111Y-72035968D01*
X131244210Y-72035980D01*
X131252454Y-72035990D01*
X131257796Y-72035996D01*
X131260187Y-72035998D01*
X131286579Y-72036031D01*
X131327182Y-71958404D01*
X131340550Y-71932810D01*
X131362765Y-71890120D01*
X131385323Y-71846582D01*
X131408141Y-71802363D01*
X131431136Y-71757630D01*
X131454224Y-71712548D01*
X131477322Y-71667286D01*
X131500346Y-71622008D01*
X131523213Y-71576882D01*
X131545840Y-71532073D01*
X131568143Y-71487749D01*
X131590039Y-71444077D01*
X131611444Y-71401221D01*
X131632275Y-71359350D01*
X131652449Y-71318629D01*
X131671881Y-71279226D01*
X131690489Y-71241305D01*
X131708190Y-71205035D01*
X131724899Y-71170581D01*
X131740534Y-71138111D01*
X131755011Y-71107789D01*
X131768246Y-71079784D01*
X131780156Y-71054262D01*
X131798685Y-71013887D01*
X131827892Y-70948566D01*
X131855162Y-70885347D01*
X131880524Y-70824139D01*
X131904008Y-70764847D01*
X131925642Y-70707381D01*
X131945457Y-70651647D01*
X131963481Y-70597553D01*
X131979744Y-70545007D01*
X131994275Y-70493915D01*
X132007103Y-70444186D01*
X132018258Y-70395728D01*
X132027769Y-70348447D01*
X132035665Y-70302251D01*
X132041976Y-70257048D01*
X132046730Y-70212745D01*
X132050646Y-70155627D01*
X132051960Y-70098263D01*
X132050593Y-70041792D01*
X132046565Y-69986280D01*
X132039893Y-69931793D01*
X132030597Y-69878397D01*
X132018694Y-69826158D01*
X132004205Y-69775142D01*
X131987148Y-69725414D01*
X131967540Y-69677040D01*
X131945402Y-69630087D01*
X131920752Y-69584619D01*
X131893609Y-69540704D01*
X131863990Y-69498406D01*
X131831916Y-69457791D01*
X131814769Y-69437939D01*
X131791752Y-69412840D01*
X131767004Y-69387350D01*
X131741056Y-69361987D01*
X131714437Y-69337264D01*
X131687677Y-69313696D01*
X131661304Y-69291800D01*
X131639508Y-69274766D01*
X131594476Y-69242414D01*
X131547770Y-69212526D01*
X131499439Y-69185124D01*
X131449536Y-69160227D01*
X131398113Y-69137855D01*
X131345222Y-69118029D01*
X131290913Y-69100768D01*
X131235239Y-69086093D01*
X131178252Y-69074024D01*
X131120002Y-69064580D01*
X131060542Y-69057783D01*
X131028884Y-69055347D01*
X130987783Y-69053420D01*
X130946079Y-69052772D01*
X130904256Y-69053380D01*
X130862797Y-69055221D01*
X130822187Y-69058273D01*
X130782909Y-69062512D01*
X130745447Y-69067915D01*
X130710285Y-69074459D01*
X130693228Y-69078457D01*
X130670498Y-69084827D01*
X130645815Y-69092755D01*
X130619441Y-69102130D01*
X130591638Y-69112845D01*
X130562669Y-69124791D01*
X130532797Y-69137858D01*
X130502285Y-69151938D01*
X130471394Y-69166921D01*
X130440388Y-69182700D01*
X130409529Y-69199164D01*
X130371279Y-69220573D01*
X130305583Y-69259719D01*
X130240270Y-69301619D01*
X130175537Y-69346118D01*
X130111579Y-69393060D01*
X130048592Y-69442289D01*
X129986774Y-69493651D01*
X129926319Y-69546990D01*
X129867424Y-69602151D01*
X129810285Y-69658979D01*
X129755099Y-69717318D01*
X129750666Y-69722162D01*
X129740602Y-69733240D01*
X129730403Y-69744585D01*
X129719922Y-69756369D01*
X129709012Y-69768763D01*
X129697526Y-69781937D01*
X129685316Y-69796063D01*
X129672236Y-69811313D01*
X129658139Y-69827858D01*
X129642877Y-69845868D01*
X129626304Y-69865515D01*
X129608272Y-69886970D01*
X129588634Y-69910404D01*
X129567244Y-69935990D01*
X129549573Y-69957135D01*
X129531803Y-69978367D01*
X129515644Y-69997632D01*
X129500936Y-70015111D01*
X129487524Y-70030985D01*
X129475247Y-70045436D01*
X129463950Y-70058644D01*
X129453473Y-70070791D01*
X129443660Y-70082057D01*
X129434352Y-70092624D01*
X129425392Y-70102672D01*
X129416621Y-70112384D01*
X129407882Y-70121939D01*
X129399018Y-70131520D01*
X129389870Y-70141306D01*
X129380280Y-70151479D01*
X129370091Y-70162221D01*
X129336162Y-70196524D01*
X129297949Y-70231921D01*
X129259272Y-70264369D01*
X129220113Y-70293879D01*
X129180454Y-70320464D01*
X129140278Y-70344133D01*
X129099567Y-70364897D01*
X129058305Y-70382768D01*
X129016473Y-70397755D01*
X128974055Y-70409871D01*
X128959293Y-70413434D01*
X128945311Y-70416468D01*
X128932142Y-70418887D01*
X128919148Y-70420769D01*
X128905697Y-70422193D01*
X128891153Y-70423238D01*
X128874882Y-70423983D01*
X128856249Y-70424507D01*
X128853698Y-70424560D01*
X128833870Y-70424784D01*
X128815383Y-70424594D01*
X128797384Y-70423951D01*
X128779015Y-70422814D01*
X128759421Y-70421142D01*
X128737746Y-70418895D01*
X128728812Y-70417868D01*
X128684223Y-70411690D01*
X128637627Y-70403560D01*
X128589203Y-70393528D01*
X128539132Y-70381643D01*
X128487596Y-70367957D01*
X128434773Y-70352518D01*
X128380846Y-70335376D01*
X128325993Y-70316582D01*
X128270397Y-70296184D01*
X128214236Y-70274234D01*
X128207475Y-70271504D01*
X128182829Y-70261414D01*
X128158935Y-70251399D01*
X128135369Y-70241267D01*
X128111709Y-70230829D01*
X128087534Y-70219893D01*
X128062421Y-70208269D01*
X128035947Y-70195767D01*
X128007692Y-70182197D01*
X127977231Y-70167369D01*
X127947110Y-70152627D01*
X127918182Y-70138485D01*
X127891592Y-70125505D01*
X127867161Y-70113605D01*
X127844710Y-70102698D01*
X127824059Y-70092702D01*
X127805029Y-70083532D01*
X127787440Y-70075102D01*
X127771113Y-70067330D01*
X127755869Y-70060131D01*
X127741527Y-70053419D01*
X127727910Y-70047112D01*
X127714836Y-70041124D01*
X127702128Y-70035372D01*
X127689605Y-70029770D01*
X127677088Y-70024236D01*
X127664397Y-70018683D01*
X127651354Y-70013028D01*
X127637779Y-70007187D01*
X127623492Y-70001075D01*
X127556558Y-69973357D01*
X127480555Y-69944009D01*
X127405605Y-69917377D01*
X127331638Y-69893442D01*
X127258585Y-69872181D01*
X127186376Y-69853574D01*
X127114942Y-69837599D01*
X127044213Y-69824235D01*
X127037591Y-69823109D01*
X127010784Y-69818755D01*
X126986354Y-69815165D01*
X126963886Y-69812297D01*
X126942965Y-69810113D01*
X126923177Y-69808573D01*
X126904107Y-69807639D01*
X126885339Y-69807272D01*
X126866460Y-69807431D01*
X126854956Y-69807732D01*
X126840778Y-69808324D01*
X126828508Y-69809178D01*
X126817505Y-69810367D01*
X126807133Y-69811963D01*
X126796751Y-69814040D01*
X126785721Y-69816671D01*
X126763165Y-69823277D01*
X126733864Y-69834554D01*
X126704882Y-69848777D01*
X126676236Y-69865926D01*
X126647938Y-69885979D01*
X126620004Y-69908913D01*
X126592448Y-69934706D01*
X126565284Y-69963338D01*
X126538527Y-69994785D01*
X126512191Y-70029027D01*
X126486291Y-70066042D01*
X126460841Y-70105806D01*
X126435855Y-70148300D01*
X126411349Y-70193501D01*
X126387336Y-70241386D01*
X126363831Y-70291935D01*
X126340849Y-70345126D01*
X126318403Y-70400936D01*
X126296508Y-70459343D01*
X126275179Y-70520327D01*
X126254431Y-70583865D01*
X126234277Y-70649935D01*
X126216293Y-70712977D01*
X126198491Y-70779531D01*
X126181151Y-70848543D01*
X126164318Y-70919752D01*
X126148037Y-70992896D01*
X126132354Y-71067714D01*
X126117315Y-71143946D01*
X126102964Y-71221330D01*
X126089348Y-71299604D01*
X126076511Y-71378508D01*
X126064499Y-71457781D01*
X126053357Y-71537161D01*
X126043131Y-71616387D01*
X126033867Y-71695198D01*
X126025609Y-71773333D01*
X126018403Y-71850530D01*
X126012294Y-71926529D01*
X126011644Y-71935390D01*
X126010138Y-71956121D01*
X126008866Y-71974019D01*
X126007820Y-71989197D01*
X126006993Y-72001769D01*
X126006378Y-72011847D01*
X126005968Y-72019545D01*
X126005757Y-72024975D01*
X126005736Y-72028252D01*
X125780196Y-72028252D01*
X125783230Y-71976960D01*
X125788609Y-71900255D01*
X125794808Y-71824334D01*
X125801874Y-71748756D01*
X125809855Y-71673079D01*
X125818801Y-71596862D01*
X125828760Y-71519664D01*
X125839779Y-71441042D01*
X125851908Y-71360557D01*
X125865195Y-71277766D01*
X125874432Y-71223007D01*
X125891454Y-71127899D01*
X125909261Y-71035564D01*
X125927850Y-70946011D01*
X125947219Y-70859246D01*
X125967364Y-70775277D01*
X125988284Y-70694114D01*
X126009976Y-70615763D01*
X126032437Y-70540232D01*
X126055665Y-70467529D01*
X126079656Y-70397663D01*
X126104410Y-70330641D01*
X126129922Y-70266470D01*
X126156191Y-70205159D01*
X126183214Y-70146716D01*
X126210988Y-70091149D01*
X126239511Y-70038465D01*
X126268780Y-69988672D01*
X126298792Y-69941778D01*
X126309948Y-69925360D01*
X126341015Y-69882342D01*
X126372838Y-69842170D01*
X126405409Y-69804851D01*
X126438716Y-69770394D01*
X126472751Y-69738806D01*
X126507505Y-69710096D01*
X126542967Y-69684272D01*
X126579127Y-69661342D01*
X126615977Y-69641315D01*
X126653507Y-69624197D01*
X126691706Y-69609998D01*
X126696371Y-69608473D01*
X126716584Y-69602319D01*
X126736302Y-69597133D01*
X126756397Y-69592721D01*
X126777742Y-69588885D01*
X126801208Y-69585430D01*
X126805552Y-69584928D01*
X126815700Y-69584123D01*
X126828094Y-69583490D01*
X126842247Y-69583027D01*
X126857669Y-69582736D01*
X126873874Y-69582617D01*
X126890373Y-69582668D01*
X126906679Y-69582889D01*
X126922304Y-69583282D01*
X126936759Y-69583845D01*
X126949558Y-69584578D01*
X126960211Y-69585481D01*
X127013271Y-69591882D01*
X127070981Y-69600592D01*
X127130210Y-69611242D01*
X127190633Y-69623756D01*
X127251926Y-69638059D01*
X127313763Y-69654075D01*
X127375819Y-69671727D01*
X127437769Y-69690939D01*
X127499287Y-69711635D01*
X127527145Y-69721504D01*
X127558570Y-69732945D01*
X127589740Y-69744643D01*
X127620872Y-69756691D01*
X127652188Y-69769187D01*
X127683906Y-69782225D01*
X127716246Y-69795902D01*
X127749429Y-69810312D01*
X127783673Y-69825551D01*
X127819198Y-69841714D01*
X127856224Y-69858898D01*
X127894971Y-69877198D01*
X127935658Y-69896709D01*
X127978506Y-69917527D01*
X128023732Y-69939748D01*
X128035542Y-69945574D01*
X128058579Y-69956909D01*
X128079371Y-69967090D01*
X128098212Y-69976258D01*
X128115392Y-69984552D01*
X128131206Y-69992110D01*
X128145944Y-69999072D01*
X128159899Y-70005578D01*
X128173362Y-70011766D01*
X128186627Y-70017776D01*
X128199986Y-70023747D01*
X128214416Y-70030115D01*
X128275496Y-70056117D01*
X128335464Y-70080096D01*
X128394227Y-70102024D01*
X128451693Y-70121872D01*
X128507766Y-70139612D01*
X128562355Y-70155216D01*
X128615366Y-70168654D01*
X128666705Y-70179899D01*
X128716280Y-70188922D01*
X128763997Y-70195695D01*
X128765365Y-70195859D01*
X128774381Y-70196863D01*
X128782887Y-70197643D01*
X128791469Y-70198226D01*
X128800712Y-70198639D01*
X128811199Y-70198909D01*
X128823517Y-70199063D01*
X128838248Y-70199129D01*
X128847832Y-70199136D01*
X128861122Y-70199067D01*
X128872247Y-70198846D01*
X128881719Y-70198414D01*
X128890054Y-70197709D01*
X128897765Y-70196671D01*
X128905367Y-70195239D01*
X128913373Y-70193351D01*
X128922298Y-70190948D01*
X128932655Y-70187968D01*
X128945056Y-70184182D01*
X128971290Y-70175046D01*
X128996898Y-70164504D01*
X129022050Y-70152434D01*
X129046914Y-70138716D01*
X129071656Y-70123227D01*
X129096446Y-70105848D01*
X129121451Y-70086457D01*
X129146839Y-70064932D01*
X129172779Y-70041153D01*
X129199439Y-70014998D01*
X129226985Y-69986346D01*
X129255588Y-69955077D01*
X129258326Y-69952008D01*
X129270298Y-69938440D01*
X129283834Y-69922873D01*
X129298982Y-69905247D01*
X129315794Y-69885504D01*
X129334319Y-69863585D01*
X129354607Y-69839433D01*
X129376708Y-69812987D01*
X129389489Y-69797669D01*
X129412572Y-69770057D01*
X129433949Y-69744563D01*
X129453739Y-69721046D01*
X129472063Y-69699365D01*
X129489039Y-69679380D01*
X129504789Y-69660952D01*
X129519432Y-69643939D01*
X129533087Y-69628200D01*
X129545875Y-69613597D01*
X129557914Y-69599988D01*
X129569326Y-69587233D01*
X129629330Y-69522560D01*
X129693689Y-69457340D01*
X129759989Y-69394230D01*
X129828104Y-69333338D01*
X129897914Y-69274769D01*
X129969294Y-69218630D01*
X130042121Y-69165027D01*
X130116274Y-69114066D01*
X130141015Y-69097850D01*
X130186067Y-69069326D01*
X130231020Y-69042133D01*
X130275717Y-69016347D01*
X130319998Y-68992042D01*
X130363704Y-68969294D01*
X130406676Y-68948177D01*
X130448753Y-68928765D01*
X130489778Y-68911135D01*
X130529592Y-68895359D01*
X130568034Y-68881514D01*
X130604946Y-68869674D01*
X130640168Y-68859913D01*
X130673542Y-68852307D01*
X130674240Y-68852167D01*
X130719708Y-68844113D01*
X130767280Y-68837666D01*
X130816528Y-68832832D01*
X130867025Y-68829618D01*
X130918343Y-68828031D01*
X130970055Y-68828076D01*
X131021733Y-68829761D01*
X131072951Y-68833092D01*
X131123280Y-68838075D01*
X131172294Y-68844717D01*
X131180805Y-68846060D01*
X131244677Y-68857717D01*
X131306972Y-68871919D01*
X131367725Y-68888682D01*
X131426973Y-68908024D01*
X131484751Y-68929960D01*
X131541094Y-68954507D01*
X131596040Y-68981682D01*
X131649624Y-69011502D01*
X131701882Y-69043982D01*
X131752850Y-69079139D01*
X131802563Y-69116991D01*
X131851058Y-69157553D01*
X131888156Y-69191074D01*
X131931887Y-69233631D01*
X131972796Y-69277050D01*
X132010936Y-69321413D01*
X132046356Y-69366803D01*
X132079108Y-69413300D01*
X132109244Y-69460988D01*
X132136814Y-69509948D01*
X132161870Y-69560261D01*
X132184463Y-69612011D01*
X132204643Y-69665278D01*
X132222464Y-69720145D01*
X132237975Y-69776694D01*
X132246579Y-69813314D01*
X132257504Y-69868846D01*
X132266007Y-69925001D01*
X132272078Y-69981844D01*
X132275713Y-70039442D01*
X132276903Y-70097860D01*
X132276894Y-70098263D01*
X132275642Y-70157165D01*
X132271922Y-70217422D01*
G37*
%TD*%
D10*
%TO.C,U1*%
X136525000Y-83343750D03*
X136525000Y-80803750D03*
X136525000Y-70643750D03*
X136525000Y-68103750D03*
X121285000Y-60483750D03*
X121285000Y-80803750D03*
X121285000Y-85883750D03*
X121285000Y-88423750D03*
%TD*%
M02*
