%TF.GenerationSoftware,KiCad,Pcbnew,(6.0.7-1)-1*%
%TF.CreationDate,2022-12-25T16:23:58+07:00*%
%TF.ProjectId,pcb,7063622e-6b69-4636-9164-5f7063625858,rev?*%
%TF.SameCoordinates,Original*%
%TF.FileFunction,Profile,NP*%
%FSLAX46Y46*%
G04 Gerber Fmt 4.6, Leading zero omitted, Abs format (unit mm)*
G04 Created by KiCad (PCBNEW (6.0.7-1)-1) date 2022-12-25 16:23:58*
%MOMM*%
%LPD*%
G01*
G04 APERTURE LIST*
%TA.AperFunction,Profile*%
%ADD10C,0.100000*%
%TD*%
G04 APERTURE END LIST*
D10*
X139223750Y-92075000D02*
X139223750Y-49212500D01*
X120173750Y-46037450D02*
G75*
G03*
X118586250Y-47625000I50J-1587550D01*
G01*
X139223700Y-47625000D02*
G75*
G03*
X137636250Y-46037500I-1587500J0D01*
G01*
X118586250Y-49212500D02*
X118586250Y-92075000D01*
X120173750Y-95250000D02*
X137636250Y-95250000D01*
X118586250Y-49212500D02*
X118586250Y-47625000D01*
X139223750Y-92075000D02*
X139223750Y-93662500D01*
X137636250Y-46037500D02*
X120173750Y-46037500D01*
X118586300Y-93662500D02*
G75*
G03*
X120173750Y-95250000I1587500J0D01*
G01*
X118586250Y-92075000D02*
X118586250Y-93662500D01*
X139223750Y-49212500D02*
X139223750Y-47625000D01*
X137636250Y-95250050D02*
G75*
G03*
X139223750Y-93662500I-50J1587550D01*
G01*
%TO.C,LED1*%
X130604999Y-66901591D02*
X130604999Y-65495907D01*
X128110548Y-67698749D02*
X129699452Y-67698749D01*
X129699452Y-64698750D02*
X128110547Y-64698750D01*
X127205001Y-65495907D02*
X127205001Y-66901591D01*
X130654484Y-65279029D02*
G75*
G03*
X129951711Y-64630450I-450514J216879D01*
G01*
X127155516Y-67118469D02*
G75*
G03*
X127205001Y-66901591I-450505J216876D01*
G01*
X130654482Y-65279028D02*
G75*
G03*
X130604999Y-65495907I450548J-216882D01*
G01*
X129699453Y-64698749D02*
G75*
G03*
X129951711Y-64630450I-3J500009D01*
G01*
X129951711Y-67767046D02*
G75*
G03*
X130654484Y-67118469I252258J431700D01*
G01*
X130605009Y-66901592D02*
G75*
G03*
X130654484Y-67118469I499391J-158D01*
G01*
X127858289Y-64630451D02*
G75*
G03*
X128110547Y-64698750I252261J431710D01*
G01*
X127155517Y-67118468D02*
G75*
G03*
X127858289Y-67767048I450513J-216880D01*
G01*
X128110548Y-67698749D02*
G75*
G03*
X127858289Y-67767048I2J-500009D01*
G01*
X129951710Y-67767047D02*
G75*
G03*
X129699452Y-67698749I-252260J-431713D01*
G01*
X127858289Y-64630451D02*
G75*
G03*
X127155516Y-65279029I-252259J-431700D01*
G01*
X127205001Y-65495906D02*
G75*
G03*
X127155516Y-65279029I-499990J1D01*
G01*
%TO.C,LED2*%
X130604999Y-85951591D02*
X130604999Y-84545907D01*
X128110548Y-86748749D02*
X129699452Y-86748749D01*
X129699452Y-83748750D02*
X128110547Y-83748750D01*
X127205001Y-84545907D02*
X127205001Y-85951591D01*
X128110548Y-86748749D02*
G75*
G03*
X127858289Y-86817048I2J-500009D01*
G01*
X127858289Y-83680451D02*
G75*
G03*
X128110547Y-83748750I252261J431710D01*
G01*
X130654482Y-84329028D02*
G75*
G03*
X130604999Y-84545907I450548J-216882D01*
G01*
X127858289Y-83680451D02*
G75*
G03*
X127155516Y-84329029I-252259J-431700D01*
G01*
X129951711Y-86817046D02*
G75*
G03*
X130654484Y-86168469I252258J431700D01*
G01*
X129951710Y-86817047D02*
G75*
G03*
X129699452Y-86748749I-252260J-431713D01*
G01*
X130654484Y-84329029D02*
G75*
G03*
X129951711Y-83680450I-450514J216879D01*
G01*
X130605009Y-85951592D02*
G75*
G03*
X130654484Y-86168469I499391J-158D01*
G01*
X127155517Y-86168468D02*
G75*
G03*
X127858289Y-86817048I450513J-216880D01*
G01*
X127205001Y-84545906D02*
G75*
G03*
X127155516Y-84329029I-499990J1D01*
G01*
X129699453Y-83748749D02*
G75*
G03*
X129951711Y-83680450I-3J500009D01*
G01*
X127155516Y-86168469D02*
G75*
G03*
X127205001Y-85951591I-450505J216876D01*
G01*
%TD*%
M02*
