%TF.GenerationSoftware,KiCad,Pcbnew,(6.0.7-1)-1*%
%TF.CreationDate,2022-12-25T16:24:31+07:00*%
%TF.ProjectId,pcb,7063622e-6b69-4636-9164-5f7063625858,rev?*%
%TF.SameCoordinates,Original*%
%TF.FileFunction,Drillmap*%
%TF.FilePolarity,Positive*%
%FSLAX45Y45*%
G04 Gerber Fmt 4.5, Leading zero omitted, Abs format (unit mm)*
G04 Created by KiCad (PCBNEW (6.0.7-1)-1) date 2022-12-25 16:24:31*
%MOMM*%
%LPD*%
G01*
G04 APERTURE LIST*
%ADD10C,0.100000*%
%ADD11C,0.200000*%
%ADD12C,0.175000*%
%ADD13C,0.398780*%
G04 APERTURE END LIST*
D10*
X13922375Y-9207500D02*
X13922375Y-4921250D01*
X12017375Y-4603745D02*
G75*
G03*
X11858625Y-4762500I5J-158755D01*
G01*
X13922370Y-4762500D02*
G75*
G03*
X13763625Y-4603750I-158750J0D01*
G01*
X11858625Y-4921250D02*
X11858625Y-9207500D01*
X12017375Y-9525000D02*
X13763625Y-9525000D01*
X11858625Y-4921250D02*
X11858625Y-4762500D01*
X13922375Y-9207500D02*
X13922375Y-9366250D01*
X13763625Y-4603750D02*
X12017375Y-4603750D01*
X11858630Y-9366250D02*
G75*
G03*
X12017375Y-9525000I158750J0D01*
G01*
X11858625Y-9207500D02*
X11858625Y-9366250D01*
X13922375Y-4921250D02*
X13922375Y-4762500D01*
X13763625Y-9525005D02*
G75*
G03*
X13922375Y-9366250I-5J158755D01*
G01*
D11*
D12*
X12803000Y-5516375D02*
X12978000Y-5691375D01*
X12978000Y-5516375D02*
X12803000Y-5691375D01*
X12803000Y-6532375D02*
X12978000Y-6707375D01*
X12978000Y-6532375D02*
X12803000Y-6707375D01*
X12803000Y-7421375D02*
X12978000Y-7596375D01*
X12978000Y-7421375D02*
X12803000Y-7596375D01*
X12803000Y-8437375D02*
X12978000Y-8612375D01*
X12978000Y-8437375D02*
X12803000Y-8612375D01*
D13*
X13089890Y-6111875D02*
G75*
G03*
X13089890Y-6111875I-199390J0D01*
G01*
X13089890Y-8016875D02*
G75*
G03*
X13089890Y-8016875I-199390J0D01*
G01*
D11*
X12111244Y-9840476D02*
X12111244Y-9640476D01*
X12158863Y-9640476D01*
X12187434Y-9650000D01*
X12206482Y-9669048D01*
X12216006Y-9688095D01*
X12225530Y-9726190D01*
X12225530Y-9754762D01*
X12216006Y-9792857D01*
X12206482Y-9811905D01*
X12187434Y-9830952D01*
X12158863Y-9840476D01*
X12111244Y-9840476D01*
X12311244Y-9840476D02*
X12311244Y-9707143D01*
X12311244Y-9745238D02*
X12320768Y-9726190D01*
X12330292Y-9716667D01*
X12349339Y-9707143D01*
X12368387Y-9707143D01*
X12435053Y-9840476D02*
X12435053Y-9707143D01*
X12435053Y-9640476D02*
X12425530Y-9650000D01*
X12435053Y-9659524D01*
X12444577Y-9650000D01*
X12435053Y-9640476D01*
X12435053Y-9659524D01*
X12558863Y-9840476D02*
X12539815Y-9830952D01*
X12530292Y-9811905D01*
X12530292Y-9640476D01*
X12663625Y-9840476D02*
X12644577Y-9830952D01*
X12635053Y-9811905D01*
X12635053Y-9640476D01*
X12892196Y-9840476D02*
X12892196Y-9640476D01*
X12958863Y-9783333D01*
X13025530Y-9640476D01*
X13025530Y-9840476D01*
X13206482Y-9840476D02*
X13206482Y-9735714D01*
X13196958Y-9716667D01*
X13177911Y-9707143D01*
X13139815Y-9707143D01*
X13120768Y-9716667D01*
X13206482Y-9830952D02*
X13187434Y-9840476D01*
X13139815Y-9840476D01*
X13120768Y-9830952D01*
X13111244Y-9811905D01*
X13111244Y-9792857D01*
X13120768Y-9773810D01*
X13139815Y-9764286D01*
X13187434Y-9764286D01*
X13206482Y-9754762D01*
X13301720Y-9707143D02*
X13301720Y-9907143D01*
X13301720Y-9716667D02*
X13320768Y-9707143D01*
X13358863Y-9707143D01*
X13377911Y-9716667D01*
X13387434Y-9726190D01*
X13396958Y-9745238D01*
X13396958Y-9802381D01*
X13387434Y-9821429D01*
X13377911Y-9830952D01*
X13358863Y-9840476D01*
X13320768Y-9840476D01*
X13301720Y-9830952D01*
X13482673Y-9821429D02*
X13492196Y-9830952D01*
X13482673Y-9840476D01*
X13473149Y-9830952D01*
X13482673Y-9821429D01*
X13482673Y-9840476D01*
X13482673Y-9716667D02*
X13492196Y-9726190D01*
X13482673Y-9735714D01*
X13473149Y-9726190D01*
X13482673Y-9716667D01*
X13482673Y-9735714D01*
D12*
X11678625Y-10082500D02*
X11853625Y-10257500D01*
X11853625Y-10082500D02*
X11678625Y-10257500D01*
D11*
X12216006Y-10260476D02*
X12101720Y-10260476D01*
X12158863Y-10260476D02*
X12158863Y-10060476D01*
X12139815Y-10089048D01*
X12120768Y-10108095D01*
X12101720Y-10117619D01*
X12301720Y-10241429D02*
X12311244Y-10250952D01*
X12301720Y-10260476D01*
X12292196Y-10250952D01*
X12301720Y-10241429D01*
X12301720Y-10260476D01*
X12377911Y-10060476D02*
X12511244Y-10060476D01*
X12425530Y-10260476D01*
X12682673Y-10060476D02*
X12587434Y-10060476D01*
X12577911Y-10155714D01*
X12587434Y-10146190D01*
X12606482Y-10136667D01*
X12654101Y-10136667D01*
X12673149Y-10146190D01*
X12682673Y-10155714D01*
X12692196Y-10174762D01*
X12692196Y-10222381D01*
X12682673Y-10241429D01*
X12673149Y-10250952D01*
X12654101Y-10260476D01*
X12606482Y-10260476D01*
X12587434Y-10250952D01*
X12577911Y-10241429D01*
X12816006Y-10060476D02*
X12835053Y-10060476D01*
X12854101Y-10070000D01*
X12863625Y-10079524D01*
X12873149Y-10098571D01*
X12882673Y-10136667D01*
X12882673Y-10184286D01*
X12873149Y-10222381D01*
X12863625Y-10241429D01*
X12854101Y-10250952D01*
X12835053Y-10260476D01*
X12816006Y-10260476D01*
X12796958Y-10250952D01*
X12787434Y-10241429D01*
X12777911Y-10222381D01*
X12768387Y-10184286D01*
X12768387Y-10136667D01*
X12777911Y-10098571D01*
X12787434Y-10079524D01*
X12796958Y-10070000D01*
X12816006Y-10060476D01*
X12968387Y-10260476D02*
X12968387Y-10127143D01*
X12968387Y-10146190D02*
X12977911Y-10136667D01*
X12996958Y-10127143D01*
X13025530Y-10127143D01*
X13044577Y-10136667D01*
X13054101Y-10155714D01*
X13054101Y-10260476D01*
X13054101Y-10155714D02*
X13063625Y-10136667D01*
X13082673Y-10127143D01*
X13111244Y-10127143D01*
X13130292Y-10136667D01*
X13139815Y-10155714D01*
X13139815Y-10260476D01*
X13235053Y-10260476D02*
X13235053Y-10127143D01*
X13235053Y-10146190D02*
X13244577Y-10136667D01*
X13263625Y-10127143D01*
X13292196Y-10127143D01*
X13311244Y-10136667D01*
X13320768Y-10155714D01*
X13320768Y-10260476D01*
X13320768Y-10155714D02*
X13330292Y-10136667D01*
X13349339Y-10127143D01*
X13377911Y-10127143D01*
X13396958Y-10136667D01*
X13406482Y-10155714D01*
X13406482Y-10260476D01*
X13796958Y-10050952D02*
X13625530Y-10308095D01*
X14054101Y-10060476D02*
X14073149Y-10060476D01*
X14092196Y-10070000D01*
X14101720Y-10079524D01*
X14111244Y-10098571D01*
X14120768Y-10136667D01*
X14120768Y-10184286D01*
X14111244Y-10222381D01*
X14101720Y-10241429D01*
X14092196Y-10250952D01*
X14073149Y-10260476D01*
X14054101Y-10260476D01*
X14035053Y-10250952D01*
X14025530Y-10241429D01*
X14016006Y-10222381D01*
X14006482Y-10184286D01*
X14006482Y-10136667D01*
X14016006Y-10098571D01*
X14025530Y-10079524D01*
X14035053Y-10070000D01*
X14054101Y-10060476D01*
X14206482Y-10241429D02*
X14216006Y-10250952D01*
X14206482Y-10260476D01*
X14196958Y-10250952D01*
X14206482Y-10241429D01*
X14206482Y-10260476D01*
X14339815Y-10060476D02*
X14358863Y-10060476D01*
X14377911Y-10070000D01*
X14387434Y-10079524D01*
X14396958Y-10098571D01*
X14406482Y-10136667D01*
X14406482Y-10184286D01*
X14396958Y-10222381D01*
X14387434Y-10241429D01*
X14377911Y-10250952D01*
X14358863Y-10260476D01*
X14339815Y-10260476D01*
X14320768Y-10250952D01*
X14311244Y-10241429D01*
X14301720Y-10222381D01*
X14292196Y-10184286D01*
X14292196Y-10136667D01*
X14301720Y-10098571D01*
X14311244Y-10079524D01*
X14320768Y-10070000D01*
X14339815Y-10060476D01*
X14577911Y-10060476D02*
X14539815Y-10060476D01*
X14520768Y-10070000D01*
X14511244Y-10079524D01*
X14492196Y-10108095D01*
X14482673Y-10146190D01*
X14482673Y-10222381D01*
X14492196Y-10241429D01*
X14501720Y-10250952D01*
X14520768Y-10260476D01*
X14558863Y-10260476D01*
X14577911Y-10250952D01*
X14587434Y-10241429D01*
X14596958Y-10222381D01*
X14596958Y-10174762D01*
X14587434Y-10155714D01*
X14577911Y-10146190D01*
X14558863Y-10136667D01*
X14520768Y-10136667D01*
X14501720Y-10146190D01*
X14492196Y-10155714D01*
X14482673Y-10174762D01*
X14711244Y-10146190D02*
X14692196Y-10136667D01*
X14682673Y-10127143D01*
X14673149Y-10108095D01*
X14673149Y-10098571D01*
X14682673Y-10079524D01*
X14692196Y-10070000D01*
X14711244Y-10060476D01*
X14749339Y-10060476D01*
X14768387Y-10070000D01*
X14777911Y-10079524D01*
X14787434Y-10098571D01*
X14787434Y-10108095D01*
X14777911Y-10127143D01*
X14768387Y-10136667D01*
X14749339Y-10146190D01*
X14711244Y-10146190D01*
X14692196Y-10155714D01*
X14682673Y-10165238D01*
X14673149Y-10184286D01*
X14673149Y-10222381D01*
X14682673Y-10241429D01*
X14692196Y-10250952D01*
X14711244Y-10260476D01*
X14749339Y-10260476D01*
X14768387Y-10250952D01*
X14777911Y-10241429D01*
X14787434Y-10222381D01*
X14787434Y-10184286D01*
X14777911Y-10165238D01*
X14768387Y-10155714D01*
X14749339Y-10146190D01*
X14882673Y-10260476D02*
X14920768Y-10260476D01*
X14939815Y-10250952D01*
X14949339Y-10241429D01*
X14968387Y-10212857D01*
X14977911Y-10174762D01*
X14977911Y-10098571D01*
X14968387Y-10079524D01*
X14958863Y-10070000D01*
X14939815Y-10060476D01*
X14901720Y-10060476D01*
X14882673Y-10070000D01*
X14873149Y-10079524D01*
X14863625Y-10098571D01*
X14863625Y-10146190D01*
X14873149Y-10165238D01*
X14882673Y-10174762D01*
X14901720Y-10184286D01*
X14939815Y-10184286D01*
X14958863Y-10174762D01*
X14968387Y-10165238D01*
X14977911Y-10146190D01*
X15054101Y-10060476D02*
X15054101Y-10098571D01*
X15130292Y-10060476D02*
X15130292Y-10098571D01*
X15425530Y-10336667D02*
X15416006Y-10327143D01*
X15396958Y-10298571D01*
X15387434Y-10279524D01*
X15377911Y-10250952D01*
X15368387Y-10203333D01*
X15368387Y-10165238D01*
X15377911Y-10117619D01*
X15387434Y-10089048D01*
X15396958Y-10070000D01*
X15416006Y-10041429D01*
X15425530Y-10031905D01*
X15587434Y-10127143D02*
X15587434Y-10260476D01*
X15539815Y-10050952D02*
X15492196Y-10193810D01*
X15616006Y-10193810D01*
X15844577Y-10260476D02*
X15844577Y-10060476D01*
X15930292Y-10260476D02*
X15930292Y-10155714D01*
X15920768Y-10136667D01*
X15901720Y-10127143D01*
X15873149Y-10127143D01*
X15854101Y-10136667D01*
X15844577Y-10146190D01*
X16054101Y-10260476D02*
X16035053Y-10250952D01*
X16025530Y-10241429D01*
X16016006Y-10222381D01*
X16016006Y-10165238D01*
X16025530Y-10146190D01*
X16035053Y-10136667D01*
X16054101Y-10127143D01*
X16082673Y-10127143D01*
X16101720Y-10136667D01*
X16111244Y-10146190D01*
X16120768Y-10165238D01*
X16120768Y-10222381D01*
X16111244Y-10241429D01*
X16101720Y-10250952D01*
X16082673Y-10260476D01*
X16054101Y-10260476D01*
X16235053Y-10260476D02*
X16216006Y-10250952D01*
X16206482Y-10231905D01*
X16206482Y-10060476D01*
X16387434Y-10250952D02*
X16368387Y-10260476D01*
X16330292Y-10260476D01*
X16311244Y-10250952D01*
X16301720Y-10231905D01*
X16301720Y-10155714D01*
X16311244Y-10136667D01*
X16330292Y-10127143D01*
X16368387Y-10127143D01*
X16387434Y-10136667D01*
X16396958Y-10155714D01*
X16396958Y-10174762D01*
X16301720Y-10193810D01*
X16473149Y-10250952D02*
X16492196Y-10260476D01*
X16530292Y-10260476D01*
X16549339Y-10250952D01*
X16558863Y-10231905D01*
X16558863Y-10222381D01*
X16549339Y-10203333D01*
X16530292Y-10193810D01*
X16501720Y-10193810D01*
X16482673Y-10184286D01*
X16473149Y-10165238D01*
X16473149Y-10155714D01*
X16482673Y-10136667D01*
X16501720Y-10127143D01*
X16530292Y-10127143D01*
X16549339Y-10136667D01*
X16625530Y-10336667D02*
X16635053Y-10327143D01*
X16654101Y-10298571D01*
X16663625Y-10279524D01*
X16673149Y-10250952D01*
X16682673Y-10203333D01*
X16682673Y-10165238D01*
X16673149Y-10117619D01*
X16663625Y-10089048D01*
X16654101Y-10070000D01*
X16635053Y-10041429D01*
X16625530Y-10031905D01*
X16987435Y-10336667D02*
X16977911Y-10327143D01*
X16958863Y-10298571D01*
X16949339Y-10279524D01*
X16939815Y-10250952D01*
X16930292Y-10203333D01*
X16930292Y-10165238D01*
X16939815Y-10117619D01*
X16949339Y-10089048D01*
X16958863Y-10070000D01*
X16977911Y-10041429D01*
X16987435Y-10031905D01*
X17063625Y-10127143D02*
X17063625Y-10260476D01*
X17063625Y-10146190D02*
X17073149Y-10136667D01*
X17092196Y-10127143D01*
X17120768Y-10127143D01*
X17139815Y-10136667D01*
X17149339Y-10155714D01*
X17149339Y-10260476D01*
X17273149Y-10260476D02*
X17254101Y-10250952D01*
X17244577Y-10241429D01*
X17235054Y-10222381D01*
X17235054Y-10165238D01*
X17244577Y-10146190D01*
X17254101Y-10136667D01*
X17273149Y-10127143D01*
X17301720Y-10127143D01*
X17320768Y-10136667D01*
X17330292Y-10146190D01*
X17339815Y-10165238D01*
X17339815Y-10222381D01*
X17330292Y-10241429D01*
X17320768Y-10250952D01*
X17301720Y-10260476D01*
X17273149Y-10260476D01*
X17396958Y-10127143D02*
X17473149Y-10127143D01*
X17425530Y-10060476D02*
X17425530Y-10231905D01*
X17435054Y-10250952D01*
X17454101Y-10260476D01*
X17473149Y-10260476D01*
X17692196Y-10127143D02*
X17692196Y-10327143D01*
X17692196Y-10136667D02*
X17711244Y-10127143D01*
X17749339Y-10127143D01*
X17768387Y-10136667D01*
X17777911Y-10146190D01*
X17787435Y-10165238D01*
X17787435Y-10222381D01*
X17777911Y-10241429D01*
X17768387Y-10250952D01*
X17749339Y-10260476D01*
X17711244Y-10260476D01*
X17692196Y-10250952D01*
X17901720Y-10260476D02*
X17882673Y-10250952D01*
X17873149Y-10231905D01*
X17873149Y-10060476D01*
X18063625Y-10260476D02*
X18063625Y-10155714D01*
X18054101Y-10136667D01*
X18035054Y-10127143D01*
X17996958Y-10127143D01*
X17977911Y-10136667D01*
X18063625Y-10250952D02*
X18044577Y-10260476D01*
X17996958Y-10260476D01*
X17977911Y-10250952D01*
X17968387Y-10231905D01*
X17968387Y-10212857D01*
X17977911Y-10193810D01*
X17996958Y-10184286D01*
X18044577Y-10184286D01*
X18063625Y-10174762D01*
X18130292Y-10127143D02*
X18206482Y-10127143D01*
X18158863Y-10060476D02*
X18158863Y-10231905D01*
X18168387Y-10250952D01*
X18187435Y-10260476D01*
X18206482Y-10260476D01*
X18349339Y-10250952D02*
X18330292Y-10260476D01*
X18292196Y-10260476D01*
X18273149Y-10250952D01*
X18263625Y-10231905D01*
X18263625Y-10155714D01*
X18273149Y-10136667D01*
X18292196Y-10127143D01*
X18330292Y-10127143D01*
X18349339Y-10136667D01*
X18358863Y-10155714D01*
X18358863Y-10174762D01*
X18263625Y-10193810D01*
X18530292Y-10260476D02*
X18530292Y-10060476D01*
X18530292Y-10250952D02*
X18511244Y-10260476D01*
X18473149Y-10260476D01*
X18454101Y-10250952D01*
X18444577Y-10241429D01*
X18435054Y-10222381D01*
X18435054Y-10165238D01*
X18444577Y-10146190D01*
X18454101Y-10136667D01*
X18473149Y-10127143D01*
X18511244Y-10127143D01*
X18530292Y-10136667D01*
X18606482Y-10336667D02*
X18616006Y-10327143D01*
X18635054Y-10298571D01*
X18644577Y-10279524D01*
X18654101Y-10250952D01*
X18663625Y-10203333D01*
X18663625Y-10165238D01*
X18654101Y-10117619D01*
X18644577Y-10089048D01*
X18635054Y-10070000D01*
X18616006Y-10041429D01*
X18606482Y-10031905D01*
X11853625Y-10465000D02*
G75*
G03*
X11853625Y-10465000I-100000J0D01*
G01*
X12092196Y-10355476D02*
X12216006Y-10355476D01*
X12149339Y-10431667D01*
X12177911Y-10431667D01*
X12196958Y-10441190D01*
X12206482Y-10450714D01*
X12216006Y-10469762D01*
X12216006Y-10517381D01*
X12206482Y-10536429D01*
X12196958Y-10545952D01*
X12177911Y-10555476D01*
X12120768Y-10555476D01*
X12101720Y-10545952D01*
X12092196Y-10536429D01*
X12301720Y-10536429D02*
X12311244Y-10545952D01*
X12301720Y-10555476D01*
X12292196Y-10545952D01*
X12301720Y-10536429D01*
X12301720Y-10555476D01*
X12406482Y-10555476D02*
X12444577Y-10555476D01*
X12463625Y-10545952D01*
X12473149Y-10536429D01*
X12492196Y-10507857D01*
X12501720Y-10469762D01*
X12501720Y-10393571D01*
X12492196Y-10374524D01*
X12482673Y-10365000D01*
X12463625Y-10355476D01*
X12425530Y-10355476D01*
X12406482Y-10365000D01*
X12396958Y-10374524D01*
X12387434Y-10393571D01*
X12387434Y-10441190D01*
X12396958Y-10460238D01*
X12406482Y-10469762D01*
X12425530Y-10479286D01*
X12463625Y-10479286D01*
X12482673Y-10469762D01*
X12492196Y-10460238D01*
X12501720Y-10441190D01*
X12616006Y-10441190D02*
X12596958Y-10431667D01*
X12587434Y-10422143D01*
X12577911Y-10403095D01*
X12577911Y-10393571D01*
X12587434Y-10374524D01*
X12596958Y-10365000D01*
X12616006Y-10355476D01*
X12654101Y-10355476D01*
X12673149Y-10365000D01*
X12682673Y-10374524D01*
X12692196Y-10393571D01*
X12692196Y-10403095D01*
X12682673Y-10422143D01*
X12673149Y-10431667D01*
X12654101Y-10441190D01*
X12616006Y-10441190D01*
X12596958Y-10450714D01*
X12587434Y-10460238D01*
X12577911Y-10479286D01*
X12577911Y-10517381D01*
X12587434Y-10536429D01*
X12596958Y-10545952D01*
X12616006Y-10555476D01*
X12654101Y-10555476D01*
X12673149Y-10545952D01*
X12682673Y-10536429D01*
X12692196Y-10517381D01*
X12692196Y-10479286D01*
X12682673Y-10460238D01*
X12673149Y-10450714D01*
X12654101Y-10441190D01*
X12806482Y-10441190D02*
X12787434Y-10431667D01*
X12777911Y-10422143D01*
X12768387Y-10403095D01*
X12768387Y-10393571D01*
X12777911Y-10374524D01*
X12787434Y-10365000D01*
X12806482Y-10355476D01*
X12844577Y-10355476D01*
X12863625Y-10365000D01*
X12873149Y-10374524D01*
X12882673Y-10393571D01*
X12882673Y-10403095D01*
X12873149Y-10422143D01*
X12863625Y-10431667D01*
X12844577Y-10441190D01*
X12806482Y-10441190D01*
X12787434Y-10450714D01*
X12777911Y-10460238D01*
X12768387Y-10479286D01*
X12768387Y-10517381D01*
X12777911Y-10536429D01*
X12787434Y-10545952D01*
X12806482Y-10555476D01*
X12844577Y-10555476D01*
X12863625Y-10545952D01*
X12873149Y-10536429D01*
X12882673Y-10517381D01*
X12882673Y-10479286D01*
X12873149Y-10460238D01*
X12863625Y-10450714D01*
X12844577Y-10441190D01*
X12968387Y-10555476D02*
X12968387Y-10422143D01*
X12968387Y-10441190D02*
X12977911Y-10431667D01*
X12996958Y-10422143D01*
X13025530Y-10422143D01*
X13044577Y-10431667D01*
X13054101Y-10450714D01*
X13054101Y-10555476D01*
X13054101Y-10450714D02*
X13063625Y-10431667D01*
X13082673Y-10422143D01*
X13111244Y-10422143D01*
X13130292Y-10431667D01*
X13139815Y-10450714D01*
X13139815Y-10555476D01*
X13235053Y-10555476D02*
X13235053Y-10422143D01*
X13235053Y-10441190D02*
X13244577Y-10431667D01*
X13263625Y-10422143D01*
X13292196Y-10422143D01*
X13311244Y-10431667D01*
X13320768Y-10450714D01*
X13320768Y-10555476D01*
X13320768Y-10450714D02*
X13330292Y-10431667D01*
X13349339Y-10422143D01*
X13377911Y-10422143D01*
X13396958Y-10431667D01*
X13406482Y-10450714D01*
X13406482Y-10555476D01*
X13796958Y-10345952D02*
X13625530Y-10603095D01*
X14054101Y-10355476D02*
X14073149Y-10355476D01*
X14092196Y-10365000D01*
X14101720Y-10374524D01*
X14111244Y-10393571D01*
X14120768Y-10431667D01*
X14120768Y-10479286D01*
X14111244Y-10517381D01*
X14101720Y-10536429D01*
X14092196Y-10545952D01*
X14073149Y-10555476D01*
X14054101Y-10555476D01*
X14035053Y-10545952D01*
X14025530Y-10536429D01*
X14016006Y-10517381D01*
X14006482Y-10479286D01*
X14006482Y-10431667D01*
X14016006Y-10393571D01*
X14025530Y-10374524D01*
X14035053Y-10365000D01*
X14054101Y-10355476D01*
X14206482Y-10536429D02*
X14216006Y-10545952D01*
X14206482Y-10555476D01*
X14196958Y-10545952D01*
X14206482Y-10536429D01*
X14206482Y-10555476D01*
X14406482Y-10555476D02*
X14292196Y-10555476D01*
X14349339Y-10555476D02*
X14349339Y-10355476D01*
X14330292Y-10384048D01*
X14311244Y-10403095D01*
X14292196Y-10412619D01*
X14587434Y-10355476D02*
X14492196Y-10355476D01*
X14482673Y-10450714D01*
X14492196Y-10441190D01*
X14511244Y-10431667D01*
X14558863Y-10431667D01*
X14577911Y-10441190D01*
X14587434Y-10450714D01*
X14596958Y-10469762D01*
X14596958Y-10517381D01*
X14587434Y-10536429D01*
X14577911Y-10545952D01*
X14558863Y-10555476D01*
X14511244Y-10555476D01*
X14492196Y-10545952D01*
X14482673Y-10536429D01*
X14663625Y-10355476D02*
X14796958Y-10355476D01*
X14711244Y-10555476D01*
X14911244Y-10355476D02*
X14930292Y-10355476D01*
X14949339Y-10365000D01*
X14958863Y-10374524D01*
X14968387Y-10393571D01*
X14977911Y-10431667D01*
X14977911Y-10479286D01*
X14968387Y-10517381D01*
X14958863Y-10536429D01*
X14949339Y-10545952D01*
X14930292Y-10555476D01*
X14911244Y-10555476D01*
X14892196Y-10545952D01*
X14882673Y-10536429D01*
X14873149Y-10517381D01*
X14863625Y-10479286D01*
X14863625Y-10431667D01*
X14873149Y-10393571D01*
X14882673Y-10374524D01*
X14892196Y-10365000D01*
X14911244Y-10355476D01*
X15054101Y-10355476D02*
X15054101Y-10393571D01*
X15130292Y-10355476D02*
X15130292Y-10393571D01*
X15425530Y-10631667D02*
X15416006Y-10622143D01*
X15396958Y-10593571D01*
X15387434Y-10574524D01*
X15377911Y-10545952D01*
X15368387Y-10498333D01*
X15368387Y-10460238D01*
X15377911Y-10412619D01*
X15387434Y-10384048D01*
X15396958Y-10365000D01*
X15416006Y-10336429D01*
X15425530Y-10326905D01*
X15492196Y-10374524D02*
X15501720Y-10365000D01*
X15520768Y-10355476D01*
X15568387Y-10355476D01*
X15587434Y-10365000D01*
X15596958Y-10374524D01*
X15606482Y-10393571D01*
X15606482Y-10412619D01*
X15596958Y-10441190D01*
X15482673Y-10555476D01*
X15606482Y-10555476D01*
X15844577Y-10555476D02*
X15844577Y-10355476D01*
X15930292Y-10555476D02*
X15930292Y-10450714D01*
X15920768Y-10431667D01*
X15901720Y-10422143D01*
X15873149Y-10422143D01*
X15854101Y-10431667D01*
X15844577Y-10441190D01*
X16054101Y-10555476D02*
X16035053Y-10545952D01*
X16025530Y-10536429D01*
X16016006Y-10517381D01*
X16016006Y-10460238D01*
X16025530Y-10441190D01*
X16035053Y-10431667D01*
X16054101Y-10422143D01*
X16082673Y-10422143D01*
X16101720Y-10431667D01*
X16111244Y-10441190D01*
X16120768Y-10460238D01*
X16120768Y-10517381D01*
X16111244Y-10536429D01*
X16101720Y-10545952D01*
X16082673Y-10555476D01*
X16054101Y-10555476D01*
X16235053Y-10555476D02*
X16216006Y-10545952D01*
X16206482Y-10526905D01*
X16206482Y-10355476D01*
X16387434Y-10545952D02*
X16368387Y-10555476D01*
X16330292Y-10555476D01*
X16311244Y-10545952D01*
X16301720Y-10526905D01*
X16301720Y-10450714D01*
X16311244Y-10431667D01*
X16330292Y-10422143D01*
X16368387Y-10422143D01*
X16387434Y-10431667D01*
X16396958Y-10450714D01*
X16396958Y-10469762D01*
X16301720Y-10488810D01*
X16473149Y-10545952D02*
X16492196Y-10555476D01*
X16530292Y-10555476D01*
X16549339Y-10545952D01*
X16558863Y-10526905D01*
X16558863Y-10517381D01*
X16549339Y-10498333D01*
X16530292Y-10488810D01*
X16501720Y-10488810D01*
X16482673Y-10479286D01*
X16473149Y-10460238D01*
X16473149Y-10450714D01*
X16482673Y-10431667D01*
X16501720Y-10422143D01*
X16530292Y-10422143D01*
X16549339Y-10431667D01*
X16625530Y-10631667D02*
X16635053Y-10622143D01*
X16654101Y-10593571D01*
X16663625Y-10574524D01*
X16673149Y-10545952D01*
X16682673Y-10498333D01*
X16682673Y-10460238D01*
X16673149Y-10412619D01*
X16663625Y-10384048D01*
X16654101Y-10365000D01*
X16635053Y-10336429D01*
X16625530Y-10326905D01*
X16987435Y-10631667D02*
X16977911Y-10622143D01*
X16958863Y-10593571D01*
X16949339Y-10574524D01*
X16939815Y-10545952D01*
X16930292Y-10498333D01*
X16930292Y-10460238D01*
X16939815Y-10412619D01*
X16949339Y-10384048D01*
X16958863Y-10365000D01*
X16977911Y-10336429D01*
X16987435Y-10326905D01*
X17063625Y-10422143D02*
X17063625Y-10555476D01*
X17063625Y-10441190D02*
X17073149Y-10431667D01*
X17092196Y-10422143D01*
X17120768Y-10422143D01*
X17139815Y-10431667D01*
X17149339Y-10450714D01*
X17149339Y-10555476D01*
X17273149Y-10555476D02*
X17254101Y-10545952D01*
X17244577Y-10536429D01*
X17235054Y-10517381D01*
X17235054Y-10460238D01*
X17244577Y-10441190D01*
X17254101Y-10431667D01*
X17273149Y-10422143D01*
X17301720Y-10422143D01*
X17320768Y-10431667D01*
X17330292Y-10441190D01*
X17339815Y-10460238D01*
X17339815Y-10517381D01*
X17330292Y-10536429D01*
X17320768Y-10545952D01*
X17301720Y-10555476D01*
X17273149Y-10555476D01*
X17396958Y-10422143D02*
X17473149Y-10422143D01*
X17425530Y-10355476D02*
X17425530Y-10526905D01*
X17435054Y-10545952D01*
X17454101Y-10555476D01*
X17473149Y-10555476D01*
X17692196Y-10422143D02*
X17692196Y-10622143D01*
X17692196Y-10431667D02*
X17711244Y-10422143D01*
X17749339Y-10422143D01*
X17768387Y-10431667D01*
X17777911Y-10441190D01*
X17787435Y-10460238D01*
X17787435Y-10517381D01*
X17777911Y-10536429D01*
X17768387Y-10545952D01*
X17749339Y-10555476D01*
X17711244Y-10555476D01*
X17692196Y-10545952D01*
X17901720Y-10555476D02*
X17882673Y-10545952D01*
X17873149Y-10526905D01*
X17873149Y-10355476D01*
X18063625Y-10555476D02*
X18063625Y-10450714D01*
X18054101Y-10431667D01*
X18035054Y-10422143D01*
X17996958Y-10422143D01*
X17977911Y-10431667D01*
X18063625Y-10545952D02*
X18044577Y-10555476D01*
X17996958Y-10555476D01*
X17977911Y-10545952D01*
X17968387Y-10526905D01*
X17968387Y-10507857D01*
X17977911Y-10488810D01*
X17996958Y-10479286D01*
X18044577Y-10479286D01*
X18063625Y-10469762D01*
X18130292Y-10422143D02*
X18206482Y-10422143D01*
X18158863Y-10355476D02*
X18158863Y-10526905D01*
X18168387Y-10545952D01*
X18187435Y-10555476D01*
X18206482Y-10555476D01*
X18349339Y-10545952D02*
X18330292Y-10555476D01*
X18292196Y-10555476D01*
X18273149Y-10545952D01*
X18263625Y-10526905D01*
X18263625Y-10450714D01*
X18273149Y-10431667D01*
X18292196Y-10422143D01*
X18330292Y-10422143D01*
X18349339Y-10431667D01*
X18358863Y-10450714D01*
X18358863Y-10469762D01*
X18263625Y-10488810D01*
X18530292Y-10555476D02*
X18530292Y-10355476D01*
X18530292Y-10545952D02*
X18511244Y-10555476D01*
X18473149Y-10555476D01*
X18454101Y-10545952D01*
X18444577Y-10536429D01*
X18435054Y-10517381D01*
X18435054Y-10460238D01*
X18444577Y-10441190D01*
X18454101Y-10431667D01*
X18473149Y-10422143D01*
X18511244Y-10422143D01*
X18530292Y-10431667D01*
X18606482Y-10631667D02*
X18616006Y-10622143D01*
X18635054Y-10593571D01*
X18644577Y-10574524D01*
X18654101Y-10545952D01*
X18663625Y-10498333D01*
X18663625Y-10460238D01*
X18654101Y-10412619D01*
X18644577Y-10384048D01*
X18635054Y-10365000D01*
X18616006Y-10336429D01*
X18606482Y-10326905D01*
M02*
