%TF.GenerationSoftware,KiCad,Pcbnew,(6.0.7-1)-1*%
%TF.CreationDate,2022-12-25T16:24:34+07:00*%
%TF.ProjectId,pcb,7063622e-6b69-4636-9164-5f7063625858,rev?*%
%TF.SameCoordinates,Original*%
%TF.FileFunction,Copper,L1,Top*%
%TF.FilePolarity,Positive*%
%FSLAX46Y46*%
G04 Gerber Fmt 4.6, Leading zero omitted, Abs format (unit mm)*
G04 Created by KiCad (PCBNEW (6.0.7-1)-1) date 2022-12-25 16:24:34*
%MOMM*%
%LPD*%
G01*
G04 APERTURE LIST*
G04 Aperture macros list*
%AMRoundRect*
0 Rectangle with rounded corners*
0 $1 Rounding radius*
0 $2 $3 $4 $5 $6 $7 $8 $9 X,Y pos of 4 corners*
0 Add a 4 corners polygon primitive as box body*
4,1,4,$2,$3,$4,$5,$6,$7,$8,$9,$2,$3,0*
0 Add four circle primitives for the rounded corners*
1,1,$1+$1,$2,$3*
1,1,$1+$1,$4,$5*
1,1,$1+$1,$6,$7*
1,1,$1+$1,$8,$9*
0 Add four rect primitives between the rounded corners*
20,1,$1+$1,$2,$3,$4,$5,0*
20,1,$1+$1,$4,$5,$6,$7,0*
20,1,$1+$1,$6,$7,$8,$9,0*
20,1,$1+$1,$8,$9,$2,$3,0*%
%AMFreePoly0*
4,1,18,-0.410000,0.265000,0.000000,0.675000,0.328000,0.675000,0.359380,0.668758,0.385983,0.650983,0.403758,0.624380,0.410000,0.593000,0.410000,-0.593000,0.403758,-0.624380,0.385983,-0.650983,0.359380,-0.668758,0.328000,-0.675000,-0.328000,-0.675000,-0.359380,-0.668758,-0.385983,-0.650983,-0.403758,-0.624380,-0.410000,-0.593000,-0.410000,0.265000,-0.410000,0.265000,$1*%
G04 Aperture macros list end*
%TA.AperFunction,ComponentPad*%
%ADD10C,1.752600*%
%TD*%
%TA.AperFunction,SMDPad,CuDef*%
%ADD11RoundRect,0.250000X-1.000000X1.025000X-1.000000X-1.025000X1.000000X-1.025000X1.000000X1.025000X0*%
%TD*%
%TA.AperFunction,ComponentPad*%
%ADD12C,3.300000*%
%TD*%
%TA.AperFunction,SMDPad,CuDef*%
%ADD13R,2.500000X1.650000*%
%TD*%
%TA.AperFunction,SMDPad,CuDef*%
%ADD14RoundRect,0.082000X-0.328000X-0.593000X0.328000X-0.593000X0.328000X0.593000X-0.328000X0.593000X0*%
%TD*%
%TA.AperFunction,SMDPad,CuDef*%
%ADD15FreePoly0,0.000000*%
%TD*%
%TA.AperFunction,ViaPad*%
%ADD16C,0.800000*%
%TD*%
%TA.AperFunction,Conductor*%
%ADD17C,0.250000*%
%TD*%
G04 APERTURE END LIST*
D10*
%TO.P,U1,3,GND*%
%TO.N,GND*%
X136525000Y-83343750D03*
%TO.P,U1,4,GND*%
X136525000Y-80803750D03*
%TO.P,U1,8,5/PC6*%
%TO.N,sw2*%
X136525000Y-70643750D03*
%TO.P,U1,9,6/PD7*%
%TO.N,sw1*%
X136525000Y-68103750D03*
%TO.P,U1,13,10/PB6*%
%TO.N,led 1*%
X121285000Y-60483750D03*
%TO.P,U1,21,VCC*%
%TO.N,vcc1*%
X121285000Y-80803750D03*
%TO.P,U1,23,GND*%
%TO.N,GND*%
X121285000Y-85883750D03*
%TO.P,U1,24,RAW*%
%TO.N,unconnected-(U1-Pad24)*%
X121285000Y-88423750D03*
%TD*%
D11*
%TO.P,SW2,1,1*%
%TO.N,GND*%
X131445000Y-87528750D03*
D12*
X131445000Y-83978750D03*
D13*
X131445000Y-85803750D03*
D12*
%TO.P,SW2,2,2*%
%TO.N,sw2*%
X133985000Y-77628750D03*
D11*
X133985000Y-74078750D03*
D13*
X133985000Y-75828750D03*
%TD*%
D14*
%TO.P,LED1,1,VDD*%
%TO.N,vcc1*%
X124575000Y-63843750D03*
%TO.P,LED1,2,DOUT*%
%TO.N,led 2*%
X123075000Y-63843750D03*
%TO.P,LED1,3,DIN*%
%TO.N,led 1*%
X124575000Y-58393750D03*
D15*
%TO.P,LED1,4,VSS*%
%TO.N,GND*%
X123075000Y-58393750D03*
%TD*%
D11*
%TO.P,SW1,1,1*%
%TO.N,sw1*%
X131445000Y-68478750D03*
D13*
X131445000Y-66753750D03*
D12*
X131445000Y-64928750D03*
D11*
%TO.P,SW1,2,2*%
%TO.N,GND*%
X133985000Y-55028750D03*
D12*
X133985000Y-58578750D03*
D13*
X133985000Y-56778750D03*
%TD*%
D14*
%TO.P,LED2,1,VDD*%
%TO.N,vcc1*%
X124575000Y-82893750D03*
%TO.P,LED2,2,DOUT*%
%TO.N,unconnected-(LED2-Pad2)*%
X123075000Y-82893750D03*
%TO.P,LED2,3,DIN*%
%TO.N,led 2*%
X124575000Y-77443750D03*
D15*
%TO.P,LED2,4,VSS*%
%TO.N,GND*%
X123075000Y-77443750D03*
%TD*%
D16*
%TO.N,vcc1*%
X124575000Y-65290000D03*
%TO.N,led 1*%
X124575000Y-56991250D03*
%TD*%
D17*
%TO.N,vcc1*%
X124575000Y-82893750D02*
X124575000Y-83705000D01*
X123983750Y-84296250D02*
X121920000Y-84296250D01*
X124575000Y-63843750D02*
X124575000Y-65290000D01*
X121285000Y-83661250D02*
X121285000Y-80803750D01*
X124575000Y-83705000D02*
X123983750Y-84296250D01*
X121920000Y-84296250D02*
X121285000Y-83661250D01*
%TO.N,led 2*%
X124575000Y-77443750D02*
X124575000Y-71393750D01*
X123075000Y-63843750D02*
X123075000Y-69893750D01*
X124575000Y-71393750D02*
X123075000Y-69893750D01*
%TO.N,led 1*%
X124575000Y-58393750D02*
X124575000Y-56991250D01*
%TO.N,sw1*%
X136525000Y-68103750D02*
X134331250Y-68103750D01*
X131445000Y-68478750D02*
X133956250Y-68478750D01*
X133956250Y-68478750D02*
X134331250Y-68103750D01*
%TO.N,sw2*%
X133985000Y-74078750D02*
X133985000Y-70961250D01*
X133985000Y-70961250D02*
X134302500Y-70643750D01*
X134302500Y-70643750D02*
X136525000Y-70643750D01*
%TD*%
%TA.AperFunction,Conductor*%
%TO.N,GND*%
G36*
X137606265Y-46547501D02*
G01*
X137619319Y-46549534D01*
X137629958Y-46551191D01*
X137642635Y-46549534D01*
X137669948Y-46548951D01*
X137759835Y-46556818D01*
X137812614Y-46561437D01*
X137834243Y-46565251D01*
X137994623Y-46608229D01*
X138015245Y-46615735D01*
X138165737Y-46685914D01*
X138184745Y-46696890D01*
X138320754Y-46792128D01*
X138337578Y-46806246D01*
X138454979Y-46923651D01*
X138469096Y-46940476D01*
X138564324Y-47076480D01*
X138575305Y-47095500D01*
X138645464Y-47245957D01*
X138645472Y-47245975D01*
X138652984Y-47266614D01*
X138695954Y-47426987D01*
X138699768Y-47448615D01*
X138711665Y-47584598D01*
X138711118Y-47600872D01*
X138711550Y-47600877D01*
X138711440Y-47609853D01*
X138710059Y-47618724D01*
X138711223Y-47627626D01*
X138711223Y-47627628D01*
X138714186Y-47650283D01*
X138715250Y-47666621D01*
X138715250Y-93613133D01*
X138713750Y-93632518D01*
X138711440Y-93647351D01*
X138711440Y-93647355D01*
X138710059Y-93656224D01*
X138711716Y-93668898D01*
X138712300Y-93696211D01*
X138699816Y-93838893D01*
X138696003Y-93860521D01*
X138653036Y-94020886D01*
X138653031Y-94020903D01*
X138645522Y-94041536D01*
X138575360Y-94192000D01*
X138575348Y-94192026D01*
X138564367Y-94211045D01*
X138469134Y-94347056D01*
X138455017Y-94363881D01*
X138337610Y-94481292D01*
X138320786Y-94495410D01*
X138184776Y-94590649D01*
X138165756Y-94601630D01*
X138015271Y-94671807D01*
X137994632Y-94679320D01*
X137834249Y-94722299D01*
X137812620Y-94726113D01*
X137733188Y-94733065D01*
X137677047Y-94737978D01*
X137660360Y-94737417D01*
X137660355Y-94737799D01*
X137651380Y-94737690D01*
X137642510Y-94736309D01*
X137633610Y-94737473D01*
X137633608Y-94737473D01*
X137610956Y-94740436D01*
X137594615Y-94741500D01*
X120223125Y-94741500D01*
X120203735Y-94739999D01*
X120188916Y-94737691D01*
X120180042Y-94736309D01*
X120167365Y-94737966D01*
X120140052Y-94738549D01*
X120050165Y-94730682D01*
X119997386Y-94726063D01*
X119975758Y-94722249D01*
X119940232Y-94712729D01*
X119815377Y-94679271D01*
X119794755Y-94671765D01*
X119644263Y-94601586D01*
X119625255Y-94590610D01*
X119489244Y-94495370D01*
X119472422Y-94481254D01*
X119355021Y-94363849D01*
X119340904Y-94347024D01*
X119245676Y-94211020D01*
X119234695Y-94192000D01*
X119195637Y-94108239D01*
X119164527Y-94041522D01*
X119157016Y-94020886D01*
X119114046Y-93860513D01*
X119110232Y-93838885D01*
X119098335Y-93702902D01*
X119098882Y-93686628D01*
X119098450Y-93686623D01*
X119098560Y-93677647D01*
X119099941Y-93668776D01*
X119095814Y-93637214D01*
X119094750Y-93620879D01*
X119094750Y-88389800D01*
X119895869Y-88389800D01*
X119896166Y-88394952D01*
X119896166Y-88394956D01*
X119900983Y-88478490D01*
X119908977Y-88617137D01*
X119910112Y-88622174D01*
X119910113Y-88622180D01*
X119928317Y-88702956D01*
X119959039Y-88839281D01*
X119960983Y-88844067D01*
X119960984Y-88844072D01*
X120033054Y-89021557D01*
X120044711Y-89050265D01*
X120163692Y-89244424D01*
X120312786Y-89416543D01*
X120487989Y-89561999D01*
X120492441Y-89564601D01*
X120492446Y-89564604D01*
X120586540Y-89619588D01*
X120684597Y-89676888D01*
X120897329Y-89758122D01*
X120902395Y-89759153D01*
X120902396Y-89759153D01*
X120954630Y-89769780D01*
X121120472Y-89803521D01*
X121248288Y-89808208D01*
X121342870Y-89811677D01*
X121342875Y-89811677D01*
X121348034Y-89811866D01*
X121353154Y-89811210D01*
X121353156Y-89811210D01*
X121425344Y-89801962D01*
X121573903Y-89782931D01*
X121578852Y-89781446D01*
X121578858Y-89781445D01*
X121705204Y-89743539D01*
X121792013Y-89717495D01*
X121996507Y-89617314D01*
X122000711Y-89614316D01*
X122000715Y-89614313D01*
X122078683Y-89558699D01*
X122181893Y-89485080D01*
X122343193Y-89324342D01*
X122361484Y-89298888D01*
X122473055Y-89143619D01*
X122476073Y-89139419D01*
X122528690Y-89032958D01*
X122574673Y-88939918D01*
X122574674Y-88939916D01*
X122576967Y-88935276D01*
X122643164Y-88717396D01*
X122655700Y-88622180D01*
X122658509Y-88600845D01*
X129687001Y-88600845D01*
X129687338Y-88607364D01*
X129697257Y-88702956D01*
X129700149Y-88716350D01*
X129751588Y-88870534D01*
X129757761Y-88883712D01*
X129843063Y-89021557D01*
X129852099Y-89032958D01*
X129966829Y-89147489D01*
X129978240Y-89156501D01*
X130116243Y-89241566D01*
X130129424Y-89247713D01*
X130283710Y-89298888D01*
X130297086Y-89301755D01*
X130391438Y-89311422D01*
X130397854Y-89311750D01*
X131172885Y-89311750D01*
X131188124Y-89307275D01*
X131189329Y-89305885D01*
X131191000Y-89298202D01*
X131191000Y-89293634D01*
X131699000Y-89293634D01*
X131703475Y-89308873D01*
X131704865Y-89310078D01*
X131712548Y-89311749D01*
X132492095Y-89311749D01*
X132498614Y-89311412D01*
X132594206Y-89301493D01*
X132607600Y-89298601D01*
X132761784Y-89247162D01*
X132774962Y-89240989D01*
X132912807Y-89155687D01*
X132924208Y-89146651D01*
X133038739Y-89031921D01*
X133047751Y-89020510D01*
X133132816Y-88882507D01*
X133138963Y-88869326D01*
X133190138Y-88715040D01*
X133193005Y-88701664D01*
X133202672Y-88607312D01*
X133203000Y-88600896D01*
X133203000Y-87800865D01*
X133198525Y-87785626D01*
X133197135Y-87784421D01*
X133189452Y-87782750D01*
X131717115Y-87782750D01*
X131701876Y-87787225D01*
X131700671Y-87788615D01*
X131699000Y-87796298D01*
X131699000Y-89293634D01*
X131191000Y-89293634D01*
X131191000Y-87800865D01*
X131186525Y-87785626D01*
X131185135Y-87784421D01*
X131177452Y-87782750D01*
X129705116Y-87782750D01*
X129689877Y-87787225D01*
X129688672Y-87788615D01*
X129687001Y-87796298D01*
X129687001Y-88600845D01*
X122658509Y-88600845D01*
X122672450Y-88494951D01*
X122672451Y-88494944D01*
X122672887Y-88491629D01*
X122674546Y-88423750D01*
X122667179Y-88334143D01*
X122656311Y-88201952D01*
X122656310Y-88201946D01*
X122655887Y-88196801D01*
X122600413Y-87975947D01*
X122598354Y-87971211D01*
X122511672Y-87771856D01*
X122511670Y-87771853D01*
X122509612Y-87767119D01*
X122385923Y-87575925D01*
X122232668Y-87407500D01*
X122053963Y-87266368D01*
X122046849Y-87262441D01*
X122046006Y-87261590D01*
X122045131Y-87261009D01*
X122045251Y-87260828D01*
X121996876Y-87212011D01*
X121982100Y-87142569D01*
X122007214Y-87076163D01*
X122034568Y-87049552D01*
X122053103Y-87036331D01*
X122061504Y-87025631D01*
X122054515Y-87012475D01*
X121297812Y-86255772D01*
X121283868Y-86248158D01*
X121282035Y-86248289D01*
X121275420Y-86252540D01*
X120512510Y-87015450D01*
X120505750Y-87027830D01*
X120511031Y-87034884D01*
X120525698Y-87043455D01*
X120574422Y-87095093D01*
X120587493Y-87164876D01*
X120560762Y-87230648D01*
X120537781Y-87253003D01*
X120366579Y-87381545D01*
X120362444Y-87384650D01*
X120205120Y-87549280D01*
X120202206Y-87553552D01*
X120202205Y-87553553D01*
X120130928Y-87658042D01*
X120076797Y-87737395D01*
X119980921Y-87943942D01*
X119920067Y-88163375D01*
X119895869Y-88389800D01*
X119094750Y-88389800D01*
X119094750Y-85854969D01*
X119896668Y-85854969D01*
X119909176Y-86071900D01*
X119910612Y-86082120D01*
X119958382Y-86294089D01*
X119961461Y-86303917D01*
X120043215Y-86505252D01*
X120047858Y-86514443D01*
X120132334Y-86652296D01*
X120142790Y-86661756D01*
X120151568Y-86657972D01*
X120912978Y-85896562D01*
X120920592Y-85882618D01*
X120920461Y-85880785D01*
X120916210Y-85874170D01*
X120155922Y-85113882D01*
X120144386Y-85107582D01*
X120132104Y-85117205D01*
X120080143Y-85193377D01*
X120075058Y-85202328D01*
X119983571Y-85399421D01*
X119980008Y-85409108D01*
X119921942Y-85618486D01*
X119920011Y-85628606D01*
X119896920Y-85844680D01*
X119896668Y-85854969D01*
X119094750Y-85854969D01*
X119094750Y-80769800D01*
X119895869Y-80769800D01*
X119896166Y-80774952D01*
X119896166Y-80774956D01*
X119898379Y-80813330D01*
X119908977Y-80997137D01*
X119910112Y-81002174D01*
X119910113Y-81002180D01*
X119949234Y-81175772D01*
X119959039Y-81219281D01*
X119960983Y-81224067D01*
X119960984Y-81224072D01*
X120033377Y-81402354D01*
X120044711Y-81430265D01*
X120163692Y-81624424D01*
X120312786Y-81796543D01*
X120487989Y-81941999D01*
X120492442Y-81944601D01*
X120492446Y-81944604D01*
X120589071Y-82001067D01*
X120637794Y-82052706D01*
X120651500Y-82109855D01*
X120651500Y-83582483D01*
X120650973Y-83593666D01*
X120649298Y-83601159D01*
X120649547Y-83609085D01*
X120649547Y-83609086D01*
X120651438Y-83669236D01*
X120651500Y-83673195D01*
X120651500Y-83701106D01*
X120651997Y-83705040D01*
X120651997Y-83705041D01*
X120652005Y-83705106D01*
X120652938Y-83716943D01*
X120654327Y-83761139D01*
X120659978Y-83780589D01*
X120663987Y-83799950D01*
X120666526Y-83820047D01*
X120669445Y-83827418D01*
X120669445Y-83827420D01*
X120682804Y-83861162D01*
X120686649Y-83872392D01*
X120691664Y-83889655D01*
X120698982Y-83914843D01*
X120703015Y-83921662D01*
X120703017Y-83921667D01*
X120709293Y-83932278D01*
X120717988Y-83950026D01*
X120725448Y-83968867D01*
X120730110Y-83975283D01*
X120730110Y-83975284D01*
X120751436Y-84004637D01*
X120757952Y-84014557D01*
X120762103Y-84021575D01*
X120780458Y-84052612D01*
X120794779Y-84066933D01*
X120807619Y-84081966D01*
X120819528Y-84098357D01*
X120851456Y-84124770D01*
X120853605Y-84126548D01*
X120862384Y-84134538D01*
X121044919Y-84317073D01*
X121078945Y-84379385D01*
X121073880Y-84450200D01*
X121031333Y-84507036D01*
X120974880Y-84530719D01*
X120968197Y-84531742D01*
X120958177Y-84534129D01*
X120751638Y-84601636D01*
X120742141Y-84605628D01*
X120549400Y-84705961D01*
X120540672Y-84711458D01*
X120515889Y-84730065D01*
X120507436Y-84741390D01*
X120514180Y-84753720D01*
X122414320Y-86653860D01*
X122426330Y-86660419D01*
X122438069Y-86651451D01*
X122472625Y-86603361D01*
X122477936Y-86594522D01*
X122574206Y-86399733D01*
X122578005Y-86390137D01*
X122641170Y-86182241D01*
X122643349Y-86172160D01*
X122671949Y-85954925D01*
X122672468Y-85948252D01*
X122673962Y-85887115D01*
X122673768Y-85880396D01*
X122655816Y-85662044D01*
X122654131Y-85651864D01*
X122601196Y-85441121D01*
X122597876Y-85431370D01*
X122511229Y-85232093D01*
X122506362Y-85223018D01*
X122442428Y-85124190D01*
X122422221Y-85056130D01*
X122442017Y-84987949D01*
X122495532Y-84941295D01*
X122548220Y-84929750D01*
X123904983Y-84929750D01*
X123916166Y-84930277D01*
X123923659Y-84931952D01*
X123931585Y-84931703D01*
X123931586Y-84931703D01*
X123991736Y-84929812D01*
X123995695Y-84929750D01*
X124023606Y-84929750D01*
X124027541Y-84929253D01*
X124027606Y-84929245D01*
X124039443Y-84928312D01*
X124071701Y-84927298D01*
X124075720Y-84927172D01*
X124083639Y-84926923D01*
X124103093Y-84921271D01*
X124122450Y-84917263D01*
X124134680Y-84915718D01*
X124134681Y-84915718D01*
X124142547Y-84914724D01*
X124149918Y-84911805D01*
X124149920Y-84911805D01*
X124183662Y-84898446D01*
X124194892Y-84894601D01*
X124229733Y-84884479D01*
X124229734Y-84884479D01*
X124237343Y-84882268D01*
X124244162Y-84878235D01*
X124244167Y-84878233D01*
X124254778Y-84871957D01*
X124272526Y-84863262D01*
X124291367Y-84855802D01*
X124299699Y-84849749D01*
X124327137Y-84829814D01*
X124337057Y-84823298D01*
X124368285Y-84804830D01*
X124368288Y-84804828D01*
X124375112Y-84800792D01*
X124389433Y-84786471D01*
X124404467Y-84773630D01*
X124414443Y-84766382D01*
X124420857Y-84761722D01*
X124449038Y-84727657D01*
X124457028Y-84718876D01*
X124967258Y-84208647D01*
X124975537Y-84201113D01*
X124982018Y-84197000D01*
X125028644Y-84147348D01*
X125031398Y-84144507D01*
X125051135Y-84124770D01*
X125053615Y-84121573D01*
X125061320Y-84112551D01*
X125091586Y-84080321D01*
X125095405Y-84073375D01*
X125100065Y-84066961D01*
X125102046Y-84068400D01*
X125143778Y-84026909D01*
X125155626Y-84021261D01*
X125171810Y-84014557D01*
X125200798Y-84002550D01*
X125269234Y-83950037D01*
X125317596Y-83912928D01*
X125317599Y-83912925D01*
X125324149Y-83907899D01*
X125351395Y-83872392D01*
X125376981Y-83839047D01*
X125418800Y-83784547D01*
X125423706Y-83772705D01*
X125475142Y-83648527D01*
X125478301Y-83640901D01*
X125482490Y-83609086D01*
X125492962Y-83529538D01*
X125492962Y-83529537D01*
X125493500Y-83525451D01*
X125493499Y-82394730D01*
X125513501Y-82326609D01*
X125553380Y-82287472D01*
X125564219Y-82280790D01*
X125569102Y-82277780D01*
X125574468Y-82272935D01*
X125580293Y-82267674D01*
X125705701Y-82154432D01*
X125795356Y-82037548D01*
X125814224Y-82012950D01*
X125814225Y-82012949D01*
X125817717Y-82008396D01*
X125901447Y-81844496D01*
X125908319Y-81821494D01*
X125952485Y-81673643D01*
X125954127Y-81668147D01*
X125974014Y-81485175D01*
X125971021Y-81444658D01*
X125964295Y-81353625D01*
X125960453Y-81301627D01*
X125913891Y-81123565D01*
X125855091Y-80997941D01*
X125851389Y-80989183D01*
X125843063Y-80967205D01*
X125843062Y-80967203D01*
X125844043Y-80966831D01*
X125833500Y-80919608D01*
X125833500Y-80326188D01*
X126402600Y-80326188D01*
X126442064Y-80638580D01*
X126520370Y-80943563D01*
X126521823Y-80947232D01*
X126521823Y-80947233D01*
X126525504Y-80956530D01*
X126636284Y-81236327D01*
X126638186Y-81239786D01*
X126638187Y-81239789D01*
X126740271Y-81425478D01*
X126787976Y-81512254D01*
X126973055Y-81766994D01*
X127188602Y-81996528D01*
X127431218Y-82197237D01*
X127697076Y-82365956D01*
X127700655Y-82367640D01*
X127700662Y-82367644D01*
X127978394Y-82498334D01*
X127978398Y-82498336D01*
X127981984Y-82500023D01*
X128281448Y-82597325D01*
X128590746Y-82656327D01*
X128684300Y-82662213D01*
X128824358Y-82671025D01*
X128824374Y-82671026D01*
X128826353Y-82671150D01*
X128983647Y-82671150D01*
X128985626Y-82671026D01*
X128985642Y-82671025D01*
X129125700Y-82662213D01*
X129219254Y-82656327D01*
X129267540Y-82647116D01*
X129510007Y-82600863D01*
X129580669Y-82607746D01*
X129636393Y-82651739D01*
X129659485Y-82718875D01*
X129642616Y-82787839D01*
X129635939Y-82798158D01*
X129609148Y-82835441D01*
X129604636Y-82842718D01*
X129470973Y-83095164D01*
X129467487Y-83102992D01*
X129369318Y-83371249D01*
X129366929Y-83379472D01*
X129306074Y-83658580D01*
X129304825Y-83667037D01*
X129296509Y-83772705D01*
X129271224Y-83839047D01*
X129214086Y-83881187D01*
X129148477Y-83886809D01*
X129103243Y-83878629D01*
X129039754Y-83867148D01*
X129039746Y-83867147D01*
X129035670Y-83866410D01*
X129031531Y-83866215D01*
X129031524Y-83866214D01*
X129012560Y-83865320D01*
X129012551Y-83865320D01*
X129011071Y-83865250D01*
X128846050Y-83865250D01*
X128764701Y-83872153D01*
X128676363Y-83879648D01*
X128676359Y-83879649D01*
X128671052Y-83880099D01*
X128665897Y-83881437D01*
X128665891Y-83881438D01*
X128488177Y-83927564D01*
X128443794Y-83939083D01*
X128438928Y-83941275D01*
X128438925Y-83941276D01*
X128234583Y-84033326D01*
X128234580Y-84033327D01*
X128229722Y-84035516D01*
X128034959Y-84166638D01*
X127865073Y-84328701D01*
X127724922Y-84517071D01*
X127722506Y-84521822D01*
X127722504Y-84521826D01*
X127622319Y-84718876D01*
X127618513Y-84726362D01*
X127616931Y-84731457D01*
X127554754Y-84931703D01*
X127548889Y-84950590D01*
X127548188Y-84955879D01*
X127527246Y-85113882D01*
X127518039Y-85183343D01*
X127526848Y-85417966D01*
X127544642Y-85502772D01*
X127568922Y-85618486D01*
X127575062Y-85647751D01*
X127661302Y-85866127D01*
X127783104Y-86066850D01*
X127936985Y-86244182D01*
X127941117Y-86247570D01*
X128114416Y-86389667D01*
X128114422Y-86389671D01*
X128118544Y-86393051D01*
X128123180Y-86395690D01*
X128123183Y-86395692D01*
X128239642Y-86461984D01*
X128322590Y-86509201D01*
X128543289Y-86589311D01*
X128548538Y-86590260D01*
X128548541Y-86590261D01*
X128629615Y-86604921D01*
X128774330Y-86631090D01*
X128778469Y-86631285D01*
X128778476Y-86631286D01*
X128797440Y-86632180D01*
X128797449Y-86632180D01*
X128798929Y-86632250D01*
X128963950Y-86632250D01*
X129045299Y-86625347D01*
X129133637Y-86617852D01*
X129133641Y-86617851D01*
X129138948Y-86617401D01*
X129144103Y-86616063D01*
X129144109Y-86616062D01*
X129361035Y-86559759D01*
X129361034Y-86559759D01*
X129366206Y-86558417D01*
X129371072Y-86556225D01*
X129371075Y-86556224D01*
X129471416Y-86511023D01*
X129509250Y-86493980D01*
X129579574Y-86484239D01*
X129644002Y-86514064D01*
X129682077Y-86573987D01*
X129687000Y-86608862D01*
X129687000Y-87256635D01*
X129691475Y-87271874D01*
X129692865Y-87273079D01*
X129700548Y-87274750D01*
X131172885Y-87274750D01*
X131188124Y-87270275D01*
X131189329Y-87268885D01*
X131191000Y-87261202D01*
X131191000Y-87256635D01*
X131699000Y-87256635D01*
X131703475Y-87271874D01*
X131704865Y-87273079D01*
X131712548Y-87274750D01*
X133184884Y-87274750D01*
X133200123Y-87270275D01*
X133201328Y-87268885D01*
X133202999Y-87261202D01*
X133202999Y-86676855D01*
X133203000Y-86676823D01*
X133203000Y-86075865D01*
X133198525Y-86060626D01*
X133197135Y-86059421D01*
X133189452Y-86057750D01*
X131717115Y-86057750D01*
X131701876Y-86062225D01*
X131700671Y-86063615D01*
X131699000Y-86071298D01*
X131699000Y-87256635D01*
X131191000Y-87256635D01*
X131191000Y-85675750D01*
X131211002Y-85607629D01*
X131264658Y-85561136D01*
X131317000Y-85549750D01*
X133184884Y-85549750D01*
X133200123Y-85545275D01*
X133201328Y-85543885D01*
X133202999Y-85536202D01*
X133202999Y-85272076D01*
X133223001Y-85203955D01*
X133227452Y-85197482D01*
X133268780Y-85141221D01*
X133273364Y-85133998D01*
X133409667Y-84882959D01*
X133413235Y-84875165D01*
X133514205Y-84607956D01*
X133516682Y-84599750D01*
X133542315Y-84487830D01*
X135745750Y-84487830D01*
X135751031Y-84494884D01*
X135920353Y-84593828D01*
X135929640Y-84598278D01*
X136132638Y-84675795D01*
X136142540Y-84678672D01*
X136355456Y-84721990D01*
X136365708Y-84723213D01*
X136582847Y-84731175D01*
X136593133Y-84730708D01*
X136808670Y-84703097D01*
X136818748Y-84700955D01*
X137026877Y-84638513D01*
X137036475Y-84634752D01*
X137231615Y-84539154D01*
X137240454Y-84533885D01*
X137293104Y-84496330D01*
X137301504Y-84485631D01*
X137294515Y-84472475D01*
X136537812Y-83715772D01*
X136523868Y-83708158D01*
X136522035Y-83708289D01*
X136515420Y-83712540D01*
X135752510Y-84475450D01*
X135745750Y-84487830D01*
X133542315Y-84487830D01*
X133580454Y-84321308D01*
X133581794Y-84312847D01*
X133607349Y-84026514D01*
X133607595Y-84021575D01*
X133608017Y-83981235D01*
X133607874Y-83976269D01*
X133588322Y-83689468D01*
X133587161Y-83680994D01*
X133529231Y-83401262D01*
X133526932Y-83393027D01*
X133499290Y-83314969D01*
X135136668Y-83314969D01*
X135149176Y-83531900D01*
X135150612Y-83542120D01*
X135198382Y-83754089D01*
X135201461Y-83763917D01*
X135283215Y-83965252D01*
X135287858Y-83974443D01*
X135372334Y-84112296D01*
X135382790Y-84121756D01*
X135391568Y-84117972D01*
X136152978Y-83356562D01*
X136159356Y-83344882D01*
X136889408Y-83344882D01*
X136889539Y-83346715D01*
X136893790Y-83353330D01*
X137654320Y-84113860D01*
X137666330Y-84120419D01*
X137678069Y-84111451D01*
X137712625Y-84063361D01*
X137717936Y-84054522D01*
X137814206Y-83859733D01*
X137818005Y-83850137D01*
X137881170Y-83642241D01*
X137883349Y-83632160D01*
X137911949Y-83414925D01*
X137912468Y-83408252D01*
X137913962Y-83347115D01*
X137913768Y-83340396D01*
X137895816Y-83122044D01*
X137894131Y-83111864D01*
X137841196Y-82901121D01*
X137837876Y-82891370D01*
X137751229Y-82692093D01*
X137746362Y-82683018D01*
X137677083Y-82575928D01*
X137666398Y-82566725D01*
X137656831Y-82571129D01*
X136897022Y-83330938D01*
X136889408Y-83344882D01*
X136159356Y-83344882D01*
X136160592Y-83342618D01*
X136160461Y-83340785D01*
X136156210Y-83334170D01*
X135395922Y-82573882D01*
X135384386Y-82567582D01*
X135372104Y-82577205D01*
X135320143Y-82653377D01*
X135315058Y-82662328D01*
X135223571Y-82859421D01*
X135220008Y-82869108D01*
X135161942Y-83078486D01*
X135160011Y-83088606D01*
X135136920Y-83304680D01*
X135136668Y-83314969D01*
X133499290Y-83314969D01*
X133431574Y-83123743D01*
X133428177Y-83115893D01*
X133297155Y-82862042D01*
X133292727Y-82854730D01*
X133152701Y-82655496D01*
X133142180Y-82647116D01*
X133128792Y-82654168D01*
X131534095Y-84248865D01*
X131471783Y-84282891D01*
X131400968Y-84277826D01*
X131355905Y-84248865D01*
X131174885Y-84067845D01*
X131140859Y-84005533D01*
X131145924Y-83934718D01*
X131174885Y-83889655D01*
X132768199Y-82296341D01*
X132775390Y-82283172D01*
X132768068Y-82272935D01*
X132701328Y-82218310D01*
X132694356Y-82213355D01*
X132450791Y-82064098D01*
X132443193Y-82060126D01*
X132187378Y-81947830D01*
X135745750Y-81947830D01*
X135751031Y-81954884D01*
X135766168Y-81963730D01*
X135814891Y-82015369D01*
X135827961Y-82085152D01*
X135801229Y-82150924D01*
X135778248Y-82173278D01*
X135755889Y-82190065D01*
X135747436Y-82201390D01*
X135754180Y-82213720D01*
X136512188Y-82971728D01*
X136526132Y-82979342D01*
X136527965Y-82979211D01*
X136534580Y-82974960D01*
X137297115Y-82212425D01*
X137304136Y-82199569D01*
X137296607Y-82189236D01*
X137289165Y-82184292D01*
X137286397Y-82182764D01*
X137285494Y-82181853D01*
X137284853Y-82181427D01*
X137284941Y-82181295D01*
X137236424Y-82132334D01*
X137221648Y-82062892D01*
X137246761Y-81996485D01*
X137274117Y-81969873D01*
X137293104Y-81956330D01*
X137301504Y-81945631D01*
X137294515Y-81932475D01*
X136537812Y-81175772D01*
X136523868Y-81168158D01*
X136522035Y-81168289D01*
X136515420Y-81172540D01*
X135752510Y-81935450D01*
X135745750Y-81947830D01*
X132187378Y-81947830D01*
X132181633Y-81945308D01*
X132173579Y-81942409D01*
X131898852Y-81864152D01*
X131890474Y-81862370D01*
X131607668Y-81822121D01*
X131599121Y-81821494D01*
X131313467Y-81819997D01*
X131304933Y-81820534D01*
X131035196Y-81856046D01*
X130965048Y-81845107D01*
X130911949Y-81797979D01*
X130892759Y-81729625D01*
X130916814Y-81657063D01*
X130977265Y-81573860D01*
X131022024Y-81512254D01*
X131069730Y-81425478D01*
X131171813Y-81239789D01*
X131171814Y-81239786D01*
X131173716Y-81236327D01*
X131284496Y-80956530D01*
X131288177Y-80947233D01*
X131288177Y-80947232D01*
X131289630Y-80943563D01*
X131332917Y-80774969D01*
X135136668Y-80774969D01*
X135149176Y-80991900D01*
X135150612Y-81002120D01*
X135198382Y-81214089D01*
X135201461Y-81223917D01*
X135283215Y-81425252D01*
X135287858Y-81434443D01*
X135372334Y-81572296D01*
X135382790Y-81581756D01*
X135391568Y-81577972D01*
X136152978Y-80816562D01*
X136159356Y-80804882D01*
X136889408Y-80804882D01*
X136889539Y-80806715D01*
X136893790Y-80813330D01*
X137654320Y-81573860D01*
X137666330Y-81580419D01*
X137678069Y-81571451D01*
X137712625Y-81523361D01*
X137717936Y-81514522D01*
X137814206Y-81319733D01*
X137818005Y-81310137D01*
X137881170Y-81102241D01*
X137883349Y-81092160D01*
X137911949Y-80874925D01*
X137912468Y-80868252D01*
X137913962Y-80807115D01*
X137913768Y-80800396D01*
X137895816Y-80582044D01*
X137894131Y-80571864D01*
X137841196Y-80361121D01*
X137837876Y-80351370D01*
X137751229Y-80152093D01*
X137746362Y-80143018D01*
X137677083Y-80035928D01*
X137666398Y-80026725D01*
X137656831Y-80031129D01*
X136897022Y-80790938D01*
X136889408Y-80804882D01*
X136159356Y-80804882D01*
X136160592Y-80802618D01*
X136160461Y-80800785D01*
X136156210Y-80794170D01*
X135395922Y-80033882D01*
X135384386Y-80027582D01*
X135372104Y-80037205D01*
X135320143Y-80113377D01*
X135315058Y-80122328D01*
X135223571Y-80319421D01*
X135220008Y-80329108D01*
X135161942Y-80538486D01*
X135160011Y-80548606D01*
X135136920Y-80764680D01*
X135136668Y-80774969D01*
X131332917Y-80774969D01*
X131367936Y-80638580D01*
X131407400Y-80326188D01*
X131407400Y-80011312D01*
X131367936Y-79698920D01*
X131289630Y-79393937D01*
X131173716Y-79101173D01*
X131171813Y-79097711D01*
X131023933Y-78828718D01*
X131023931Y-78828715D01*
X131022024Y-78825246D01*
X130836945Y-78570506D01*
X130621398Y-78340972D01*
X130378782Y-78140263D01*
X130112924Y-77971544D01*
X130109345Y-77969860D01*
X130109338Y-77969856D01*
X129831606Y-77839166D01*
X129831602Y-77839164D01*
X129828016Y-77837477D01*
X129528552Y-77740175D01*
X129219254Y-77681173D01*
X129125700Y-77675287D01*
X128985642Y-77666475D01*
X128985626Y-77666474D01*
X128983647Y-77666350D01*
X128826353Y-77666350D01*
X128824374Y-77666474D01*
X128824358Y-77666475D01*
X128684300Y-77675287D01*
X128590746Y-77681173D01*
X128281448Y-77740175D01*
X127981984Y-77837477D01*
X127978398Y-77839164D01*
X127978394Y-77839166D01*
X127700662Y-77969856D01*
X127700655Y-77969860D01*
X127697076Y-77971544D01*
X127431218Y-78140263D01*
X127188602Y-78340972D01*
X126973055Y-78570506D01*
X126787976Y-78825246D01*
X126786069Y-78828715D01*
X126786067Y-78828718D01*
X126638187Y-79097711D01*
X126636284Y-79101173D01*
X126520370Y-79393937D01*
X126442064Y-79698920D01*
X126402600Y-80011312D01*
X126402600Y-80326188D01*
X125833500Y-80326188D01*
X125833500Y-79423666D01*
X125835000Y-79404282D01*
X125837306Y-79389471D01*
X125847688Y-79355440D01*
X125849532Y-79351502D01*
X125913917Y-79213946D01*
X125960481Y-79035879D01*
X125969888Y-78908552D01*
X125973620Y-78858042D01*
X125973620Y-78858038D01*
X125974042Y-78852325D01*
X125961140Y-78733619D01*
X125954774Y-78675050D01*
X125954773Y-78675047D01*
X125954154Y-78669348D01*
X125923766Y-78567620D01*
X125903114Y-78498484D01*
X125903113Y-78498481D01*
X125901474Y-78492995D01*
X125890232Y-78470988D01*
X125862289Y-78416292D01*
X125817741Y-78329090D01*
X125760208Y-78254083D01*
X125709216Y-78187604D01*
X125709215Y-78187603D01*
X125705722Y-78183049D01*
X125661134Y-78142786D01*
X125573376Y-78063542D01*
X125569119Y-78059698D01*
X125553379Y-78049995D01*
X125505889Y-77997222D01*
X125493500Y-77942738D01*
X125493499Y-76816173D01*
X125493499Y-76812050D01*
X125484668Y-76744960D01*
X125479379Y-76704786D01*
X125479378Y-76704784D01*
X125478301Y-76696599D01*
X125418800Y-76552952D01*
X125345481Y-76457401D01*
X125329178Y-76436154D01*
X125329175Y-76436151D01*
X125324149Y-76429601D01*
X125298459Y-76409888D01*
X125257796Y-76378687D01*
X125215929Y-76321349D01*
X125208500Y-76278724D01*
X125208500Y-75023343D01*
X127518039Y-75023343D01*
X127526848Y-75257966D01*
X127527943Y-75263184D01*
X127552794Y-75381621D01*
X127575062Y-75487751D01*
X127661302Y-75706127D01*
X127783104Y-75906850D01*
X127936985Y-76084182D01*
X127941117Y-76087570D01*
X128114416Y-76229667D01*
X128114422Y-76229671D01*
X128118544Y-76233051D01*
X128123180Y-76235690D01*
X128123183Y-76235692D01*
X128177507Y-76266615D01*
X128322590Y-76349201D01*
X128543289Y-76429311D01*
X128548538Y-76430260D01*
X128548541Y-76430261D01*
X128629615Y-76444921D01*
X128774330Y-76471090D01*
X128778469Y-76471285D01*
X128778476Y-76471286D01*
X128797440Y-76472180D01*
X128797449Y-76472180D01*
X128798929Y-76472250D01*
X128963950Y-76472250D01*
X129045299Y-76465347D01*
X129133637Y-76457852D01*
X129133641Y-76457851D01*
X129138948Y-76457401D01*
X129144103Y-76456063D01*
X129144109Y-76456062D01*
X129361035Y-76399759D01*
X129361034Y-76399759D01*
X129366206Y-76398417D01*
X129371072Y-76396225D01*
X129371075Y-76396224D01*
X129575417Y-76304174D01*
X129575420Y-76304173D01*
X129580278Y-76301984D01*
X129775041Y-76170862D01*
X129944927Y-76008799D01*
X130085078Y-75820429D01*
X130145719Y-75701158D01*
X130189069Y-75615894D01*
X130189069Y-75615893D01*
X130191487Y-75611138D01*
X130261111Y-75386910D01*
X130278202Y-75257966D01*
X130291261Y-75159440D01*
X130291261Y-75159437D01*
X130291961Y-75154157D01*
X130283152Y-74919534D01*
X130265358Y-74834728D01*
X130236035Y-74694976D01*
X130236034Y-74694973D01*
X130234938Y-74689749D01*
X130148698Y-74471373D01*
X130026896Y-74270650D01*
X129873015Y-74093318D01*
X129862938Y-74085056D01*
X129695584Y-73947833D01*
X129695578Y-73947829D01*
X129691456Y-73944449D01*
X129686820Y-73941810D01*
X129686817Y-73941808D01*
X129492053Y-73830942D01*
X129487410Y-73828299D01*
X129266711Y-73748189D01*
X129261462Y-73747240D01*
X129261459Y-73747239D01*
X129180385Y-73732579D01*
X129035670Y-73706410D01*
X129031531Y-73706215D01*
X129031524Y-73706214D01*
X129012560Y-73705320D01*
X129012551Y-73705320D01*
X129011071Y-73705250D01*
X128846050Y-73705250D01*
X128764701Y-73712153D01*
X128676363Y-73719648D01*
X128676359Y-73719649D01*
X128671052Y-73720099D01*
X128665897Y-73721437D01*
X128665891Y-73721438D01*
X128488177Y-73767564D01*
X128443794Y-73779083D01*
X128438928Y-73781275D01*
X128438925Y-73781276D01*
X128234583Y-73873326D01*
X128234580Y-73873327D01*
X128229722Y-73875516D01*
X128034959Y-74006638D01*
X127865073Y-74168701D01*
X127724922Y-74357071D01*
X127722506Y-74361822D01*
X127722504Y-74361826D01*
X127620931Y-74561606D01*
X127618513Y-74566362D01*
X127548889Y-74790590D01*
X127548188Y-74795879D01*
X127531092Y-74924866D01*
X127518039Y-75023343D01*
X125208500Y-75023343D01*
X125208500Y-71472513D01*
X125209027Y-71461329D01*
X125210701Y-71453841D01*
X125208562Y-71385782D01*
X125208500Y-71381825D01*
X125208500Y-71353894D01*
X125207994Y-71349888D01*
X125207061Y-71338042D01*
X125207042Y-71337415D01*
X125205673Y-71293860D01*
X125200022Y-71274408D01*
X125196014Y-71255056D01*
X125194467Y-71242813D01*
X125193474Y-71234953D01*
X125190556Y-71227582D01*
X125177200Y-71193847D01*
X125173355Y-71182620D01*
X125166759Y-71159918D01*
X125161018Y-71140157D01*
X125156984Y-71133335D01*
X125156981Y-71133329D01*
X125150706Y-71122718D01*
X125142010Y-71104968D01*
X125137472Y-71093506D01*
X125137469Y-71093501D01*
X125134552Y-71086133D01*
X125108573Y-71050375D01*
X125102057Y-71040457D01*
X125083575Y-71009207D01*
X125079542Y-71002387D01*
X125065218Y-70988063D01*
X125052376Y-70973028D01*
X125040472Y-70956643D01*
X125006406Y-70928461D01*
X124997627Y-70920472D01*
X123745405Y-69668250D01*
X123711379Y-69605938D01*
X123708500Y-69579155D01*
X123708500Y-66013626D01*
X123728502Y-65945505D01*
X123782158Y-65899012D01*
X123852432Y-65888908D01*
X123917012Y-65918402D01*
X123928136Y-65929316D01*
X123963747Y-65968866D01*
X124118248Y-66081118D01*
X124124276Y-66083802D01*
X124124278Y-66083803D01*
X124282209Y-66154118D01*
X124292712Y-66158794D01*
X124386112Y-66178647D01*
X124473056Y-66197128D01*
X124473061Y-66197128D01*
X124479513Y-66198500D01*
X124670487Y-66198500D01*
X124676939Y-66197128D01*
X124676944Y-66197128D01*
X124763888Y-66178647D01*
X124857288Y-66158794D01*
X124867791Y-66154118D01*
X125025722Y-66083803D01*
X125025724Y-66083802D01*
X125031752Y-66081118D01*
X125186253Y-65968866D01*
X125249150Y-65899012D01*
X125309621Y-65831852D01*
X125309622Y-65831851D01*
X125314040Y-65826944D01*
X125409527Y-65661556D01*
X125468542Y-65479928D01*
X125469894Y-65467071D01*
X125487814Y-65296565D01*
X125488504Y-65290000D01*
X125468542Y-65100072D01*
X125409527Y-64918444D01*
X125395017Y-64893313D01*
X125378279Y-64824320D01*
X125404174Y-64753608D01*
X125413773Y-64741099D01*
X125413775Y-64741096D01*
X125418800Y-64734547D01*
X125478301Y-64590901D01*
X125493500Y-64475451D01*
X125493499Y-63344730D01*
X125513501Y-63276609D01*
X125553380Y-63237472D01*
X125564219Y-63230790D01*
X125569102Y-63227780D01*
X125705701Y-63104432D01*
X125777053Y-63011410D01*
X125814224Y-62962950D01*
X125814225Y-62962949D01*
X125817717Y-62958396D01*
X125901447Y-62794496D01*
X125908281Y-62771621D01*
X125952485Y-62623643D01*
X125954127Y-62618147D01*
X125955393Y-62606505D01*
X125973394Y-62440878D01*
X125974014Y-62435175D01*
X125971021Y-62394658D01*
X125964295Y-62303625D01*
X125960453Y-62251627D01*
X125913891Y-62073565D01*
X125911452Y-62068353D01*
X125861875Y-61962436D01*
X125855091Y-61947941D01*
X125851389Y-61939183D01*
X125843063Y-61917205D01*
X125843062Y-61917203D01*
X125844043Y-61916831D01*
X125833500Y-61869608D01*
X125833500Y-61276188D01*
X126402600Y-61276188D01*
X126442064Y-61588580D01*
X126520370Y-61893563D01*
X126521823Y-61897232D01*
X126521823Y-61897233D01*
X126527471Y-61911497D01*
X126636284Y-62186327D01*
X126638186Y-62189786D01*
X126638187Y-62189789D01*
X126704411Y-62310249D01*
X126787976Y-62462254D01*
X126973055Y-62716994D01*
X127188602Y-62946528D01*
X127431218Y-63147237D01*
X127697076Y-63315956D01*
X127700655Y-63317640D01*
X127700662Y-63317644D01*
X127978394Y-63448334D01*
X127978398Y-63448336D01*
X127981984Y-63450023D01*
X128281448Y-63547325D01*
X128590746Y-63606327D01*
X128684300Y-63612213D01*
X128824358Y-63621025D01*
X128824374Y-63621026D01*
X128826353Y-63621150D01*
X128983647Y-63621150D01*
X128985626Y-63621026D01*
X128985642Y-63621025D01*
X129125700Y-63612213D01*
X129219254Y-63606327D01*
X129509292Y-63550999D01*
X129579954Y-63557882D01*
X129635677Y-63601875D01*
X129658770Y-63669011D01*
X129641901Y-63737975D01*
X129635225Y-63748293D01*
X129608728Y-63785167D01*
X129608725Y-63785172D01*
X129606220Y-63788658D01*
X129468504Y-64048757D01*
X129367362Y-64325140D01*
X129304666Y-64612693D01*
X129304330Y-64616963D01*
X129296015Y-64722616D01*
X129270730Y-64788957D01*
X129213592Y-64831097D01*
X129147982Y-64836719D01*
X129106279Y-64829178D01*
X129035670Y-64816410D01*
X129031531Y-64816215D01*
X129031524Y-64816214D01*
X129012560Y-64815320D01*
X129012551Y-64815320D01*
X129011071Y-64815250D01*
X128846050Y-64815250D01*
X128764701Y-64822153D01*
X128676363Y-64829648D01*
X128676359Y-64829649D01*
X128671052Y-64830099D01*
X128665897Y-64831437D01*
X128665891Y-64831438D01*
X128537488Y-64864765D01*
X128443794Y-64889083D01*
X128438928Y-64891275D01*
X128438925Y-64891276D01*
X128234583Y-64983326D01*
X128234580Y-64983327D01*
X128229722Y-64985516D01*
X128034959Y-65116638D01*
X127865073Y-65278701D01*
X127724922Y-65467071D01*
X127618513Y-65676362D01*
X127548889Y-65900590D01*
X127548188Y-65905879D01*
X127525476Y-66077237D01*
X127518039Y-66133343D01*
X127518239Y-66138672D01*
X127518239Y-66138673D01*
X127519046Y-66160166D01*
X127526848Y-66367966D01*
X127575062Y-66597751D01*
X127661302Y-66816127D01*
X127691731Y-66866272D01*
X127731028Y-66931031D01*
X127783104Y-67016850D01*
X127936985Y-67194182D01*
X127941117Y-67197570D01*
X128114416Y-67339667D01*
X128114422Y-67339671D01*
X128118544Y-67343051D01*
X128123180Y-67345690D01*
X128123183Y-67345692D01*
X128239642Y-67411984D01*
X128322590Y-67459201D01*
X128543289Y-67539311D01*
X128548538Y-67540260D01*
X128548541Y-67540261D01*
X128629615Y-67554921D01*
X128774330Y-67581090D01*
X128778469Y-67581285D01*
X128778476Y-67581286D01*
X128797440Y-67582180D01*
X128797449Y-67582180D01*
X128798929Y-67582250D01*
X128963950Y-67582250D01*
X129045299Y-67575347D01*
X129133637Y-67567852D01*
X129133641Y-67567851D01*
X129138948Y-67567401D01*
X129144103Y-67566063D01*
X129144109Y-67566062D01*
X129361035Y-67509759D01*
X129361034Y-67509759D01*
X129366206Y-67508417D01*
X129502282Y-67447119D01*
X129508749Y-67444206D01*
X129579075Y-67434465D01*
X129643502Y-67464290D01*
X129681578Y-67524214D01*
X129686500Y-67559088D01*
X129686500Y-69554150D01*
X129686837Y-69557396D01*
X129686837Y-69557400D01*
X129694510Y-69631345D01*
X129697474Y-69659916D01*
X129753450Y-69827696D01*
X129846522Y-69978098D01*
X129971697Y-70103055D01*
X129977927Y-70106895D01*
X129977928Y-70106896D01*
X130115090Y-70191444D01*
X130122262Y-70195865D01*
X130158197Y-70207784D01*
X130283611Y-70249382D01*
X130283613Y-70249382D01*
X130290139Y-70251547D01*
X130296975Y-70252247D01*
X130296978Y-70252248D01*
X130340031Y-70256659D01*
X130394600Y-70262250D01*
X132495400Y-70262250D01*
X132498646Y-70261913D01*
X132498650Y-70261913D01*
X132594308Y-70251988D01*
X132594312Y-70251987D01*
X132601166Y-70251276D01*
X132607702Y-70249095D01*
X132607704Y-70249095D01*
X132751987Y-70200958D01*
X132768946Y-70195300D01*
X132919348Y-70102228D01*
X133044305Y-69977053D01*
X133048146Y-69970822D01*
X133133275Y-69832718D01*
X133133276Y-69832716D01*
X133137115Y-69826488D01*
X133192797Y-69658611D01*
X133203500Y-69554150D01*
X133203500Y-69238250D01*
X133223502Y-69170129D01*
X133277158Y-69123636D01*
X133329500Y-69112250D01*
X133877483Y-69112250D01*
X133888666Y-69112777D01*
X133896159Y-69114452D01*
X133904085Y-69114203D01*
X133904086Y-69114203D01*
X133964236Y-69112312D01*
X133968195Y-69112250D01*
X133996106Y-69112250D01*
X134000041Y-69111753D01*
X134000106Y-69111745D01*
X134011943Y-69110812D01*
X134044201Y-69109798D01*
X134048220Y-69109672D01*
X134056139Y-69109423D01*
X134075593Y-69103771D01*
X134094950Y-69099763D01*
X134107180Y-69098218D01*
X134107181Y-69098218D01*
X134115047Y-69097224D01*
X134122418Y-69094305D01*
X134122420Y-69094305D01*
X134156162Y-69080946D01*
X134167392Y-69077101D01*
X134202233Y-69066979D01*
X134202234Y-69066979D01*
X134209843Y-69064768D01*
X134216662Y-69060735D01*
X134216667Y-69060733D01*
X134227278Y-69054457D01*
X134245026Y-69045762D01*
X134263867Y-69038302D01*
X134299637Y-69012314D01*
X134309557Y-69005798D01*
X134312937Y-69003799D01*
X134347612Y-68983292D01*
X134353219Y-68977686D01*
X134361935Y-68968970D01*
X134376969Y-68956129D01*
X134386945Y-68948881D01*
X134386946Y-68948880D01*
X134393357Y-68944222D01*
X134421538Y-68910157D01*
X134429527Y-68901377D01*
X134556751Y-68774154D01*
X134619063Y-68740129D01*
X134645846Y-68737250D01*
X135218427Y-68737250D01*
X135286548Y-68757252D01*
X135325859Y-68797415D01*
X135400989Y-68920014D01*
X135400992Y-68920018D01*
X135403692Y-68924424D01*
X135552786Y-69096543D01*
X135727989Y-69241999D01*
X135732440Y-69244600D01*
X135732450Y-69244607D01*
X135765266Y-69263783D01*
X135813989Y-69315422D01*
X135827059Y-69385205D01*
X135800326Y-69450977D01*
X135777353Y-69473325D01*
X135602444Y-69604650D01*
X135445120Y-69769280D01*
X135442206Y-69773552D01*
X135442205Y-69773553D01*
X135318257Y-69955254D01*
X135263346Y-70000257D01*
X135214169Y-70010250D01*
X134381267Y-70010250D01*
X134370084Y-70009723D01*
X134362591Y-70008048D01*
X134354665Y-70008297D01*
X134354664Y-70008297D01*
X134294501Y-70010188D01*
X134290543Y-70010250D01*
X134262644Y-70010250D01*
X134258654Y-70010754D01*
X134246820Y-70011686D01*
X134202611Y-70013076D01*
X134194997Y-70015288D01*
X134194992Y-70015289D01*
X134183159Y-70018727D01*
X134163796Y-70022738D01*
X134143703Y-70025276D01*
X134136336Y-70028193D01*
X134136331Y-70028194D01*
X134102592Y-70041552D01*
X134091365Y-70045396D01*
X134048907Y-70057732D01*
X134042081Y-70061769D01*
X134031472Y-70068043D01*
X134013724Y-70076738D01*
X133994883Y-70084198D01*
X133988467Y-70088860D01*
X133988466Y-70088860D01*
X133959113Y-70110186D01*
X133949192Y-70116702D01*
X133911138Y-70139208D01*
X133905531Y-70144814D01*
X133896815Y-70153530D01*
X133881782Y-70166370D01*
X133865393Y-70178278D01*
X133860341Y-70184385D01*
X133837212Y-70212343D01*
X133829222Y-70221124D01*
X133592742Y-70457603D01*
X133584463Y-70465137D01*
X133577982Y-70469250D01*
X133531356Y-70518902D01*
X133528601Y-70521744D01*
X133508865Y-70541480D01*
X133506385Y-70544677D01*
X133498682Y-70553697D01*
X133468414Y-70585929D01*
X133464595Y-70592875D01*
X133464593Y-70592878D01*
X133458652Y-70603684D01*
X133447801Y-70620203D01*
X133435386Y-70636209D01*
X133432241Y-70643478D01*
X133432238Y-70643482D01*
X133417826Y-70676787D01*
X133412609Y-70687437D01*
X133391305Y-70726190D01*
X133389334Y-70733865D01*
X133389334Y-70733866D01*
X133386267Y-70745812D01*
X133379863Y-70764516D01*
X133371819Y-70783105D01*
X133370580Y-70790928D01*
X133370577Y-70790938D01*
X133364901Y-70826774D01*
X133362495Y-70838394D01*
X133351500Y-70881220D01*
X133351500Y-70901474D01*
X133349949Y-70921184D01*
X133346780Y-70941193D01*
X133347526Y-70949085D01*
X133350941Y-70985211D01*
X133351500Y-70997069D01*
X133351500Y-72169250D01*
X133331498Y-72237371D01*
X133277842Y-72283864D01*
X133225500Y-72295250D01*
X132934600Y-72295250D01*
X132931354Y-72295587D01*
X132931350Y-72295587D01*
X132835692Y-72305512D01*
X132835688Y-72305513D01*
X132828834Y-72306224D01*
X132822298Y-72308405D01*
X132822296Y-72308405D01*
X132690194Y-72352478D01*
X132661054Y-72362200D01*
X132510652Y-72455272D01*
X132385695Y-72580447D01*
X132292885Y-72731012D01*
X132237203Y-72898889D01*
X132226500Y-73003350D01*
X132226500Y-76336362D01*
X132202824Y-76409886D01*
X132146220Y-76488658D01*
X132008504Y-76748757D01*
X131907362Y-77025140D01*
X131844666Y-77312693D01*
X131821575Y-77606094D01*
X131838516Y-77899914D01*
X131839341Y-77904121D01*
X131839342Y-77904126D01*
X131852569Y-77971544D01*
X131895177Y-78188716D01*
X131896564Y-78192766D01*
X131896565Y-78192771D01*
X131989120Y-78463101D01*
X131990509Y-78467157D01*
X132122747Y-78730084D01*
X132125173Y-78733613D01*
X132125176Y-78733619D01*
X132164950Y-78791490D01*
X132289445Y-78972631D01*
X132292332Y-78975804D01*
X132292333Y-78975805D01*
X132298407Y-78982480D01*
X132487518Y-79190310D01*
X132490807Y-79193060D01*
X132710009Y-79376342D01*
X132710014Y-79376346D01*
X132713301Y-79379094D01*
X132781344Y-79421777D01*
X132958976Y-79533206D01*
X132958980Y-79533208D01*
X132962616Y-79535489D01*
X133035293Y-79568304D01*
X133226937Y-79654835D01*
X133226941Y-79654837D01*
X133230849Y-79656601D01*
X133284270Y-79672425D01*
X133508924Y-79738971D01*
X133508929Y-79738972D01*
X133513037Y-79740189D01*
X133517271Y-79740837D01*
X133517276Y-79740838D01*
X133799717Y-79784057D01*
X133799719Y-79784057D01*
X133803959Y-79784706D01*
X133953772Y-79787060D01*
X134093940Y-79789262D01*
X134093946Y-79789262D01*
X134098231Y-79789329D01*
X134390408Y-79753972D01*
X134600253Y-79698920D01*
X134670939Y-79680376D01*
X134670940Y-79680376D01*
X134675082Y-79679289D01*
X134718294Y-79661390D01*
X135747436Y-79661390D01*
X135754180Y-79673720D01*
X136512188Y-80431728D01*
X136526132Y-80439342D01*
X136527965Y-80439211D01*
X136534580Y-80434960D01*
X137297115Y-79672425D01*
X137304136Y-79659569D01*
X137296607Y-79649236D01*
X137289156Y-79644286D01*
X137098932Y-79539276D01*
X137089523Y-79535048D01*
X136884697Y-79462515D01*
X136874734Y-79459883D01*
X136660810Y-79421777D01*
X136650557Y-79420808D01*
X136433274Y-79418153D01*
X136422991Y-79418873D01*
X136208205Y-79451740D01*
X136198177Y-79454129D01*
X135991638Y-79521636D01*
X135982141Y-79525628D01*
X135789400Y-79625961D01*
X135780672Y-79631458D01*
X135755889Y-79650065D01*
X135747436Y-79661390D01*
X134718294Y-79661390D01*
X134946988Y-79566662D01*
X135074040Y-79492419D01*
X135197389Y-79420339D01*
X135197390Y-79420338D01*
X135201092Y-79418175D01*
X135432694Y-79236577D01*
X135449597Y-79219135D01*
X135621808Y-79041425D01*
X135637506Y-79025226D01*
X135811741Y-78788035D01*
X135876179Y-78669354D01*
X135950122Y-78533168D01*
X135950123Y-78533166D01*
X135952172Y-78529392D01*
X136056203Y-78254083D01*
X136082912Y-78137465D01*
X136120949Y-77971387D01*
X136120950Y-77971383D01*
X136121907Y-77967203D01*
X136122528Y-77960251D01*
X136147849Y-77676526D01*
X136147849Y-77676524D01*
X136148069Y-77674060D01*
X136148544Y-77628750D01*
X136147000Y-77606094D01*
X136128819Y-77339400D01*
X136128818Y-77339394D01*
X136128527Y-77335123D01*
X136068845Y-77046930D01*
X135970603Y-76769503D01*
X135835618Y-76507976D01*
X135766413Y-76409508D01*
X135743500Y-76337057D01*
X135743500Y-73003350D01*
X135732526Y-72897584D01*
X135676550Y-72729804D01*
X135583478Y-72579402D01*
X135458303Y-72454445D01*
X135452072Y-72450604D01*
X135313968Y-72365475D01*
X135313966Y-72365474D01*
X135307738Y-72361635D01*
X135147254Y-72308405D01*
X135146389Y-72308118D01*
X135146387Y-72308118D01*
X135139861Y-72305953D01*
X135133025Y-72305253D01*
X135133022Y-72305252D01*
X135089969Y-72300841D01*
X135035400Y-72295250D01*
X134744500Y-72295250D01*
X134676379Y-72275248D01*
X134629886Y-72221592D01*
X134618500Y-72169250D01*
X134618500Y-71403250D01*
X134638502Y-71335129D01*
X134692158Y-71288636D01*
X134744500Y-71277250D01*
X135218427Y-71277250D01*
X135286548Y-71297252D01*
X135325859Y-71337415D01*
X135400989Y-71460014D01*
X135400992Y-71460018D01*
X135403692Y-71464424D01*
X135552786Y-71636543D01*
X135727989Y-71781999D01*
X135732441Y-71784601D01*
X135732446Y-71784604D01*
X135826540Y-71839588D01*
X135924597Y-71896888D01*
X136137329Y-71978122D01*
X136142395Y-71979153D01*
X136142396Y-71979153D01*
X136194630Y-71989780D01*
X136360472Y-72023521D01*
X136488288Y-72028208D01*
X136582870Y-72031677D01*
X136582875Y-72031677D01*
X136588034Y-72031866D01*
X136593154Y-72031210D01*
X136593156Y-72031210D01*
X136665344Y-72021962D01*
X136813903Y-72002931D01*
X136818852Y-72001446D01*
X136818858Y-72001445D01*
X136945204Y-71963539D01*
X137032013Y-71937495D01*
X137236507Y-71837314D01*
X137240711Y-71834316D01*
X137240715Y-71834313D01*
X137318683Y-71778699D01*
X137421893Y-71705080D01*
X137583193Y-71544342D01*
X137641149Y-71463688D01*
X137713055Y-71363619D01*
X137716073Y-71359419D01*
X137748475Y-71293860D01*
X137814673Y-71159918D01*
X137814674Y-71159916D01*
X137816967Y-71155276D01*
X137883164Y-70937396D01*
X137884340Y-70928462D01*
X137912450Y-70714951D01*
X137912451Y-70714944D01*
X137912887Y-70711629D01*
X137914546Y-70643750D01*
X137904399Y-70520330D01*
X137896311Y-70421952D01*
X137896310Y-70421946D01*
X137895887Y-70416801D01*
X137854555Y-70252248D01*
X137841672Y-70200958D01*
X137841671Y-70200954D01*
X137840413Y-70195947D01*
X137834582Y-70182537D01*
X137751672Y-69991856D01*
X137751670Y-69991853D01*
X137749612Y-69987119D01*
X137669459Y-69863222D01*
X137628731Y-69800265D01*
X137628729Y-69800262D01*
X137625923Y-69795925D01*
X137472668Y-69627500D01*
X137293963Y-69486368D01*
X137287335Y-69482709D01*
X137286651Y-69482019D01*
X137285131Y-69481009D01*
X137285339Y-69480695D01*
X137237363Y-69432283D01*
X137222585Y-69362841D01*
X137247696Y-69296434D01*
X137275054Y-69269819D01*
X137417689Y-69168079D01*
X137417691Y-69168077D01*
X137421893Y-69165080D01*
X137583193Y-69004342D01*
X137617838Y-68956129D01*
X137713055Y-68823619D01*
X137716073Y-68819419D01*
X137738445Y-68774154D01*
X137814673Y-68619918D01*
X137814674Y-68619916D01*
X137816967Y-68615276D01*
X137883164Y-68397396D01*
X137912887Y-68171629D01*
X137914546Y-68103750D01*
X137907179Y-68014143D01*
X137896311Y-67881952D01*
X137896310Y-67881946D01*
X137895887Y-67876801D01*
X137868150Y-67766374D01*
X137841672Y-67660958D01*
X137841671Y-67660954D01*
X137840413Y-67655947D01*
X137835386Y-67644385D01*
X137751672Y-67451856D01*
X137751670Y-67451853D01*
X137749612Y-67447119D01*
X137625923Y-67255925D01*
X137472668Y-67087500D01*
X137293963Y-66946368D01*
X137094607Y-66836317D01*
X136978598Y-66795236D01*
X136884829Y-66762030D01*
X136884825Y-66762029D01*
X136879954Y-66760304D01*
X136874861Y-66759397D01*
X136874858Y-66759396D01*
X136660857Y-66721277D01*
X136660851Y-66721276D01*
X136655768Y-66720371D01*
X136568698Y-66719307D01*
X136433239Y-66717652D01*
X136433237Y-66717652D01*
X136428070Y-66717589D01*
X136202976Y-66752033D01*
X135986529Y-66822779D01*
X135784544Y-66927926D01*
X135780411Y-66931029D01*
X135780408Y-66931031D01*
X135660735Y-67020884D01*
X135602444Y-67064650D01*
X135445120Y-67229280D01*
X135442206Y-67233552D01*
X135442205Y-67233553D01*
X135318257Y-67415254D01*
X135263346Y-67460257D01*
X135214169Y-67470250D01*
X134410017Y-67470250D01*
X134398834Y-67469723D01*
X134391341Y-67468048D01*
X134383415Y-67468297D01*
X134383414Y-67468297D01*
X134323264Y-67470188D01*
X134319305Y-67470250D01*
X134291394Y-67470250D01*
X134287460Y-67470747D01*
X134287459Y-67470747D01*
X134287394Y-67470755D01*
X134275557Y-67471688D01*
X134243740Y-67472688D01*
X134239279Y-67472828D01*
X134231360Y-67473077D01*
X134213704Y-67478206D01*
X134211908Y-67478728D01*
X134192556Y-67482736D01*
X134185485Y-67483630D01*
X134172453Y-67485276D01*
X134165084Y-67488193D01*
X134165082Y-67488194D01*
X134131347Y-67501550D01*
X134120119Y-67505395D01*
X134077657Y-67517732D01*
X134070834Y-67521767D01*
X134070832Y-67521768D01*
X134060222Y-67528043D01*
X134042474Y-67536738D01*
X134023633Y-67544198D01*
X134017217Y-67548860D01*
X134017216Y-67548860D01*
X133987863Y-67570186D01*
X133977942Y-67576702D01*
X133939888Y-67599208D01*
X133934281Y-67604814D01*
X133925565Y-67613530D01*
X133910532Y-67626370D01*
X133894143Y-67638278D01*
X133889091Y-67644385D01*
X133865963Y-67672342D01*
X133857973Y-67681123D01*
X133730749Y-67808346D01*
X133668437Y-67842371D01*
X133641654Y-67845250D01*
X133329500Y-67845250D01*
X133261379Y-67825248D01*
X133214886Y-67771592D01*
X133203500Y-67719250D01*
X133203500Y-66222239D01*
X133223502Y-66154118D01*
X133227953Y-66147645D01*
X133269203Y-66091490D01*
X133271741Y-66088035D01*
X133412172Y-65829392D01*
X133477967Y-65655271D01*
X133514685Y-65558101D01*
X133514686Y-65558097D01*
X133516203Y-65554083D01*
X133576686Y-65290000D01*
X133580949Y-65271387D01*
X133580950Y-65271383D01*
X133581907Y-65267203D01*
X133595345Y-65116638D01*
X133607849Y-64976526D01*
X133607849Y-64976524D01*
X133608069Y-64974060D01*
X133608357Y-64946639D01*
X133608518Y-64931234D01*
X133608518Y-64931233D01*
X133608544Y-64928750D01*
X133608174Y-64923322D01*
X133588819Y-64639400D01*
X133588818Y-64639394D01*
X133588527Y-64635123D01*
X133528845Y-64346930D01*
X133430603Y-64069503D01*
X133295618Y-63807976D01*
X133246421Y-63737975D01*
X133128856Y-63570698D01*
X133128855Y-63570697D01*
X133126389Y-63567188D01*
X132926048Y-63351594D01*
X132698300Y-63165185D01*
X132447361Y-63011410D01*
X132337001Y-62962965D01*
X132181802Y-62894837D01*
X132181798Y-62894836D01*
X132177874Y-62893113D01*
X131894826Y-62812485D01*
X131890584Y-62811881D01*
X131890578Y-62811880D01*
X131607705Y-62771621D01*
X131603454Y-62771016D01*
X131448306Y-62770204D01*
X131313436Y-62769497D01*
X131313430Y-62769497D01*
X131309150Y-62769475D01*
X131304906Y-62770034D01*
X131304902Y-62770034D01*
X131035601Y-62805488D01*
X130965452Y-62794549D01*
X130912354Y-62747420D01*
X130893164Y-62679066D01*
X130917218Y-62606507D01*
X131022024Y-62462254D01*
X131105590Y-62310249D01*
X131171813Y-62189789D01*
X131171814Y-62189786D01*
X131173716Y-62186327D01*
X131282529Y-61911497D01*
X131288177Y-61897233D01*
X131288177Y-61897232D01*
X131289630Y-61893563D01*
X131367936Y-61588580D01*
X131407400Y-61276188D01*
X131407400Y-60961312D01*
X131367936Y-60648920D01*
X131289630Y-60343937D01*
X131262294Y-60274894D01*
X132654128Y-60274894D01*
X132661182Y-60284864D01*
X132710298Y-60325932D01*
X132717240Y-60330975D01*
X132959212Y-60482764D01*
X132966763Y-60486813D01*
X133227112Y-60604364D01*
X133235143Y-60607351D01*
X133509034Y-60688482D01*
X133517386Y-60690349D01*
X133799760Y-60733558D01*
X133808293Y-60734274D01*
X134093914Y-60738762D01*
X134102465Y-60738313D01*
X134386056Y-60703995D01*
X134394457Y-60702393D01*
X134670780Y-60629901D01*
X134678882Y-60627174D01*
X134942805Y-60517853D01*
X134950467Y-60514050D01*
X135197103Y-60369927D01*
X135204190Y-60365111D01*
X135306497Y-60284893D01*
X135314968Y-60273033D01*
X135308452Y-60261412D01*
X133997812Y-58950772D01*
X133983868Y-58943158D01*
X133982035Y-58943289D01*
X133975420Y-58947540D01*
X132661421Y-60261539D01*
X132654128Y-60274894D01*
X131262294Y-60274894D01*
X131173716Y-60051173D01*
X131145175Y-59999257D01*
X131023933Y-59778718D01*
X131023931Y-59778715D01*
X131022024Y-59775246D01*
X130836945Y-59520506D01*
X130621398Y-59290972D01*
X130378782Y-59090263D01*
X130112924Y-58921544D01*
X130109345Y-58919860D01*
X130109338Y-58919856D01*
X129831606Y-58789166D01*
X129831602Y-58789164D01*
X129828016Y-58787477D01*
X129528552Y-58690175D01*
X129219254Y-58631173D01*
X129125700Y-58625287D01*
X128985642Y-58616475D01*
X128985626Y-58616474D01*
X128983647Y-58616350D01*
X128826353Y-58616350D01*
X128824374Y-58616474D01*
X128824358Y-58616475D01*
X128684300Y-58625287D01*
X128590746Y-58631173D01*
X128281448Y-58690175D01*
X127981984Y-58787477D01*
X127978398Y-58789164D01*
X127978394Y-58789166D01*
X127700662Y-58919856D01*
X127700655Y-58919860D01*
X127697076Y-58921544D01*
X127431218Y-59090263D01*
X127188602Y-59290972D01*
X126973055Y-59520506D01*
X126787976Y-59775246D01*
X126786069Y-59778715D01*
X126786067Y-59778718D01*
X126664825Y-59999257D01*
X126636284Y-60051173D01*
X126520370Y-60343937D01*
X126442064Y-60648920D01*
X126402600Y-60961312D01*
X126402600Y-61276188D01*
X125833500Y-61276188D01*
X125833500Y-60373666D01*
X125835000Y-60354282D01*
X125837306Y-60339471D01*
X125847688Y-60305440D01*
X125857306Y-60284893D01*
X125913917Y-60163946D01*
X125960481Y-59985879D01*
X125969888Y-59858552D01*
X125973620Y-59808042D01*
X125973620Y-59808038D01*
X125974042Y-59802325D01*
X125954154Y-59619348D01*
X125901474Y-59442995D01*
X125890132Y-59420792D01*
X125832472Y-59307926D01*
X125817741Y-59279090D01*
X125711287Y-59140304D01*
X125709216Y-59137604D01*
X125709215Y-59137603D01*
X125705722Y-59133049D01*
X125666453Y-59097589D01*
X125573376Y-59013542D01*
X125569119Y-59009698D01*
X125553379Y-58999995D01*
X125505889Y-58947222D01*
X125493500Y-58892738D01*
X125493500Y-58560379D01*
X131822323Y-58560379D01*
X131838766Y-58845564D01*
X131839839Y-58854063D01*
X131894837Y-59134386D01*
X131897048Y-59142638D01*
X131989581Y-59412907D01*
X131992896Y-59420792D01*
X132121251Y-59675997D01*
X132125608Y-59683363D01*
X132276474Y-59902874D01*
X132286727Y-59911218D01*
X132300468Y-59904072D01*
X133612978Y-58591562D01*
X133619356Y-58579882D01*
X134349408Y-58579882D01*
X134349539Y-58581715D01*
X134353790Y-58588330D01*
X135668033Y-59902573D01*
X135680242Y-59909240D01*
X135691742Y-59900550D01*
X135808777Y-59741225D01*
X135813364Y-59733997D01*
X135949667Y-59482959D01*
X135953235Y-59475165D01*
X136054205Y-59207956D01*
X136056682Y-59199750D01*
X136120454Y-58921308D01*
X136121794Y-58912847D01*
X136147349Y-58626514D01*
X136147595Y-58621575D01*
X136148017Y-58581235D01*
X136147874Y-58576269D01*
X136128322Y-58289468D01*
X136127161Y-58280994D01*
X136069231Y-58001262D01*
X136066932Y-57993027D01*
X135971574Y-57723743D01*
X135968177Y-57715893D01*
X135837155Y-57462042D01*
X135832727Y-57454730D01*
X135765913Y-57359664D01*
X135743000Y-57287213D01*
X135743000Y-57050865D01*
X135738525Y-57035626D01*
X135737135Y-57034421D01*
X135729452Y-57032750D01*
X135565557Y-57032750D01*
X135554532Y-57035987D01*
X135557770Y-57043078D01*
X135629731Y-57115039D01*
X135663757Y-57177351D01*
X135658692Y-57248166D01*
X135629731Y-57293229D01*
X134357022Y-58565938D01*
X134349408Y-58579882D01*
X133619356Y-58579882D01*
X133620592Y-58577618D01*
X133620461Y-58575785D01*
X133616210Y-58569170D01*
X132340269Y-57293229D01*
X132306243Y-57230917D01*
X132311308Y-57160102D01*
X132340269Y-57115039D01*
X132409746Y-57045562D01*
X132414974Y-57035987D01*
X132805300Y-57035987D01*
X132808538Y-57043078D01*
X133972188Y-58206728D01*
X133986132Y-58214342D01*
X133987965Y-58214211D01*
X133994580Y-58209960D01*
X135158978Y-57045562D01*
X135164487Y-57035473D01*
X135157186Y-57032750D01*
X132816325Y-57032750D01*
X132805300Y-57035987D01*
X132414974Y-57035987D01*
X132415255Y-57035473D01*
X132407954Y-57032750D01*
X132245116Y-57032750D01*
X132229877Y-57037225D01*
X132228672Y-57038615D01*
X132227001Y-57046298D01*
X132227001Y-57286521D01*
X132203323Y-57360047D01*
X132149155Y-57435429D01*
X132144636Y-57442718D01*
X132010973Y-57695164D01*
X132007487Y-57702992D01*
X131909318Y-57971249D01*
X131906929Y-57979472D01*
X131846074Y-58258580D01*
X131844825Y-58267035D01*
X131822412Y-58551828D01*
X131822323Y-58560379D01*
X125493500Y-58560379D01*
X125493499Y-57766173D01*
X125493499Y-57762050D01*
X125488457Y-57723743D01*
X125479379Y-57654786D01*
X125479378Y-57654784D01*
X125478301Y-57646599D01*
X125418800Y-57502952D01*
X125413771Y-57496398D01*
X125409644Y-57489250D01*
X125412721Y-57487474D01*
X125392992Y-57436518D01*
X125406563Y-57375903D01*
X125403539Y-57374557D01*
X125406223Y-57368529D01*
X125409527Y-57362806D01*
X125468542Y-57181178D01*
X125474882Y-57120862D01*
X125487814Y-56997815D01*
X125487814Y-56997814D01*
X125488504Y-56991250D01*
X125468542Y-56801322D01*
X125409527Y-56619694D01*
X125378466Y-56565894D01*
X125317341Y-56460024D01*
X125314040Y-56454306D01*
X125294428Y-56432524D01*
X125190675Y-56317295D01*
X125190674Y-56317294D01*
X125186253Y-56312384D01*
X125087157Y-56240386D01*
X125037094Y-56204013D01*
X125037093Y-56204012D01*
X125031752Y-56200132D01*
X125025724Y-56197448D01*
X125025722Y-56197447D01*
X124863319Y-56125141D01*
X124863318Y-56125141D01*
X124857288Y-56122456D01*
X124746123Y-56098827D01*
X124676944Y-56084122D01*
X124676939Y-56084122D01*
X124670487Y-56082750D01*
X124479513Y-56082750D01*
X124473061Y-56084122D01*
X124473056Y-56084122D01*
X124403877Y-56098827D01*
X124292712Y-56122456D01*
X124286682Y-56125141D01*
X124286681Y-56125141D01*
X124124278Y-56197447D01*
X124124276Y-56197448D01*
X124118248Y-56200132D01*
X124112907Y-56204012D01*
X124112906Y-56204013D01*
X124062843Y-56240386D01*
X123963747Y-56312384D01*
X123959326Y-56317294D01*
X123959325Y-56317295D01*
X123855573Y-56432524D01*
X123835960Y-56454306D01*
X123832659Y-56460024D01*
X123771535Y-56565894D01*
X123740473Y-56619694D01*
X123681458Y-56801322D01*
X123661496Y-56991250D01*
X123667205Y-57045562D01*
X123671268Y-57084221D01*
X123658496Y-57154059D01*
X123609994Y-57205906D01*
X123541161Y-57223301D01*
X123529513Y-57222314D01*
X123445760Y-57211288D01*
X123437548Y-57210750D01*
X123347115Y-57210750D01*
X123331876Y-57215225D01*
X123330671Y-57216615D01*
X123329000Y-57224298D01*
X123329000Y-58521750D01*
X123308998Y-58589871D01*
X123255342Y-58636364D01*
X123203000Y-58647750D01*
X122175115Y-58647750D01*
X122159876Y-58652225D01*
X122158671Y-58653615D01*
X122157000Y-58661298D01*
X122157000Y-58892464D01*
X122136998Y-58960585D01*
X122097120Y-58999721D01*
X122085788Y-59006707D01*
X122085786Y-59006709D01*
X122080901Y-59009720D01*
X122076644Y-59013564D01*
X121948554Y-59129227D01*
X121948551Y-59129231D01*
X121944301Y-59133068D01*
X121938751Y-59140304D01*
X121930654Y-59150860D01*
X121873324Y-59192738D01*
X121802454Y-59196973D01*
X121788618Y-59192948D01*
X121644833Y-59142031D01*
X121644825Y-59142029D01*
X121639954Y-59140304D01*
X121634861Y-59139397D01*
X121634858Y-59139396D01*
X121420857Y-59101277D01*
X121420851Y-59101276D01*
X121415768Y-59100371D01*
X121328698Y-59099307D01*
X121193239Y-59097652D01*
X121193237Y-59097652D01*
X121188070Y-59097589D01*
X120962976Y-59132033D01*
X120746529Y-59202779D01*
X120544544Y-59307926D01*
X120540411Y-59311029D01*
X120540408Y-59311031D01*
X120394220Y-59420792D01*
X120362444Y-59444650D01*
X120205120Y-59609280D01*
X120076797Y-59797395D01*
X119980921Y-60003942D01*
X119920067Y-60223375D01*
X119895869Y-60449800D01*
X119896166Y-60454952D01*
X119896166Y-60454956D01*
X119899793Y-60517853D01*
X119908977Y-60677137D01*
X119910112Y-60682174D01*
X119910113Y-60682180D01*
X119957901Y-60894232D01*
X119959039Y-60899281D01*
X119960983Y-60904067D01*
X119960984Y-60904072D01*
X120042767Y-61105478D01*
X120044711Y-61110265D01*
X120163692Y-61304424D01*
X120312786Y-61476543D01*
X120487989Y-61621999D01*
X120492441Y-61624601D01*
X120492446Y-61624604D01*
X120680139Y-61734283D01*
X120684597Y-61736888D01*
X120897329Y-61818122D01*
X120902395Y-61819153D01*
X120902396Y-61819153D01*
X120951494Y-61829142D01*
X121120472Y-61863521D01*
X121248288Y-61868208D01*
X121342870Y-61871677D01*
X121342875Y-61871677D01*
X121348034Y-61871866D01*
X121353154Y-61871210D01*
X121353156Y-61871210D01*
X121425344Y-61861962D01*
X121573903Y-61842931D01*
X121578857Y-61841445D01*
X121578865Y-61841443D01*
X121618472Y-61829560D01*
X121689467Y-61829142D01*
X121749418Y-61867174D01*
X121779290Y-61931581D01*
X121768797Y-62003661D01*
X121736083Y-62073551D01*
X121689519Y-62251619D01*
X121689096Y-62257342D01*
X121689096Y-62257343D01*
X121685573Y-62305020D01*
X121675957Y-62435173D01*
X121695845Y-62618151D01*
X121724414Y-62713790D01*
X121746879Y-62788994D01*
X121748525Y-62794505D01*
X121751130Y-62799605D01*
X121751132Y-62799609D01*
X121787618Y-62871029D01*
X121832258Y-62958411D01*
X121944277Y-63104452D01*
X122080881Y-63227803D01*
X122096622Y-63237507D01*
X122144112Y-63290281D01*
X122156500Y-63344763D01*
X122156501Y-64475450D01*
X122171699Y-64590901D01*
X122231200Y-64734548D01*
X122272950Y-64788957D01*
X122320822Y-64851346D01*
X122320825Y-64851349D01*
X122325851Y-64857899D01*
X122332401Y-64862925D01*
X122332402Y-64862926D01*
X122392204Y-64908813D01*
X122434071Y-64966151D01*
X122441500Y-65008776D01*
X122441500Y-69814983D01*
X122440973Y-69826166D01*
X122439298Y-69833659D01*
X122439547Y-69841585D01*
X122439547Y-69841586D01*
X122441438Y-69901736D01*
X122441500Y-69905695D01*
X122441500Y-69933606D01*
X122441997Y-69937540D01*
X122441997Y-69937541D01*
X122442005Y-69937606D01*
X122442938Y-69949443D01*
X122444327Y-69993639D01*
X122449902Y-70012827D01*
X122449978Y-70013089D01*
X122453987Y-70032450D01*
X122456526Y-70052547D01*
X122459445Y-70059918D01*
X122459445Y-70059920D01*
X122472804Y-70093662D01*
X122476649Y-70104892D01*
X122486771Y-70139733D01*
X122488982Y-70147343D01*
X122493015Y-70154162D01*
X122493017Y-70154167D01*
X122499293Y-70164778D01*
X122507988Y-70182526D01*
X122515448Y-70201367D01*
X122520110Y-70207783D01*
X122520110Y-70207784D01*
X122541436Y-70237137D01*
X122547952Y-70247057D01*
X122570458Y-70285112D01*
X122584779Y-70299433D01*
X122597619Y-70314466D01*
X122609528Y-70330857D01*
X122615634Y-70335908D01*
X122643605Y-70359048D01*
X122652384Y-70367038D01*
X123904595Y-71619249D01*
X123938621Y-71681561D01*
X123941500Y-71708344D01*
X123941500Y-76264774D01*
X123921498Y-76332895D01*
X123867842Y-76379388D01*
X123797568Y-76389492D01*
X123738796Y-76364737D01*
X123707096Y-76340413D01*
X123692915Y-76332226D01*
X123564650Y-76279096D01*
X123548833Y-76274858D01*
X123445757Y-76261288D01*
X123437548Y-76260750D01*
X123347115Y-76260750D01*
X123331876Y-76265225D01*
X123330671Y-76266615D01*
X123329000Y-76274298D01*
X123329000Y-77571750D01*
X123308998Y-77639871D01*
X123255342Y-77686364D01*
X123203000Y-77697750D01*
X122175115Y-77697750D01*
X122159876Y-77702225D01*
X122158671Y-77703615D01*
X122157000Y-77711298D01*
X122157000Y-77942464D01*
X122136998Y-78010585D01*
X122097120Y-78049721D01*
X122085788Y-78056707D01*
X122085786Y-78056709D01*
X122080901Y-78059720D01*
X121944301Y-78183068D01*
X121907993Y-78230403D01*
X121835777Y-78324552D01*
X121835774Y-78324556D01*
X121832286Y-78329104D01*
X121748555Y-78493004D01*
X121695875Y-78669354D01*
X121675988Y-78852325D01*
X121676410Y-78858038D01*
X121676410Y-78858042D01*
X121679518Y-78900100D01*
X121689549Y-79035874D01*
X121736111Y-79213936D01*
X121767655Y-79281326D01*
X121778417Y-79351502D01*
X121749531Y-79416357D01*
X121690167Y-79455299D01*
X121631443Y-79458788D01*
X121538810Y-79442288D01*
X121420857Y-79421277D01*
X121420851Y-79421276D01*
X121415768Y-79420371D01*
X121328698Y-79419307D01*
X121193239Y-79417652D01*
X121193237Y-79417652D01*
X121188070Y-79417589D01*
X120962976Y-79452033D01*
X120746529Y-79522779D01*
X120741937Y-79525169D01*
X120741938Y-79525169D01*
X120659077Y-79568304D01*
X120544544Y-79627926D01*
X120540411Y-79631029D01*
X120540408Y-79631031D01*
X120366579Y-79761545D01*
X120362444Y-79764650D01*
X120205120Y-79929280D01*
X120076797Y-80117395D01*
X119980921Y-80323942D01*
X119979539Y-80328924D01*
X119979539Y-80328925D01*
X119970610Y-80361121D01*
X119920067Y-80543375D01*
X119895869Y-80769800D01*
X119094750Y-80769800D01*
X119094750Y-77171635D01*
X122157000Y-77171635D01*
X122161475Y-77186874D01*
X122162865Y-77188079D01*
X122170548Y-77189750D01*
X122802885Y-77189750D01*
X122818124Y-77185275D01*
X122819329Y-77183885D01*
X122821000Y-77176202D01*
X122821000Y-76342237D01*
X122817027Y-76328706D01*
X122813841Y-76328248D01*
X122806324Y-76332623D01*
X122748343Y-76377679D01*
X122742456Y-76382874D01*
X122279164Y-76846166D01*
X122273899Y-76852140D01*
X122228418Y-76910826D01*
X122220024Y-76925298D01*
X122170894Y-77044200D01*
X122166629Y-77060343D01*
X122157490Y-77133198D01*
X122157000Y-77141043D01*
X122157000Y-77171635D01*
X119094750Y-77171635D01*
X119094750Y-58121635D01*
X122157000Y-58121635D01*
X122161475Y-58136874D01*
X122162865Y-58138079D01*
X122170548Y-58139750D01*
X122802885Y-58139750D01*
X122818124Y-58135275D01*
X122819329Y-58133885D01*
X122821000Y-58126202D01*
X122821000Y-57292237D01*
X122817027Y-57278706D01*
X122813841Y-57278248D01*
X122806324Y-57282623D01*
X122748343Y-57327679D01*
X122742456Y-57332874D01*
X122279164Y-57796166D01*
X122273899Y-57802140D01*
X122228418Y-57860826D01*
X122220024Y-57875298D01*
X122170894Y-57994200D01*
X122166629Y-58010343D01*
X122157490Y-58083198D01*
X122157000Y-58091043D01*
X122157000Y-58121635D01*
X119094750Y-58121635D01*
X119094750Y-55973343D01*
X127518039Y-55973343D01*
X127526848Y-56207966D01*
X127527943Y-56213184D01*
X127552794Y-56331621D01*
X127575062Y-56437751D01*
X127661302Y-56656127D01*
X127664071Y-56660690D01*
X127749409Y-56801322D01*
X127783104Y-56856850D01*
X127936985Y-57034182D01*
X127941117Y-57037570D01*
X128114416Y-57179667D01*
X128114422Y-57179671D01*
X128118544Y-57183051D01*
X128123180Y-57185690D01*
X128123183Y-57185692D01*
X128177507Y-57216615D01*
X128322590Y-57299201D01*
X128543289Y-57379311D01*
X128548538Y-57380260D01*
X128548541Y-57380261D01*
X128629615Y-57394921D01*
X128774330Y-57421090D01*
X128778469Y-57421285D01*
X128778476Y-57421286D01*
X128797440Y-57422180D01*
X128797449Y-57422180D01*
X128798929Y-57422250D01*
X128963950Y-57422250D01*
X129045299Y-57415347D01*
X129133637Y-57407852D01*
X129133641Y-57407851D01*
X129138948Y-57407401D01*
X129144103Y-57406063D01*
X129144109Y-57406062D01*
X129361035Y-57349759D01*
X129361034Y-57349759D01*
X129366206Y-57348417D01*
X129371072Y-57346225D01*
X129371075Y-57346224D01*
X129575417Y-57254174D01*
X129575420Y-57254173D01*
X129580278Y-57251984D01*
X129775041Y-57120862D01*
X129944927Y-56958799D01*
X130085078Y-56770429D01*
X130145719Y-56651158D01*
X130189069Y-56565894D01*
X130189069Y-56565893D01*
X130191487Y-56561138D01*
X130208410Y-56506635D01*
X132227000Y-56506635D01*
X132231475Y-56521874D01*
X132232865Y-56523079D01*
X132240548Y-56524750D01*
X133712885Y-56524750D01*
X133728124Y-56520275D01*
X133729329Y-56518885D01*
X133731000Y-56511202D01*
X133731000Y-56506635D01*
X134239000Y-56506635D01*
X134243475Y-56521874D01*
X134244865Y-56523079D01*
X134252548Y-56524750D01*
X135724884Y-56524750D01*
X135740123Y-56520275D01*
X135741328Y-56518885D01*
X135742999Y-56511202D01*
X135742999Y-56104131D01*
X135743000Y-56104095D01*
X135743000Y-55300865D01*
X135738525Y-55285626D01*
X135737135Y-55284421D01*
X135729452Y-55282750D01*
X134257115Y-55282750D01*
X134241876Y-55287225D01*
X134240671Y-55288615D01*
X134239000Y-55296298D01*
X134239000Y-56506635D01*
X133731000Y-56506635D01*
X133731000Y-55300865D01*
X133726525Y-55285626D01*
X133725135Y-55284421D01*
X133717452Y-55282750D01*
X132245116Y-55282750D01*
X132229877Y-55287225D01*
X132228672Y-55288615D01*
X132227001Y-55296298D01*
X132227001Y-55905645D01*
X132227000Y-55905677D01*
X132227000Y-56506635D01*
X130208410Y-56506635D01*
X130261111Y-56336910D01*
X130278726Y-56204013D01*
X130291261Y-56109440D01*
X130291261Y-56109437D01*
X130291961Y-56104157D01*
X130283152Y-55869534D01*
X130265358Y-55784728D01*
X130236035Y-55644976D01*
X130236034Y-55644973D01*
X130234938Y-55639749D01*
X130148698Y-55421373D01*
X130075572Y-55300865D01*
X130029664Y-55225211D01*
X130029662Y-55225208D01*
X130026896Y-55220650D01*
X129873015Y-55043318D01*
X129862938Y-55035056D01*
X129695584Y-54897833D01*
X129695578Y-54897829D01*
X129691456Y-54894449D01*
X129686820Y-54891810D01*
X129686817Y-54891808D01*
X129492053Y-54780942D01*
X129487410Y-54778299D01*
X129427727Y-54756635D01*
X132227000Y-54756635D01*
X132231475Y-54771874D01*
X132232865Y-54773079D01*
X132240548Y-54774750D01*
X133712885Y-54774750D01*
X133728124Y-54770275D01*
X133729329Y-54768885D01*
X133731000Y-54761202D01*
X133731000Y-54756635D01*
X134239000Y-54756635D01*
X134243475Y-54771874D01*
X134244865Y-54773079D01*
X134252548Y-54774750D01*
X135724884Y-54774750D01*
X135740123Y-54770275D01*
X135741328Y-54768885D01*
X135742999Y-54761202D01*
X135742999Y-53956655D01*
X135742662Y-53950136D01*
X135732743Y-53854544D01*
X135729851Y-53841150D01*
X135678412Y-53686966D01*
X135672239Y-53673788D01*
X135586937Y-53535943D01*
X135577901Y-53524542D01*
X135463171Y-53410011D01*
X135451760Y-53400999D01*
X135313757Y-53315934D01*
X135300576Y-53309787D01*
X135146290Y-53258612D01*
X135132914Y-53255745D01*
X135038562Y-53246078D01*
X135032145Y-53245750D01*
X134257115Y-53245750D01*
X134241876Y-53250225D01*
X134240671Y-53251615D01*
X134239000Y-53259298D01*
X134239000Y-54756635D01*
X133731000Y-54756635D01*
X133731000Y-53263866D01*
X133726525Y-53248627D01*
X133725135Y-53247422D01*
X133717452Y-53245751D01*
X132937905Y-53245751D01*
X132931386Y-53246088D01*
X132835794Y-53256007D01*
X132822400Y-53258899D01*
X132668216Y-53310338D01*
X132655038Y-53316511D01*
X132517193Y-53401813D01*
X132505792Y-53410849D01*
X132391261Y-53525579D01*
X132382249Y-53536990D01*
X132297184Y-53674993D01*
X132291037Y-53688174D01*
X132239862Y-53842460D01*
X132236995Y-53855836D01*
X132227328Y-53950188D01*
X132227000Y-53956605D01*
X132227000Y-54756635D01*
X129427727Y-54756635D01*
X129266711Y-54698189D01*
X129261462Y-54697240D01*
X129261459Y-54697239D01*
X129180385Y-54682579D01*
X129035670Y-54656410D01*
X129031531Y-54656215D01*
X129031524Y-54656214D01*
X129012560Y-54655320D01*
X129012551Y-54655320D01*
X129011071Y-54655250D01*
X128846050Y-54655250D01*
X128764701Y-54662153D01*
X128676363Y-54669648D01*
X128676359Y-54669649D01*
X128671052Y-54670099D01*
X128665897Y-54671437D01*
X128665891Y-54671438D01*
X128488177Y-54717564D01*
X128443794Y-54729083D01*
X128438928Y-54731275D01*
X128438925Y-54731276D01*
X128234583Y-54823326D01*
X128234580Y-54823327D01*
X128229722Y-54825516D01*
X128034959Y-54956638D01*
X127865073Y-55118701D01*
X127724922Y-55307071D01*
X127722506Y-55311822D01*
X127722504Y-55311826D01*
X127620931Y-55511606D01*
X127618513Y-55516362D01*
X127548889Y-55740590D01*
X127548188Y-55745879D01*
X127531092Y-55874866D01*
X127518039Y-55973343D01*
X119094750Y-55973343D01*
X119094750Y-47678250D01*
X119096496Y-47657345D01*
X119099020Y-47642344D01*
X119099020Y-47642341D01*
X119099826Y-47637552D01*
X119099979Y-47625000D01*
X119098792Y-47616709D01*
X119097999Y-47587869D01*
X119110184Y-47448606D01*
X119113997Y-47426979D01*
X119141590Y-47323994D01*
X119156970Y-47266594D01*
X119164478Y-47245964D01*
X119234653Y-47095473D01*
X119245633Y-47076455D01*
X119340866Y-46940444D01*
X119354983Y-46923619D01*
X119472390Y-46806208D01*
X119489214Y-46792090D01*
X119625224Y-46696851D01*
X119644244Y-46685870D01*
X119794729Y-46615693D01*
X119815368Y-46608180D01*
X119975751Y-46565201D01*
X119997380Y-46561387D01*
X120076812Y-46554435D01*
X120132953Y-46549522D01*
X120149640Y-46550083D01*
X120149645Y-46549701D01*
X120158620Y-46549810D01*
X120167490Y-46551191D01*
X120176390Y-46550027D01*
X120176392Y-46550027D01*
X120199044Y-46547064D01*
X120215385Y-46546000D01*
X137586875Y-46546000D01*
X137606265Y-46547501D01*
G37*
%TD.AperFunction*%
%TD*%
M02*
