%TF.GenerationSoftware,KiCad,Pcbnew,(6.0.7-1)-1*%
%TF.CreationDate,2022-12-25T16:24:31+07:00*%
%TF.ProjectId,pcb,7063622e-6b69-4636-9164-5f7063625858,rev?*%
%TF.SameCoordinates,Original*%
%TF.FileFunction,Drillmap*%
%TF.FilePolarity,Positive*%
%FSLAX45Y45*%
G04 Gerber Fmt 4.5, Leading zero omitted, Abs format (unit mm)*
G04 Created by KiCad (PCBNEW (6.0.7-1)-1) date 2022-12-25 16:24:31*
%MOMM*%
%LPD*%
G01*
G04 APERTURE LIST*
%ADD10C,0.100000*%
%ADD11C,0.200000*%
%ADD12C,0.040000*%
%ADD13C,0.109220*%
%ADD14C,0.300000*%
G04 APERTURE END LIST*
D10*
X13922375Y-9207500D02*
X13922375Y-4921250D01*
X12017375Y-4603745D02*
G75*
G03*
X11858625Y-4762500I5J-158755D01*
G01*
X13922370Y-4762500D02*
G75*
G03*
X13763625Y-4603750I-158750J0D01*
G01*
X11858625Y-4921250D02*
X11858625Y-9207500D01*
X12017375Y-9525000D02*
X13763625Y-9525000D01*
X11858625Y-4921250D02*
X11858625Y-4762500D01*
X13922375Y-9207500D02*
X13922375Y-9366250D01*
X13763625Y-4603750D02*
X12017375Y-4603750D01*
X11858630Y-9366250D02*
G75*
G03*
X12017375Y-9525000I158750J0D01*
G01*
X11858625Y-9207500D02*
X11858625Y-9366250D01*
X13922375Y-4921250D02*
X13922375Y-4762500D01*
X13763625Y-9525005D02*
G75*
G03*
X13922375Y-9366250I-5J158755D01*
G01*
D11*
D12*
X12437500Y-5679125D02*
X12477500Y-5719125D01*
X12477500Y-5679125D02*
X12437500Y-5719125D01*
X12437500Y-6509000D02*
X12477500Y-6549000D01*
X12477500Y-6509000D02*
X12437500Y-6549000D01*
D13*
X12183110Y-6048375D02*
G75*
G03*
X12183110Y-6048375I-54610J0D01*
G01*
X12183110Y-8080375D02*
G75*
G03*
X12183110Y-8080375I-54610J0D01*
G01*
X12183110Y-8588375D02*
G75*
G03*
X12183110Y-8588375I-54610J0D01*
G01*
X12183110Y-8842375D02*
G75*
G03*
X12183110Y-8842375I-54610J0D01*
G01*
X13707110Y-6810375D02*
G75*
G03*
X13707110Y-6810375I-54610J0D01*
G01*
X13707110Y-7064375D02*
G75*
G03*
X13707110Y-7064375I-54610J0D01*
G01*
X13707110Y-8080375D02*
G75*
G03*
X13707110Y-8080375I-54610J0D01*
G01*
X13707110Y-8334375D02*
G75*
G03*
X13707110Y-8334375I-54610J0D01*
G01*
D14*
X13144500Y-6342875D02*
X13144500Y-6642875D01*
X12994500Y-6492875D02*
X13294500Y-6492875D01*
X13144500Y-8247875D02*
X13144500Y-8547875D01*
X12994500Y-8397875D02*
X13294500Y-8397875D01*
X13398500Y-5707875D02*
X13398500Y-6007875D01*
X13248500Y-5857875D02*
X13548500Y-5857875D01*
X13398500Y-7612875D02*
X13398500Y-7912875D01*
X13248500Y-7762875D02*
X13548500Y-7762875D01*
D11*
X12111244Y-9840476D02*
X12111244Y-9640476D01*
X12158863Y-9640476D01*
X12187434Y-9650000D01*
X12206482Y-9669048D01*
X12216006Y-9688095D01*
X12225530Y-9726190D01*
X12225530Y-9754762D01*
X12216006Y-9792857D01*
X12206482Y-9811905D01*
X12187434Y-9830952D01*
X12158863Y-9840476D01*
X12111244Y-9840476D01*
X12311244Y-9840476D02*
X12311244Y-9707143D01*
X12311244Y-9745238D02*
X12320768Y-9726190D01*
X12330292Y-9716667D01*
X12349339Y-9707143D01*
X12368387Y-9707143D01*
X12435053Y-9840476D02*
X12435053Y-9707143D01*
X12435053Y-9640476D02*
X12425530Y-9650000D01*
X12435053Y-9659524D01*
X12444577Y-9650000D01*
X12435053Y-9640476D01*
X12435053Y-9659524D01*
X12558863Y-9840476D02*
X12539815Y-9830952D01*
X12530292Y-9811905D01*
X12530292Y-9640476D01*
X12663625Y-9840476D02*
X12644577Y-9830952D01*
X12635053Y-9811905D01*
X12635053Y-9640476D01*
X12892196Y-9840476D02*
X12892196Y-9640476D01*
X12958863Y-9783333D01*
X13025530Y-9640476D01*
X13025530Y-9840476D01*
X13206482Y-9840476D02*
X13206482Y-9735714D01*
X13196958Y-9716667D01*
X13177911Y-9707143D01*
X13139815Y-9707143D01*
X13120768Y-9716667D01*
X13206482Y-9830952D02*
X13187434Y-9840476D01*
X13139815Y-9840476D01*
X13120768Y-9830952D01*
X13111244Y-9811905D01*
X13111244Y-9792857D01*
X13120768Y-9773810D01*
X13139815Y-9764286D01*
X13187434Y-9764286D01*
X13206482Y-9754762D01*
X13301720Y-9707143D02*
X13301720Y-9907143D01*
X13301720Y-9716667D02*
X13320768Y-9707143D01*
X13358863Y-9707143D01*
X13377911Y-9716667D01*
X13387434Y-9726190D01*
X13396958Y-9745238D01*
X13396958Y-9802381D01*
X13387434Y-9821429D01*
X13377911Y-9830952D01*
X13358863Y-9840476D01*
X13320768Y-9840476D01*
X13301720Y-9830952D01*
X13482673Y-9821429D02*
X13492196Y-9830952D01*
X13482673Y-9840476D01*
X13473149Y-9830952D01*
X13482673Y-9821429D01*
X13482673Y-9840476D01*
X13482673Y-9716667D02*
X13492196Y-9726190D01*
X13482673Y-9735714D01*
X13473149Y-9726190D01*
X13482673Y-9716667D01*
X13482673Y-9735714D01*
D12*
X11813625Y-10150000D02*
X11853625Y-10190000D01*
X11853625Y-10150000D02*
X11813625Y-10190000D01*
D11*
X12149339Y-10060476D02*
X12168387Y-10060476D01*
X12187434Y-10070000D01*
X12196958Y-10079524D01*
X12206482Y-10098571D01*
X12216006Y-10136667D01*
X12216006Y-10184286D01*
X12206482Y-10222381D01*
X12196958Y-10241429D01*
X12187434Y-10250952D01*
X12168387Y-10260476D01*
X12149339Y-10260476D01*
X12130292Y-10250952D01*
X12120768Y-10241429D01*
X12111244Y-10222381D01*
X12101720Y-10184286D01*
X12101720Y-10136667D01*
X12111244Y-10098571D01*
X12120768Y-10079524D01*
X12130292Y-10070000D01*
X12149339Y-10060476D01*
X12301720Y-10241429D02*
X12311244Y-10250952D01*
X12301720Y-10260476D01*
X12292196Y-10250952D01*
X12301720Y-10241429D01*
X12301720Y-10260476D01*
X12482673Y-10127143D02*
X12482673Y-10260476D01*
X12435053Y-10050952D02*
X12387434Y-10193810D01*
X12511244Y-10193810D01*
X12625530Y-10060476D02*
X12644577Y-10060476D01*
X12663625Y-10070000D01*
X12673149Y-10079524D01*
X12682673Y-10098571D01*
X12692196Y-10136667D01*
X12692196Y-10184286D01*
X12682673Y-10222381D01*
X12673149Y-10241429D01*
X12663625Y-10250952D01*
X12644577Y-10260476D01*
X12625530Y-10260476D01*
X12606482Y-10250952D01*
X12596958Y-10241429D01*
X12587434Y-10222381D01*
X12577911Y-10184286D01*
X12577911Y-10136667D01*
X12587434Y-10098571D01*
X12596958Y-10079524D01*
X12606482Y-10070000D01*
X12625530Y-10060476D01*
X12816006Y-10060476D02*
X12835053Y-10060476D01*
X12854101Y-10070000D01*
X12863625Y-10079524D01*
X12873149Y-10098571D01*
X12882673Y-10136667D01*
X12882673Y-10184286D01*
X12873149Y-10222381D01*
X12863625Y-10241429D01*
X12854101Y-10250952D01*
X12835053Y-10260476D01*
X12816006Y-10260476D01*
X12796958Y-10250952D01*
X12787434Y-10241429D01*
X12777911Y-10222381D01*
X12768387Y-10184286D01*
X12768387Y-10136667D01*
X12777911Y-10098571D01*
X12787434Y-10079524D01*
X12796958Y-10070000D01*
X12816006Y-10060476D01*
X12968387Y-10260476D02*
X12968387Y-10127143D01*
X12968387Y-10146190D02*
X12977911Y-10136667D01*
X12996958Y-10127143D01*
X13025530Y-10127143D01*
X13044577Y-10136667D01*
X13054101Y-10155714D01*
X13054101Y-10260476D01*
X13054101Y-10155714D02*
X13063625Y-10136667D01*
X13082673Y-10127143D01*
X13111244Y-10127143D01*
X13130292Y-10136667D01*
X13139815Y-10155714D01*
X13139815Y-10260476D01*
X13235053Y-10260476D02*
X13235053Y-10127143D01*
X13235053Y-10146190D02*
X13244577Y-10136667D01*
X13263625Y-10127143D01*
X13292196Y-10127143D01*
X13311244Y-10136667D01*
X13320768Y-10155714D01*
X13320768Y-10260476D01*
X13320768Y-10155714D02*
X13330292Y-10136667D01*
X13349339Y-10127143D01*
X13377911Y-10127143D01*
X13396958Y-10136667D01*
X13406482Y-10155714D01*
X13406482Y-10260476D01*
X13796958Y-10050952D02*
X13625530Y-10308095D01*
X14054101Y-10060476D02*
X14073149Y-10060476D01*
X14092196Y-10070000D01*
X14101720Y-10079524D01*
X14111244Y-10098571D01*
X14120768Y-10136667D01*
X14120768Y-10184286D01*
X14111244Y-10222381D01*
X14101720Y-10241429D01*
X14092196Y-10250952D01*
X14073149Y-10260476D01*
X14054101Y-10260476D01*
X14035053Y-10250952D01*
X14025530Y-10241429D01*
X14016006Y-10222381D01*
X14006482Y-10184286D01*
X14006482Y-10136667D01*
X14016006Y-10098571D01*
X14025530Y-10079524D01*
X14035053Y-10070000D01*
X14054101Y-10060476D01*
X14206482Y-10241429D02*
X14216006Y-10250952D01*
X14206482Y-10260476D01*
X14196958Y-10250952D01*
X14206482Y-10241429D01*
X14206482Y-10260476D01*
X14339815Y-10060476D02*
X14358863Y-10060476D01*
X14377911Y-10070000D01*
X14387434Y-10079524D01*
X14396958Y-10098571D01*
X14406482Y-10136667D01*
X14406482Y-10184286D01*
X14396958Y-10222381D01*
X14387434Y-10241429D01*
X14377911Y-10250952D01*
X14358863Y-10260476D01*
X14339815Y-10260476D01*
X14320768Y-10250952D01*
X14311244Y-10241429D01*
X14301720Y-10222381D01*
X14292196Y-10184286D01*
X14292196Y-10136667D01*
X14301720Y-10098571D01*
X14311244Y-10079524D01*
X14320768Y-10070000D01*
X14339815Y-10060476D01*
X14596958Y-10260476D02*
X14482673Y-10260476D01*
X14539815Y-10260476D02*
X14539815Y-10060476D01*
X14520768Y-10089048D01*
X14501720Y-10108095D01*
X14482673Y-10117619D01*
X14777911Y-10060476D02*
X14682673Y-10060476D01*
X14673149Y-10155714D01*
X14682673Y-10146190D01*
X14701720Y-10136667D01*
X14749339Y-10136667D01*
X14768387Y-10146190D01*
X14777911Y-10155714D01*
X14787434Y-10174762D01*
X14787434Y-10222381D01*
X14777911Y-10241429D01*
X14768387Y-10250952D01*
X14749339Y-10260476D01*
X14701720Y-10260476D01*
X14682673Y-10250952D01*
X14673149Y-10241429D01*
X14854101Y-10060476D02*
X14987434Y-10060476D01*
X14901720Y-10260476D01*
X15054101Y-10060476D02*
X15054101Y-10098571D01*
X15130292Y-10060476D02*
X15130292Y-10098571D01*
X15425530Y-10336667D02*
X15416006Y-10327143D01*
X15396958Y-10298571D01*
X15387434Y-10279524D01*
X15377911Y-10250952D01*
X15368387Y-10203333D01*
X15368387Y-10165238D01*
X15377911Y-10117619D01*
X15387434Y-10089048D01*
X15396958Y-10070000D01*
X15416006Y-10041429D01*
X15425530Y-10031905D01*
X15492196Y-10079524D02*
X15501720Y-10070000D01*
X15520768Y-10060476D01*
X15568387Y-10060476D01*
X15587434Y-10070000D01*
X15596958Y-10079524D01*
X15606482Y-10098571D01*
X15606482Y-10117619D01*
X15596958Y-10146190D01*
X15482673Y-10260476D01*
X15606482Y-10260476D01*
X15844577Y-10260476D02*
X15844577Y-10060476D01*
X15930292Y-10260476D02*
X15930292Y-10155714D01*
X15920768Y-10136667D01*
X15901720Y-10127143D01*
X15873149Y-10127143D01*
X15854101Y-10136667D01*
X15844577Y-10146190D01*
X16054101Y-10260476D02*
X16035053Y-10250952D01*
X16025530Y-10241429D01*
X16016006Y-10222381D01*
X16016006Y-10165238D01*
X16025530Y-10146190D01*
X16035053Y-10136667D01*
X16054101Y-10127143D01*
X16082673Y-10127143D01*
X16101720Y-10136667D01*
X16111244Y-10146190D01*
X16120768Y-10165238D01*
X16120768Y-10222381D01*
X16111244Y-10241429D01*
X16101720Y-10250952D01*
X16082673Y-10260476D01*
X16054101Y-10260476D01*
X16235053Y-10260476D02*
X16216006Y-10250952D01*
X16206482Y-10231905D01*
X16206482Y-10060476D01*
X16387434Y-10250952D02*
X16368387Y-10260476D01*
X16330292Y-10260476D01*
X16311244Y-10250952D01*
X16301720Y-10231905D01*
X16301720Y-10155714D01*
X16311244Y-10136667D01*
X16330292Y-10127143D01*
X16368387Y-10127143D01*
X16387434Y-10136667D01*
X16396958Y-10155714D01*
X16396958Y-10174762D01*
X16301720Y-10193810D01*
X16473149Y-10250952D02*
X16492196Y-10260476D01*
X16530292Y-10260476D01*
X16549339Y-10250952D01*
X16558863Y-10231905D01*
X16558863Y-10222381D01*
X16549339Y-10203333D01*
X16530292Y-10193810D01*
X16501720Y-10193810D01*
X16482673Y-10184286D01*
X16473149Y-10165238D01*
X16473149Y-10155714D01*
X16482673Y-10136667D01*
X16501720Y-10127143D01*
X16530292Y-10127143D01*
X16549339Y-10136667D01*
X16625530Y-10336667D02*
X16635053Y-10327143D01*
X16654101Y-10298571D01*
X16663625Y-10279524D01*
X16673149Y-10250952D01*
X16682673Y-10203333D01*
X16682673Y-10165238D01*
X16673149Y-10117619D01*
X16663625Y-10089048D01*
X16654101Y-10070000D01*
X16635053Y-10041429D01*
X16625530Y-10031905D01*
D13*
X11853625Y-10434000D02*
G75*
G03*
X11853625Y-10434000I-54610J0D01*
G01*
D11*
X12216006Y-10524476D02*
X12101720Y-10524476D01*
X12158863Y-10524476D02*
X12158863Y-10324476D01*
X12139815Y-10353048D01*
X12120768Y-10372095D01*
X12101720Y-10381619D01*
X12301720Y-10505429D02*
X12311244Y-10514952D01*
X12301720Y-10524476D01*
X12292196Y-10514952D01*
X12301720Y-10505429D01*
X12301720Y-10524476D01*
X12435053Y-10324476D02*
X12454101Y-10324476D01*
X12473149Y-10334000D01*
X12482673Y-10343524D01*
X12492196Y-10362571D01*
X12501720Y-10400667D01*
X12501720Y-10448286D01*
X12492196Y-10486381D01*
X12482673Y-10505429D01*
X12473149Y-10514952D01*
X12454101Y-10524476D01*
X12435053Y-10524476D01*
X12416006Y-10514952D01*
X12406482Y-10505429D01*
X12396958Y-10486381D01*
X12387434Y-10448286D01*
X12387434Y-10400667D01*
X12396958Y-10362571D01*
X12406482Y-10343524D01*
X12416006Y-10334000D01*
X12435053Y-10324476D01*
X12596958Y-10524476D02*
X12635053Y-10524476D01*
X12654101Y-10514952D01*
X12663625Y-10505429D01*
X12682673Y-10476857D01*
X12692196Y-10438762D01*
X12692196Y-10362571D01*
X12682673Y-10343524D01*
X12673149Y-10334000D01*
X12654101Y-10324476D01*
X12616006Y-10324476D01*
X12596958Y-10334000D01*
X12587434Y-10343524D01*
X12577911Y-10362571D01*
X12577911Y-10410190D01*
X12587434Y-10429238D01*
X12596958Y-10438762D01*
X12616006Y-10448286D01*
X12654101Y-10448286D01*
X12673149Y-10438762D01*
X12682673Y-10429238D01*
X12692196Y-10410190D01*
X12768387Y-10343524D02*
X12777911Y-10334000D01*
X12796958Y-10324476D01*
X12844577Y-10324476D01*
X12863625Y-10334000D01*
X12873149Y-10343524D01*
X12882673Y-10362571D01*
X12882673Y-10381619D01*
X12873149Y-10410190D01*
X12758863Y-10524476D01*
X12882673Y-10524476D01*
X12968387Y-10524476D02*
X12968387Y-10391143D01*
X12968387Y-10410190D02*
X12977911Y-10400667D01*
X12996958Y-10391143D01*
X13025530Y-10391143D01*
X13044577Y-10400667D01*
X13054101Y-10419714D01*
X13054101Y-10524476D01*
X13054101Y-10419714D02*
X13063625Y-10400667D01*
X13082673Y-10391143D01*
X13111244Y-10391143D01*
X13130292Y-10400667D01*
X13139815Y-10419714D01*
X13139815Y-10524476D01*
X13235053Y-10524476D02*
X13235053Y-10391143D01*
X13235053Y-10410190D02*
X13244577Y-10400667D01*
X13263625Y-10391143D01*
X13292196Y-10391143D01*
X13311244Y-10400667D01*
X13320768Y-10419714D01*
X13320768Y-10524476D01*
X13320768Y-10419714D02*
X13330292Y-10400667D01*
X13349339Y-10391143D01*
X13377911Y-10391143D01*
X13396958Y-10400667D01*
X13406482Y-10419714D01*
X13406482Y-10524476D01*
X13796958Y-10314952D02*
X13625530Y-10572095D01*
X14054101Y-10324476D02*
X14073149Y-10324476D01*
X14092196Y-10334000D01*
X14101720Y-10343524D01*
X14111244Y-10362571D01*
X14120768Y-10400667D01*
X14120768Y-10448286D01*
X14111244Y-10486381D01*
X14101720Y-10505429D01*
X14092196Y-10514952D01*
X14073149Y-10524476D01*
X14054101Y-10524476D01*
X14035053Y-10514952D01*
X14025530Y-10505429D01*
X14016006Y-10486381D01*
X14006482Y-10448286D01*
X14006482Y-10400667D01*
X14016006Y-10362571D01*
X14025530Y-10343524D01*
X14035053Y-10334000D01*
X14054101Y-10324476D01*
X14206482Y-10505429D02*
X14216006Y-10514952D01*
X14206482Y-10524476D01*
X14196958Y-10514952D01*
X14206482Y-10505429D01*
X14206482Y-10524476D01*
X14339815Y-10324476D02*
X14358863Y-10324476D01*
X14377911Y-10334000D01*
X14387434Y-10343524D01*
X14396958Y-10362571D01*
X14406482Y-10400667D01*
X14406482Y-10448286D01*
X14396958Y-10486381D01*
X14387434Y-10505429D01*
X14377911Y-10514952D01*
X14358863Y-10524476D01*
X14339815Y-10524476D01*
X14320768Y-10514952D01*
X14311244Y-10505429D01*
X14301720Y-10486381D01*
X14292196Y-10448286D01*
X14292196Y-10400667D01*
X14301720Y-10362571D01*
X14311244Y-10343524D01*
X14320768Y-10334000D01*
X14339815Y-10324476D01*
X14577911Y-10391143D02*
X14577911Y-10524476D01*
X14530292Y-10314952D02*
X14482673Y-10457810D01*
X14606482Y-10457810D01*
X14663625Y-10324476D02*
X14787434Y-10324476D01*
X14720768Y-10400667D01*
X14749339Y-10400667D01*
X14768387Y-10410190D01*
X14777911Y-10419714D01*
X14787434Y-10438762D01*
X14787434Y-10486381D01*
X14777911Y-10505429D01*
X14768387Y-10514952D01*
X14749339Y-10524476D01*
X14692196Y-10524476D01*
X14673149Y-10514952D01*
X14663625Y-10505429D01*
X14911244Y-10324476D02*
X14930292Y-10324476D01*
X14949339Y-10334000D01*
X14958863Y-10343524D01*
X14968387Y-10362571D01*
X14977911Y-10400667D01*
X14977911Y-10448286D01*
X14968387Y-10486381D01*
X14958863Y-10505429D01*
X14949339Y-10514952D01*
X14930292Y-10524476D01*
X14911244Y-10524476D01*
X14892196Y-10514952D01*
X14882673Y-10505429D01*
X14873149Y-10486381D01*
X14863625Y-10448286D01*
X14863625Y-10400667D01*
X14873149Y-10362571D01*
X14882673Y-10343524D01*
X14892196Y-10334000D01*
X14911244Y-10324476D01*
X15054101Y-10324476D02*
X15054101Y-10362571D01*
X15130292Y-10324476D02*
X15130292Y-10362571D01*
X15425530Y-10600667D02*
X15416006Y-10591143D01*
X15396958Y-10562571D01*
X15387434Y-10543524D01*
X15377911Y-10514952D01*
X15368387Y-10467333D01*
X15368387Y-10429238D01*
X15377911Y-10381619D01*
X15387434Y-10353048D01*
X15396958Y-10334000D01*
X15416006Y-10305429D01*
X15425530Y-10295905D01*
X15530292Y-10410190D02*
X15511244Y-10400667D01*
X15501720Y-10391143D01*
X15492196Y-10372095D01*
X15492196Y-10362571D01*
X15501720Y-10343524D01*
X15511244Y-10334000D01*
X15530292Y-10324476D01*
X15568387Y-10324476D01*
X15587434Y-10334000D01*
X15596958Y-10343524D01*
X15606482Y-10362571D01*
X15606482Y-10372095D01*
X15596958Y-10391143D01*
X15587434Y-10400667D01*
X15568387Y-10410190D01*
X15530292Y-10410190D01*
X15511244Y-10419714D01*
X15501720Y-10429238D01*
X15492196Y-10448286D01*
X15492196Y-10486381D01*
X15501720Y-10505429D01*
X15511244Y-10514952D01*
X15530292Y-10524476D01*
X15568387Y-10524476D01*
X15587434Y-10514952D01*
X15596958Y-10505429D01*
X15606482Y-10486381D01*
X15606482Y-10448286D01*
X15596958Y-10429238D01*
X15587434Y-10419714D01*
X15568387Y-10410190D01*
X15844577Y-10524476D02*
X15844577Y-10324476D01*
X15930292Y-10524476D02*
X15930292Y-10419714D01*
X15920768Y-10400667D01*
X15901720Y-10391143D01*
X15873149Y-10391143D01*
X15854101Y-10400667D01*
X15844577Y-10410190D01*
X16054101Y-10524476D02*
X16035053Y-10514952D01*
X16025530Y-10505429D01*
X16016006Y-10486381D01*
X16016006Y-10429238D01*
X16025530Y-10410190D01*
X16035053Y-10400667D01*
X16054101Y-10391143D01*
X16082673Y-10391143D01*
X16101720Y-10400667D01*
X16111244Y-10410190D01*
X16120768Y-10429238D01*
X16120768Y-10486381D01*
X16111244Y-10505429D01*
X16101720Y-10514952D01*
X16082673Y-10524476D01*
X16054101Y-10524476D01*
X16235053Y-10524476D02*
X16216006Y-10514952D01*
X16206482Y-10495905D01*
X16206482Y-10324476D01*
X16387434Y-10514952D02*
X16368387Y-10524476D01*
X16330292Y-10524476D01*
X16311244Y-10514952D01*
X16301720Y-10495905D01*
X16301720Y-10419714D01*
X16311244Y-10400667D01*
X16330292Y-10391143D01*
X16368387Y-10391143D01*
X16387434Y-10400667D01*
X16396958Y-10419714D01*
X16396958Y-10438762D01*
X16301720Y-10457810D01*
X16473149Y-10514952D02*
X16492196Y-10524476D01*
X16530292Y-10524476D01*
X16549339Y-10514952D01*
X16558863Y-10495905D01*
X16558863Y-10486381D01*
X16549339Y-10467333D01*
X16530292Y-10457810D01*
X16501720Y-10457810D01*
X16482673Y-10448286D01*
X16473149Y-10429238D01*
X16473149Y-10419714D01*
X16482673Y-10400667D01*
X16501720Y-10391143D01*
X16530292Y-10391143D01*
X16549339Y-10400667D01*
X16625530Y-10600667D02*
X16635053Y-10591143D01*
X16654101Y-10562571D01*
X16663625Y-10543524D01*
X16673149Y-10514952D01*
X16682673Y-10467333D01*
X16682673Y-10429238D01*
X16673149Y-10381619D01*
X16663625Y-10353048D01*
X16654101Y-10334000D01*
X16635053Y-10305429D01*
X16625530Y-10295905D01*
X11753625Y-10598000D02*
X11753625Y-10798000D01*
X11653625Y-10698000D02*
X11853625Y-10698000D01*
X12092196Y-10588476D02*
X12216006Y-10588476D01*
X12149339Y-10664667D01*
X12177911Y-10664667D01*
X12196958Y-10674190D01*
X12206482Y-10683714D01*
X12216006Y-10702762D01*
X12216006Y-10750381D01*
X12206482Y-10769429D01*
X12196958Y-10778952D01*
X12177911Y-10788476D01*
X12120768Y-10788476D01*
X12101720Y-10778952D01*
X12092196Y-10769429D01*
X12301720Y-10769429D02*
X12311244Y-10778952D01*
X12301720Y-10788476D01*
X12292196Y-10778952D01*
X12301720Y-10769429D01*
X12301720Y-10788476D01*
X12435053Y-10588476D02*
X12454101Y-10588476D01*
X12473149Y-10598000D01*
X12482673Y-10607524D01*
X12492196Y-10626571D01*
X12501720Y-10664667D01*
X12501720Y-10712286D01*
X12492196Y-10750381D01*
X12482673Y-10769429D01*
X12473149Y-10778952D01*
X12454101Y-10788476D01*
X12435053Y-10788476D01*
X12416006Y-10778952D01*
X12406482Y-10769429D01*
X12396958Y-10750381D01*
X12387434Y-10712286D01*
X12387434Y-10664667D01*
X12396958Y-10626571D01*
X12406482Y-10607524D01*
X12416006Y-10598000D01*
X12435053Y-10588476D01*
X12625530Y-10588476D02*
X12644577Y-10588476D01*
X12663625Y-10598000D01*
X12673149Y-10607524D01*
X12682673Y-10626571D01*
X12692196Y-10664667D01*
X12692196Y-10712286D01*
X12682673Y-10750381D01*
X12673149Y-10769429D01*
X12663625Y-10778952D01*
X12644577Y-10788476D01*
X12625530Y-10788476D01*
X12606482Y-10778952D01*
X12596958Y-10769429D01*
X12587434Y-10750381D01*
X12577911Y-10712286D01*
X12577911Y-10664667D01*
X12587434Y-10626571D01*
X12596958Y-10607524D01*
X12606482Y-10598000D01*
X12625530Y-10588476D01*
X12816006Y-10588476D02*
X12835053Y-10588476D01*
X12854101Y-10598000D01*
X12863625Y-10607524D01*
X12873149Y-10626571D01*
X12882673Y-10664667D01*
X12882673Y-10712286D01*
X12873149Y-10750381D01*
X12863625Y-10769429D01*
X12854101Y-10778952D01*
X12835053Y-10788476D01*
X12816006Y-10788476D01*
X12796958Y-10778952D01*
X12787434Y-10769429D01*
X12777911Y-10750381D01*
X12768387Y-10712286D01*
X12768387Y-10664667D01*
X12777911Y-10626571D01*
X12787434Y-10607524D01*
X12796958Y-10598000D01*
X12816006Y-10588476D01*
X12968387Y-10788476D02*
X12968387Y-10655143D01*
X12968387Y-10674190D02*
X12977911Y-10664667D01*
X12996958Y-10655143D01*
X13025530Y-10655143D01*
X13044577Y-10664667D01*
X13054101Y-10683714D01*
X13054101Y-10788476D01*
X13054101Y-10683714D02*
X13063625Y-10664667D01*
X13082673Y-10655143D01*
X13111244Y-10655143D01*
X13130292Y-10664667D01*
X13139815Y-10683714D01*
X13139815Y-10788476D01*
X13235053Y-10788476D02*
X13235053Y-10655143D01*
X13235053Y-10674190D02*
X13244577Y-10664667D01*
X13263625Y-10655143D01*
X13292196Y-10655143D01*
X13311244Y-10664667D01*
X13320768Y-10683714D01*
X13320768Y-10788476D01*
X13320768Y-10683714D02*
X13330292Y-10664667D01*
X13349339Y-10655143D01*
X13377911Y-10655143D01*
X13396958Y-10664667D01*
X13406482Y-10683714D01*
X13406482Y-10788476D01*
X13796958Y-10578952D02*
X13625530Y-10836095D01*
X14054101Y-10588476D02*
X14073149Y-10588476D01*
X14092196Y-10598000D01*
X14101720Y-10607524D01*
X14111244Y-10626571D01*
X14120768Y-10664667D01*
X14120768Y-10712286D01*
X14111244Y-10750381D01*
X14101720Y-10769429D01*
X14092196Y-10778952D01*
X14073149Y-10788476D01*
X14054101Y-10788476D01*
X14035053Y-10778952D01*
X14025530Y-10769429D01*
X14016006Y-10750381D01*
X14006482Y-10712286D01*
X14006482Y-10664667D01*
X14016006Y-10626571D01*
X14025530Y-10607524D01*
X14035053Y-10598000D01*
X14054101Y-10588476D01*
X14206482Y-10769429D02*
X14216006Y-10778952D01*
X14206482Y-10788476D01*
X14196958Y-10778952D01*
X14206482Y-10769429D01*
X14206482Y-10788476D01*
X14406482Y-10788476D02*
X14292196Y-10788476D01*
X14349339Y-10788476D02*
X14349339Y-10588476D01*
X14330292Y-10617048D01*
X14311244Y-10636095D01*
X14292196Y-10645619D01*
X14596958Y-10788476D02*
X14482673Y-10788476D01*
X14539815Y-10788476D02*
X14539815Y-10588476D01*
X14520768Y-10617048D01*
X14501720Y-10636095D01*
X14482673Y-10645619D01*
X14711244Y-10674190D02*
X14692196Y-10664667D01*
X14682673Y-10655143D01*
X14673149Y-10636095D01*
X14673149Y-10626571D01*
X14682673Y-10607524D01*
X14692196Y-10598000D01*
X14711244Y-10588476D01*
X14749339Y-10588476D01*
X14768387Y-10598000D01*
X14777911Y-10607524D01*
X14787434Y-10626571D01*
X14787434Y-10636095D01*
X14777911Y-10655143D01*
X14768387Y-10664667D01*
X14749339Y-10674190D01*
X14711244Y-10674190D01*
X14692196Y-10683714D01*
X14682673Y-10693238D01*
X14673149Y-10712286D01*
X14673149Y-10750381D01*
X14682673Y-10769429D01*
X14692196Y-10778952D01*
X14711244Y-10788476D01*
X14749339Y-10788476D01*
X14768387Y-10778952D01*
X14777911Y-10769429D01*
X14787434Y-10750381D01*
X14787434Y-10712286D01*
X14777911Y-10693238D01*
X14768387Y-10683714D01*
X14749339Y-10674190D01*
X14977911Y-10788476D02*
X14863625Y-10788476D01*
X14920768Y-10788476D02*
X14920768Y-10588476D01*
X14901720Y-10617048D01*
X14882673Y-10636095D01*
X14863625Y-10645619D01*
X15054101Y-10588476D02*
X15054101Y-10626571D01*
X15130292Y-10588476D02*
X15130292Y-10626571D01*
X15425530Y-10864667D02*
X15416006Y-10855143D01*
X15396958Y-10826571D01*
X15387434Y-10807524D01*
X15377911Y-10778952D01*
X15368387Y-10731333D01*
X15368387Y-10693238D01*
X15377911Y-10645619D01*
X15387434Y-10617048D01*
X15396958Y-10598000D01*
X15416006Y-10569429D01*
X15425530Y-10559905D01*
X15587434Y-10655143D02*
X15587434Y-10788476D01*
X15539815Y-10578952D02*
X15492196Y-10721810D01*
X15616006Y-10721810D01*
X15844577Y-10788476D02*
X15844577Y-10588476D01*
X15930292Y-10788476D02*
X15930292Y-10683714D01*
X15920768Y-10664667D01*
X15901720Y-10655143D01*
X15873149Y-10655143D01*
X15854101Y-10664667D01*
X15844577Y-10674190D01*
X16054101Y-10788476D02*
X16035053Y-10778952D01*
X16025530Y-10769429D01*
X16016006Y-10750381D01*
X16016006Y-10693238D01*
X16025530Y-10674190D01*
X16035053Y-10664667D01*
X16054101Y-10655143D01*
X16082673Y-10655143D01*
X16101720Y-10664667D01*
X16111244Y-10674190D01*
X16120768Y-10693238D01*
X16120768Y-10750381D01*
X16111244Y-10769429D01*
X16101720Y-10778952D01*
X16082673Y-10788476D01*
X16054101Y-10788476D01*
X16235053Y-10788476D02*
X16216006Y-10778952D01*
X16206482Y-10759905D01*
X16206482Y-10588476D01*
X16387434Y-10778952D02*
X16368387Y-10788476D01*
X16330292Y-10788476D01*
X16311244Y-10778952D01*
X16301720Y-10759905D01*
X16301720Y-10683714D01*
X16311244Y-10664667D01*
X16330292Y-10655143D01*
X16368387Y-10655143D01*
X16387434Y-10664667D01*
X16396958Y-10683714D01*
X16396958Y-10702762D01*
X16301720Y-10721810D01*
X16473149Y-10778952D02*
X16492196Y-10788476D01*
X16530292Y-10788476D01*
X16549339Y-10778952D01*
X16558863Y-10759905D01*
X16558863Y-10750381D01*
X16549339Y-10731333D01*
X16530292Y-10721810D01*
X16501720Y-10721810D01*
X16482673Y-10712286D01*
X16473149Y-10693238D01*
X16473149Y-10683714D01*
X16482673Y-10664667D01*
X16501720Y-10655143D01*
X16530292Y-10655143D01*
X16549339Y-10664667D01*
X16625530Y-10864667D02*
X16635053Y-10855143D01*
X16654101Y-10826571D01*
X16663625Y-10807524D01*
X16673149Y-10778952D01*
X16682673Y-10731333D01*
X16682673Y-10693238D01*
X16673149Y-10645619D01*
X16663625Y-10617048D01*
X16654101Y-10598000D01*
X16635053Y-10569429D01*
X16625530Y-10559905D01*
M02*
