%TF.GenerationSoftware,KiCad,Pcbnew,(6.0.7-1)-1*%
%TF.CreationDate,2022-12-25T16:24:34+07:00*%
%TF.ProjectId,pcb,7063622e-6b69-4636-9164-5f7063625858,rev?*%
%TF.SameCoordinates,Original*%
%TF.FileFunction,Legend,Top*%
%TF.FilePolarity,Positive*%
%FSLAX46Y46*%
G04 Gerber Fmt 4.6, Leading zero omitted, Abs format (unit mm)*
G04 Created by KiCad (PCBNEW (6.0.7-1)-1) date 2022-12-25 16:24:34*
%MOMM*%
%LPD*%
G01*
G04 APERTURE LIST*
%ADD10C,0.150000*%
%ADD11C,0.381000*%
%ADD12C,0.050000*%
%ADD13C,0.120000*%
%ADD14C,1.752600*%
G04 APERTURE END LIST*
D10*
X125326428Y-48878392D02*
X125840714Y-48878392D01*
X125583571Y-49778392D02*
X125583571Y-48878392D01*
X126097857Y-49521250D02*
X126526428Y-49521250D01*
X126012142Y-49778392D02*
X126312142Y-48878392D01*
X126612142Y-49778392D01*
X126912142Y-49778392D02*
X126912142Y-48878392D01*
X127426428Y-49778392D01*
X127426428Y-48878392D01*
X127726428Y-48878392D02*
X128240714Y-48878392D01*
X127983571Y-49778392D02*
X127983571Y-48878392D01*
X129055000Y-49778392D02*
X128755000Y-49349821D01*
X128540714Y-49778392D02*
X128540714Y-48878392D01*
X128883571Y-48878392D01*
X128969285Y-48921250D01*
X129012142Y-48964107D01*
X129055000Y-49049821D01*
X129055000Y-49178392D01*
X129012142Y-49264107D01*
X128969285Y-49306964D01*
X128883571Y-49349821D01*
X128540714Y-49349821D01*
X129397857Y-49521250D02*
X129826428Y-49521250D01*
X129312142Y-49778392D02*
X129612142Y-48878392D01*
X129912142Y-49778392D01*
X130855000Y-48964107D02*
X130897857Y-48921250D01*
X130983571Y-48878392D01*
X131197857Y-48878392D01*
X131283571Y-48921250D01*
X131326428Y-48964107D01*
X131369285Y-49049821D01*
X131369285Y-49135535D01*
X131326428Y-49264107D01*
X130812142Y-49778392D01*
X131369285Y-49778392D01*
X131712142Y-49778392D02*
X132397857Y-48878392D01*
X131840714Y-48878392D02*
X131926428Y-48921250D01*
X131969285Y-49006964D01*
X131926428Y-49092678D01*
X131840714Y-49135535D01*
X131755000Y-49092678D01*
X131712142Y-49006964D01*
X131755000Y-48921250D01*
X131840714Y-48878392D01*
X132355000Y-49735535D02*
X132397857Y-49649821D01*
X132355000Y-49564107D01*
X132269285Y-49521250D01*
X132183571Y-49564107D01*
X132140714Y-49649821D01*
X132183571Y-49735535D01*
X132269285Y-49778392D01*
X132355000Y-49735535D01*
X122869285Y-51298035D02*
X122869285Y-50905178D01*
X122833571Y-50833750D01*
X122762142Y-50798035D01*
X122619285Y-50798035D01*
X122547857Y-50833750D01*
X122869285Y-51262321D02*
X122797857Y-51298035D01*
X122619285Y-51298035D01*
X122547857Y-51262321D01*
X122512142Y-51190892D01*
X122512142Y-51119464D01*
X122547857Y-51048035D01*
X122619285Y-51012321D01*
X122797857Y-51012321D01*
X122869285Y-50976607D01*
X123797857Y-51298035D02*
X123797857Y-50798035D01*
X123797857Y-50869464D02*
X123833571Y-50833750D01*
X123905000Y-50798035D01*
X124012142Y-50798035D01*
X124083571Y-50833750D01*
X124119285Y-50905178D01*
X124119285Y-51298035D01*
X124119285Y-50905178D02*
X124155000Y-50833750D01*
X124226428Y-50798035D01*
X124333571Y-50798035D01*
X124405000Y-50833750D01*
X124440714Y-50905178D01*
X124440714Y-51298035D01*
X125119285Y-51298035D02*
X125119285Y-50905178D01*
X125083571Y-50833750D01*
X125012142Y-50798035D01*
X124869285Y-50798035D01*
X124797857Y-50833750D01*
X125119285Y-51262321D02*
X125047857Y-51298035D01*
X124869285Y-51298035D01*
X124797857Y-51262321D01*
X124762142Y-51190892D01*
X124762142Y-51119464D01*
X124797857Y-51048035D01*
X124869285Y-51012321D01*
X125047857Y-51012321D01*
X125119285Y-50976607D01*
X125797857Y-51262321D02*
X125726428Y-51298035D01*
X125583571Y-51298035D01*
X125512142Y-51262321D01*
X125476428Y-51226607D01*
X125440714Y-51155178D01*
X125440714Y-50940892D01*
X125476428Y-50869464D01*
X125512142Y-50833750D01*
X125583571Y-50798035D01*
X125726428Y-50798035D01*
X125797857Y-50833750D01*
X126119285Y-51298035D02*
X126119285Y-50798035D01*
X126119285Y-50940892D02*
X126155000Y-50869464D01*
X126190714Y-50833750D01*
X126262142Y-50798035D01*
X126333571Y-50798035D01*
X126690714Y-51298035D02*
X126619285Y-51262321D01*
X126583571Y-51226607D01*
X126547857Y-51155178D01*
X126547857Y-50940892D01*
X126583571Y-50869464D01*
X126619285Y-50833750D01*
X126690714Y-50798035D01*
X126797857Y-50798035D01*
X126869285Y-50833750D01*
X126905000Y-50869464D01*
X126940714Y-50940892D01*
X126940714Y-51155178D01*
X126905000Y-51226607D01*
X126869285Y-51262321D01*
X126797857Y-51298035D01*
X126690714Y-51298035D01*
X127262142Y-50798035D02*
X127262142Y-51548035D01*
X127262142Y-50833750D02*
X127333571Y-50798035D01*
X127476428Y-50798035D01*
X127547857Y-50833750D01*
X127583571Y-50869464D01*
X127619285Y-50940892D01*
X127619285Y-51155178D01*
X127583571Y-51226607D01*
X127547857Y-51262321D01*
X127476428Y-51298035D01*
X127333571Y-51298035D01*
X127262142Y-51262321D01*
X128262142Y-51298035D02*
X128262142Y-50905178D01*
X128226428Y-50833750D01*
X128155000Y-50798035D01*
X128012142Y-50798035D01*
X127940714Y-50833750D01*
X128262142Y-51262321D02*
X128190714Y-51298035D01*
X128012142Y-51298035D01*
X127940714Y-51262321D01*
X127905000Y-51190892D01*
X127905000Y-51119464D01*
X127940714Y-51048035D01*
X128012142Y-51012321D01*
X128190714Y-51012321D01*
X128262142Y-50976607D01*
X128940714Y-51298035D02*
X128940714Y-50548035D01*
X128940714Y-51262321D02*
X128869285Y-51298035D01*
X128726428Y-51298035D01*
X128655000Y-51262321D01*
X128619285Y-51226607D01*
X128583571Y-51155178D01*
X128583571Y-50940892D01*
X128619285Y-50869464D01*
X128655000Y-50833750D01*
X128726428Y-50798035D01*
X128869285Y-50798035D01*
X128940714Y-50833750D01*
X129869285Y-51298035D02*
X129869285Y-50548035D01*
X129869285Y-50833750D02*
X129940714Y-50798035D01*
X130083571Y-50798035D01*
X130155000Y-50833750D01*
X130190714Y-50869464D01*
X130226428Y-50940892D01*
X130226428Y-51155178D01*
X130190714Y-51226607D01*
X130155000Y-51262321D01*
X130083571Y-51298035D01*
X129940714Y-51298035D01*
X129869285Y-51262321D01*
X130476428Y-50798035D02*
X130655000Y-51298035D01*
X130833571Y-50798035D02*
X130655000Y-51298035D01*
X130583571Y-51476607D01*
X130547857Y-51512321D01*
X130476428Y-51548035D01*
X131583571Y-50548035D02*
X132012142Y-50548035D01*
X131797857Y-51298035D02*
X131797857Y-50548035D01*
X132547857Y-51262321D02*
X132476428Y-51298035D01*
X132333571Y-51298035D01*
X132262142Y-51262321D01*
X132226428Y-51190892D01*
X132226428Y-50905178D01*
X132262142Y-50833750D01*
X132333571Y-50798035D01*
X132476428Y-50798035D01*
X132547857Y-50833750D01*
X132583571Y-50905178D01*
X132583571Y-50976607D01*
X132226428Y-51048035D01*
X133226428Y-51298035D02*
X133226428Y-50905178D01*
X133190714Y-50833750D01*
X133119285Y-50798035D01*
X132976428Y-50798035D01*
X132905000Y-50833750D01*
X133226428Y-51262321D02*
X133155000Y-51298035D01*
X132976428Y-51298035D01*
X132905000Y-51262321D01*
X132869285Y-51190892D01*
X132869285Y-51119464D01*
X132905000Y-51048035D01*
X132976428Y-51012321D01*
X133155000Y-51012321D01*
X133226428Y-50976607D01*
X133583571Y-51298035D02*
X133583571Y-50548035D01*
X133583571Y-50833750D02*
X133655000Y-50798035D01*
X133797857Y-50798035D01*
X133869285Y-50833750D01*
X133905000Y-50869464D01*
X133940714Y-50940892D01*
X133940714Y-51155178D01*
X133905000Y-51226607D01*
X133869285Y-51262321D01*
X133797857Y-51298035D01*
X133655000Y-51298035D01*
X133583571Y-51262321D01*
X134369285Y-51298035D02*
X134297857Y-51262321D01*
X134262142Y-51226607D01*
X134226428Y-51155178D01*
X134226428Y-50940892D01*
X134262142Y-50869464D01*
X134297857Y-50833750D01*
X134369285Y-50798035D01*
X134476428Y-50798035D01*
X134547857Y-50833750D01*
X134583571Y-50869464D01*
X134619285Y-50940892D01*
X134619285Y-51155178D01*
X134583571Y-51226607D01*
X134547857Y-51262321D01*
X134476428Y-51298035D01*
X134369285Y-51298035D01*
X135047857Y-51298035D02*
X134976428Y-51262321D01*
X134940714Y-51226607D01*
X134905000Y-51155178D01*
X134905000Y-50940892D01*
X134940714Y-50869464D01*
X134976428Y-50833750D01*
X135047857Y-50798035D01*
X135155000Y-50798035D01*
X135226428Y-50833750D01*
X135262142Y-50869464D01*
X135297857Y-50940892D01*
X135297857Y-51155178D01*
X135262142Y-51226607D01*
X135226428Y-51262321D01*
X135155000Y-51298035D01*
X135047857Y-51298035D01*
%TO.C,SW2*%
X135655220Y-84253926D02*
X135655220Y-78353926D01*
X131605220Y-75803926D02*
X131605220Y-80368750D01*
X132575220Y-75303926D02*
X132105220Y-75303926D01*
X135655220Y-76853926D02*
X135655220Y-75303926D01*
X135655220Y-75303926D02*
X135425220Y-75303926D01*
X132855220Y-86253926D02*
X133655220Y-86253926D01*
X130005220Y-86253926D02*
X129765220Y-86253926D01*
X132105220Y-75303926D02*
G75*
G03*
X131605220Y-75803926I1J-500001D01*
G01*
X129765220Y-82663072D02*
G75*
G03*
X131605220Y-80368750I-509332J2293456D01*
G01*
X133655220Y-86253920D02*
G75*
G03*
X135655220Y-84253926I10J1999990D01*
G01*
D11*
%TO.C,U1*%
X135255000Y-92233750D02*
X135255000Y-89693750D01*
X135255000Y-92233750D02*
X137795000Y-92233750D01*
X135255000Y-89693750D02*
X137795000Y-89693750D01*
X137795000Y-92233750D02*
X137795000Y-89693750D01*
D12*
X135648700Y-91840050D02*
X137401300Y-91840050D01*
X137401300Y-91840050D02*
X137401300Y-90087450D01*
X137401300Y-90087450D02*
X135648700Y-90087450D01*
X135648700Y-90087450D02*
X135648700Y-91840050D01*
G36*
X135648700Y-91840050D02*
G01*
X137401300Y-91840050D01*
X137401300Y-90087450D01*
X135648700Y-90087450D01*
X135648700Y-91840050D01*
G37*
D13*
%TO.C,LED1*%
X122325000Y-57318750D02*
X122325000Y-58218750D01*
X123325000Y-57318750D02*
X122325000Y-57318750D01*
D10*
%TO.C,SW1*%
X135655220Y-65203926D02*
X135655220Y-59303926D01*
X132855220Y-67203926D02*
X133655220Y-67203926D01*
X131605220Y-56753926D02*
X131605220Y-61318750D01*
X135655220Y-56253926D02*
X135425220Y-56253926D01*
X132575220Y-56253926D02*
X132105220Y-56253926D01*
X135655220Y-57803926D02*
X135655220Y-56253926D01*
X130005220Y-67203926D02*
X129765220Y-67203926D01*
X129765220Y-63613072D02*
G75*
G03*
X131605220Y-61318750I-509332J2293456D01*
G01*
X132105220Y-56253926D02*
G75*
G03*
X131605220Y-56753926I1J-500001D01*
G01*
X133655220Y-67203930D02*
G75*
G03*
X135655220Y-65203926I0J2000000D01*
G01*
D13*
%TO.C,LED2*%
X122325000Y-76368750D02*
X122325000Y-77268750D01*
X123325000Y-76368750D02*
X122325000Y-76368750D01*
%TD*%
D14*
%TO.C,U1*%
X136525000Y-83343750D03*
X136525000Y-80803750D03*
X136525000Y-70643750D03*
X136525000Y-68103750D03*
X121285000Y-60483750D03*
X121285000Y-80803750D03*
X121285000Y-85883750D03*
X121285000Y-88423750D03*
%TD*%
M02*
